<svg width="1440" height="495" viewBox="0 0 1440 495" fill="none" xmlns="http://www.w3.org/2000/svg">
<path d="M-329.086 286.4C-386.633 293.874 -432.85 319.737 -491.369 303.928C-540.227 290.726 -581.068 259.173 -599.622 221.706C-627.981 164.43 -611.611 98.4375 -574.743 44.1895C-558.805 20.7748 -531.286 -3.97597 -497.778 0.536916C-476.463 3.40535 -460.765 17.5887 -449.868 32.1364C-425.169 65.1095 -404.143 93.1304 -349.248 94.5693C-316.196 95.4289 -284.092 86.7302 -253.033 77.8913C-221.973 69.0524 -190.253 59.8211 -157.189 59.5501C-24.9096 58.5036 25.7603 172.877 77.2704 246.942C125.12 315.757 199.469 397.998 303.773 403.118C395.212 407.612 494.596 347.151 553.403 298.051C619.735 242.532 688.455 182.472 764.112 133.326C947.566 14.2064 1041.34 184.313 1194.96 233.525C1285.11 262.387 1350.9 236.029 1404.2 174.783C1448.21 124.207 1478.28 63.764 1541.13 27.2031C1584.34 2.06925 1658.41 -3.21915 1682.41 34.3882C1702.65 66.0999 1672.42 102.455 1643.77 129.953C1590.07 181.463 1535.88 233.385 1469.75 275.225C1403.62 317.065 1323.83 348.636 1238.8 352.775C1072.7 360.876 906.605 265.629 749.314 307.927C672.769 328.482 616.314 378.003 556.547 420.525C496.78 463.047 421.567 502.177 341.302 493.88C262.392 485.714 204.306 435.016 142.354 396.092C9.4624 312.599 -160.67 264.48 -329.086 286.4Z" fill="url(#paint0_linear_438_781)"/>
<defs>
<linearGradient id="paint0_linear_438_781" x1="539.433" y1="75.7049" x2="522.876" y2="510.78" gradientUnits="userSpaceOnUse">
<stop stop-color="#8700A9"/>
<stop offset="1" stop-color="#980089"/>
</linearGradient>
</defs>
</svg>
