<svg width="747" height="747" viewBox="0 0 747 747" fill="none" xmlns="http://www.w3.org/2000/svg">
<g opacity="0.3">
<path d="M400.392 526.949C416.622 526.949 429.779 513.792 429.779 497.562C429.779 481.332 416.622 468.175 400.392 468.175C384.162 468.175 371.005 481.332 371.005 497.562C371.005 513.792 384.162 526.949 400.392 526.949Z" fill="#EBEBEB"/>
<path d="M411.089 480.127C411.159 481.539 410.777 482.936 409.998 484.116C409.208 485.329 408.103 486.305 406.801 486.94C405.463 487.614 403.915 487.743 402.484 487.298C401.122 486.876 399.956 485.98 399.197 484.773C400.247 485.527 401.451 486.037 402.723 486.267C403.32 486.379 403.933 486.379 404.53 486.267C405.125 486.181 405.701 485.994 406.234 485.714C406.517 485.58 406.786 485.431 407.055 485.281C407.324 485.132 407.593 484.938 407.832 484.743C408.328 484.362 408.783 483.932 409.192 483.459C410.03 482.478 410.673 481.348 411.089 480.127Z" fill="#C7C7C7"/>
<path d="M400.511 481.815C400.385 480.836 400.602 479.844 401.124 479.006C401.657 478.14 402.424 477.441 403.335 476.989C404.292 476.514 405.397 476.434 406.413 476.765C407.358 477.091 408.143 477.764 408.609 478.648C407.865 478.188 407.037 477.878 406.174 477.736C405.394 477.65 404.606 477.79 403.903 478.14C402.36 478.907 401.153 480.215 400.511 481.815Z" fill="#C7C7C7"/>
<path d="M400.392 511.366C400.753 512.263 400.779 513.26 400.467 514.175C400.147 515.118 399.554 515.945 398.764 516.55C398.357 516.868 397.891 517.1 397.393 517.234C396.895 517.367 396.376 517.399 395.865 517.327C394.905 517.201 394.026 516.721 393.4 515.983C394.208 516.251 395.059 516.367 395.91 516.326C396.665 516.274 397.388 515.998 397.987 515.534C398.597 515.052 399.104 514.452 399.481 513.772C399.925 513.03 400.234 512.216 400.392 511.366Z" fill="#C7C7C7"/>
<path d="M394.296 514.713C394.135 514.414 394.035 514.085 394.002 513.747C393.968 513.408 394.002 513.066 394.102 512.741C394.299 512.055 394.713 511.452 395.282 511.023C395.577 510.792 395.916 510.624 396.279 510.532C396.642 510.439 397.02 510.423 397.389 510.485C397.725 510.546 398.044 510.674 398.329 510.862C398.614 511.049 398.858 511.292 399.047 511.576C398.482 511.464 397.902 511.439 397.329 511.501C396.865 511.56 396.425 511.747 396.059 512.039C395.198 512.716 394.579 513.654 394.296 514.713Z" fill="#C7C7C7"/>
<path d="M389.8 484.938C390.059 485.179 390.266 485.47 390.41 485.793C390.554 486.117 390.631 486.466 390.636 486.82C390.641 487.204 390.57 487.586 390.426 487.942C390.283 488.299 390.07 488.623 389.8 488.897C389.523 489.178 389.184 489.391 388.811 489.518C388.437 489.645 388.039 489.683 387.648 489.629C386.946 489.563 386.29 489.25 385.796 488.747C386.411 488.765 387.026 488.724 387.633 488.628C388.106 488.552 388.544 488.333 388.888 488C389.241 487.642 389.498 487.2 389.635 486.715C389.786 486.136 389.842 485.535 389.8 484.938Z" fill="#C7C7C7"/>
<path d="M386.154 487.791C385.941 487.645 385.764 487.452 385.637 487.226C385.51 487.001 385.437 486.75 385.422 486.491C385.411 486.216 385.457 485.941 385.557 485.683C385.658 485.426 385.81 485.193 386.005 484.997C386.21 484.789 386.463 484.633 386.741 484.545C387.02 484.456 387.316 484.437 387.604 484.489C387.856 484.524 388.098 484.609 388.317 484.74C388.535 484.871 388.724 485.045 388.873 485.251C388.455 485.301 388.04 485.381 387.633 485.49C387.36 485.559 387.111 485.704 386.916 485.909C386.7 486.119 386.532 486.374 386.423 486.656C386.282 487.02 386.192 487.402 386.154 487.791Z" fill="#C7C7C7"/>
<path d="M410.222 515.908C410.052 516.22 409.82 516.493 409.54 516.712C409.26 516.93 408.938 517.089 408.594 517.178C408.225 517.29 407.838 517.325 407.455 517.281C407.072 517.238 406.702 517.116 406.368 516.924C406.027 516.725 405.737 516.451 405.519 516.122C405.301 515.793 405.162 515.418 405.113 515.027C405.02 514.326 405.168 513.615 405.531 513.01C405.655 513.612 405.845 514.198 406.099 514.758C406.276 515.203 406.597 515.576 407.01 515.818C407.439 516.08 407.928 516.224 408.43 516.237C409.042 516.231 409.648 516.119 410.222 515.908Z" fill="#C7C7C7"/>
<path d="M406.562 513.084C406.65 512.841 406.792 512.622 406.979 512.443C407.166 512.264 407.391 512.131 407.638 512.054C407.909 511.965 408.196 511.935 408.479 511.966C408.762 511.997 409.036 512.088 409.281 512.233C409.543 512.388 409.761 512.606 409.918 512.867C410.074 513.128 410.164 513.423 410.178 513.727C410.204 513.98 410.179 514.237 410.104 514.48C410.03 514.724 409.908 514.95 409.744 515.146C409.585 514.754 409.405 514.37 409.207 513.996C409.069 513.749 408.868 513.542 408.624 513.398C408.364 513.252 408.081 513.151 407.787 513.099C407.382 513.037 406.969 513.032 406.562 513.084Z" fill="#C7C7C7"/>
<path d="M420.292 495.231C420.351 495.946 420.126 496.654 419.665 497.203C419.152 497.784 418.435 498.143 417.663 498.204C417.268 498.226 416.873 498.158 416.508 498.006C416.143 497.853 415.818 497.619 415.556 497.323C415.085 496.798 414.805 496.129 414.764 495.425C415.222 495.849 415.723 496.225 416.258 496.546C416.661 496.81 417.137 496.94 417.618 496.919C418.117 496.885 418.6 496.726 419.022 496.456C419.508 496.119 419.937 495.705 420.292 495.231Z" fill="#C7C7C7"/>
<path d="M415.676 494.947C415.603 494.692 415.594 494.422 415.649 494.162C415.703 493.902 415.82 493.658 415.989 493.453C416.167 493.224 416.393 493.037 416.651 492.906C416.91 492.774 417.194 492.701 417.483 492.691C417.769 492.68 418.053 492.736 418.313 492.855C418.573 492.975 418.801 493.154 418.977 493.379C419.141 493.571 419.264 493.795 419.338 494.036C419.413 494.278 419.437 494.532 419.411 494.783C419.066 494.539 418.701 494.324 418.32 494.141C418.072 494.011 417.792 493.954 417.513 493.976C417.212 493.991 416.917 494.067 416.647 494.2C416.293 494.408 415.967 494.659 415.676 494.947Z" fill="#C7C7C7"/>
<path d="M381.358 501.895C381.391 502.246 381.352 502.601 381.244 502.937C381.136 503.273 380.962 503.584 380.731 503.852C380.482 504.145 380.176 504.385 379.832 504.557C379.488 504.729 379.113 504.829 378.729 504.853C378.334 504.878 377.938 504.812 377.572 504.659C377.207 504.506 376.882 504.271 376.622 503.971C376.155 503.45 375.876 502.787 375.831 502.089C376.292 502.509 376.792 502.884 377.325 503.209C377.728 503.47 378.204 503.595 378.684 503.568C379.182 503.538 379.665 503.384 380.088 503.12C380.575 502.782 381.003 502.368 381.358 501.895Z" fill="#C7C7C7"/>
<path d="M376.742 501.596C376.672 501.34 376.664 501.071 376.719 500.811C376.773 500.551 376.889 500.308 377.056 500.102C377.236 499.876 377.463 499.691 377.72 499.559C377.978 499.428 378.261 499.353 378.55 499.34C378.834 499.328 379.117 499.382 379.377 499.499C379.636 499.615 379.864 499.791 380.044 500.012C380.206 500.206 380.327 500.43 380.402 500.671C380.476 500.912 380.502 501.165 380.477 501.416C380.129 501.182 379.764 500.972 379.386 500.789C379.14 500.655 378.86 500.592 378.58 500.61C378.284 500.63 377.995 500.706 377.728 500.834C377.366 501.041 377.034 501.297 376.742 501.596Z" fill="#C7C7C7"/>
<g opacity="0.4">
<path d="M72.3394 388.321C72.2912 399.661 74.4582 410.902 78.7188 421.413C83.0365 431.766 89.864 440.939 98.7085 446.706C100.866 448.136 103.145 449.371 105.521 450.396C107.856 451.361 110.277 452.101 112.752 452.607C117.575 453.602 122.544 453.673 127.393 452.817C137.015 451.158 145.889 446.392 153.748 440.118C154.226 439.714 154.763 439.311 155.242 438.937L156.347 437.877C157.064 437.13 157.841 436.383 158.469 435.591C159.903 433.957 161.206 432.214 162.368 430.377C164.91 426.404 167.085 422.209 168.867 417.842C172.744 408.207 175.924 398.306 178.384 388.216C183.717 367.3 187.96 345.144 193.01 322.644C194.265 317.007 195.604 311.35 197.029 305.672C198.403 299.98 199.927 294.273 201.511 288.521C204.731 276.558 208.866 264.86 213.881 253.532C215.255 250.544 216.764 247.556 218.557 244.463C219.439 242.969 220.44 241.371 221.545 239.847C222.651 238.323 223.726 236.859 224.907 235.529C229.426 230.272 234.661 225.675 240.459 221.874C251.425 214.509 262.69 209.922 273.507 205.261C284.323 200.599 294.99 196.297 305.075 191.142C315.059 186.133 324.445 180.014 333.057 172.901C341.389 165.919 348.494 157.592 354.078 148.265C359.576 139.017 363.58 128.932 364.73 119.117C365.358 114.436 365.292 109.689 364.536 105.028C363.816 100.861 362.294 96.8727 360.054 93.2854C358.049 90.1145 355.411 87.3913 352.306 85.286C349.201 83.1807 345.694 81.7385 342.006 81.0496C338.242 80.3142 334.387 80.1631 330.577 80.6014C326.487 81.1079 322.473 82.1113 318.625 83.5894C317.624 83.9629 316.638 84.3812 315.637 84.7995L312.112 86.2935C309.781 87.3393 307.465 88.4299 305.209 89.5952C300.727 91.9109 296.245 94.4059 291.898 97.1997C283.188 102.713 274.627 109.391 265.095 116.622C255.101 124.312 244.555 131.258 233.542 137.403C222.062 143.537 210.02 148.555 197.581 152.388C196.087 152.896 194.504 153.299 192.965 153.748L188.827 154.928C186.541 155.6 184.225 156.332 181.924 157.124C177.338 158.738 172.796 160.575 168.374 162.622C150.7 170.869 135.252 182.432 124.256 197.462C118.569 205.125 113.866 213.472 110.257 222.307C108.316 226.928 106.674 231.669 105.342 236.5C103.909 241.505 102.742 246.581 101.846 251.709C100.95 256.923 100.247 262.272 99.8141 267.71C99.59 270.265 99.4257 273.596 99.2165 276.674C99.0073 279.752 98.6936 282.814 98.335 285.862C96.9068 297.913 94.6353 309.85 91.5373 321.584C88.5493 333.192 84.8442 344.427 81.0793 355.467C79.1819 360.995 77.2846 366.478 75.5963 371.901C73.7783 377.203 72.6828 382.726 72.3394 388.321ZM67.8574 388.321C67.8732 385.265 68.1834 382.218 68.7837 379.222C69.3066 376.234 69.9938 373.41 70.6661 370.572C72.0107 364.88 73.4599 359.262 74.6551 353.615C75.8503 347.968 76.9111 342.335 77.6431 336.673C78.3752 331.011 78.8533 325.333 79.1371 319.671C79.5417 308.447 78.821 297.211 76.9858 286.131C76.5674 283.382 76.0296 280.663 75.4918 277.959C74.9539 275.255 74.3115 272.745 73.684 269.533C72.4072 263.344 71.4745 257.09 70.8902 250.798C69.6224 237.721 70.2312 224.53 72.698 211.625C75.3231 198.137 80.2344 185.197 87.2197 173.364C94.3758 161.495 103.332 150.81 113.768 141.691C123.999 132.732 135.391 125.194 147.637 119.281C153.662 116.328 159.87 113.763 166.222 111.602C169.39 110.481 172.617 109.51 175.904 108.614L183.881 106.477C193.677 103.806 203.228 100.307 212.432 96.0194C221.981 91.4622 231.202 86.2455 240.026 80.4071C249.513 74.4311 259.777 67.4542 271.161 61.4035C276.872 58.3312 282.742 55.5634 288.745 53.1118C291.733 51.8717 294.721 50.7512 297.859 49.6756L302.46 48.1816C304.208 47.6587 305.971 47.1507 307.749 46.6876C315.038 44.8354 322.553 44.0255 330.069 44.2822C337.873 44.5297 345.573 46.1375 352.823 49.0331C360.224 52.0101 366.947 56.4514 372.589 62.0907C378.16 67.6527 382.48 74.3406 385.258 81.7069C387.868 88.673 389.15 96.0663 389.038 103.504C388.959 110.433 387.872 117.313 385.811 123.927C381.813 136.132 375.721 147.547 367.808 157.662C364.051 162.595 359.963 167.267 355.572 171.646C351.205 175.945 346.591 179.986 341.752 183.747C322.495 198.687 300.623 208.607 280.857 220.156C270.997 225.863 261.599 232.108 254.473 239.309C251.133 242.669 248.295 246.493 246.047 250.663C245.539 251.659 245.076 252.655 244.657 253.651C244.254 254.622 243.881 255.609 243.507 256.639C242.775 258.791 242.103 261.121 241.49 263.601C240.28 268.517 239.339 273.82 238.502 279.229C237.665 284.637 236.919 290.18 236.157 295.767L233.945 312.709C233.198 318.401 232.451 324.138 231.555 329.905C228.029 352.913 223.547 376.383 215.121 399.75C210.878 411.895 205.211 423.494 198.239 434.306C196.341 437.085 194.369 439.834 192.173 442.523C189.973 445.277 187.587 447.878 185.032 450.307C182.399 452.848 179.571 455.181 176.576 457.284C175.047 458.364 173.461 459.362 171.825 460.272L169.315 461.616C168.508 462.035 167.821 462.333 167.029 462.692C160.964 465.508 154.613 467.662 148.085 469.116C141.444 470.584 134.626 471.087 127.842 470.61C121.095 470.129 114.483 468.481 108.3 465.74C105.28 464.399 102.389 462.783 99.6647 460.914C97.0125 459.101 94.514 457.072 92.1947 454.848C83.4211 446.106 76.9487 435.327 73.3553 423.474C69.8165 412.129 67.964 400.324 67.8574 388.44V388.321Z" fill="#EBEBEB"/>
<path d="M260.434 438.295C266.616 426.501 271.212 413.942 274.104 400.945C277.227 387.992 279.214 374.77 281.156 361.399C282.187 354.721 283.113 347.953 284.338 341.185C285.483 334.224 287.029 327.335 288.97 320.553C291.029 313.242 293.99 306.216 297.784 299.637C302.174 292.135 308.2 285.721 315.413 280.872C317.341 279.602 319.417 278.541 321.389 277.406C323.361 276.271 325.662 275.553 327.843 274.702C330.025 273.85 332.325 273.357 334.507 272.79C336.688 272.222 338.989 271.968 341.215 271.594C349.796 270.454 358.498 270.57 367.046 271.938C375.43 273.274 383.618 275.632 391.428 278.96C398.744 282.122 405.784 285.885 412.479 290.21C424.633 298.26 436.188 307.183 447.05 316.907L462.348 330.353C464.843 332.55 467.368 334.641 469.818 336.748L473.538 339.87L477.258 342.858C482.093 346.729 487.119 350.354 492.318 353.72C497.232 356.932 502.41 359.721 507.796 362.056C513.521 364.393 519.44 366.223 525.485 367.524C531.789 369.018 538.363 370.124 545.101 371.11C558.547 373.097 572.591 374.352 586.798 375.995L597.481 377.325C601.081 377.848 604.652 378.385 608.267 379.043C615.604 380.27 622.837 382.059 629.9 384.391C637.291 386.78 644.251 390.336 650.518 394.924C656.852 399.676 662.023 405.806 665.637 412.852C667.363 416.255 668.754 419.817 669.79 423.489L671.135 428.913C671.508 430.705 671.747 432.438 672.061 434.216C673.115 441.321 673.52 448.507 673.271 455.685C672.911 462.912 671.85 470.087 670.104 477.109C669.626 478.857 669.267 480.65 668.7 482.368L667.026 487.552C665.741 490.943 664.442 494.35 662.903 497.637C656.737 510.887 648.636 523.148 638.864 534.015C634.054 539.501 628.926 544.699 623.506 549.583C618.158 554.558 612.45 559.085 606.654 563.492C603.666 565.614 600.797 567.84 597.764 569.842L593.282 572.919L588.696 575.907C582.531 579.772 576.236 583.407 569.812 586.813C566.6 588.502 563.358 590.13 560.116 591.774C556.874 593.417 553.557 594.881 550.255 596.36C546.953 597.839 543.637 599.348 540.275 600.678C536.914 602.007 533.582 603.427 530.176 604.667L510.754 611.928C507.587 613.108 504.479 614.378 501.357 615.603L496.665 617.455L492.019 619.383C467.364 629.569 443.356 641.254 420.128 654.372C408.46 660.961 396.896 667.818 384.347 674.75C378.087 678.261 371.453 681.667 364.192 684.909C356.5 688.376 348.496 691.107 340.288 693.067C331.478 695.122 322.44 696.031 313.396 695.771C304.795 695.507 296.247 694.33 287.894 692.26C283.83 691.378 280.05 690.198 276.211 689.078C274.313 688.48 272.491 687.823 270.638 687.21C268.786 686.598 266.963 685.97 265.051 685.178L259.403 682.908L256.595 681.742L253.801 680.383C250.022 678.63 246.346 676.665 242.79 674.496C240.997 673.391 239.204 672.315 237.427 671.165L232.257 667.355L229.718 665.428C228.866 664.77 228.089 664.008 227.267 663.291L222.487 658.929C220.993 657.435 219.499 655.702 218.094 654.103L215.943 651.653C215.256 650.816 214.643 649.92 213.986 649.039C212.716 647.276 211.431 645.528 210.206 643.75C208.981 641.972 208.04 640.015 206.994 638.132C203.059 630.757 200.263 622.829 198.702 614.617L198.09 611.629C197.925 610.628 197.821 609.642 197.701 608.641C197.462 606.669 197.208 604.697 197.044 602.665C196.825 598.809 196.8 594.945 196.969 591.086C197.307 583.657 198.276 576.27 199.867 569.005C201.429 562.018 203.385 555.124 205.724 548.358C210.336 535.25 215.76 522.441 221.964 510.007C223.458 506.944 224.952 503.837 226.565 500.819C228.179 497.801 229.553 494.723 231.241 491.72C232.93 488.717 234.439 485.744 236.052 482.756L240.878 473.792L260.434 438.295ZM264.408 440.327C258.014 452.159 252.068 464.231 246.779 476.556L244.807 481.173L242.954 485.834C241.684 488.927 240.564 492.079 239.429 495.216C237.113 501.476 235.111 507.841 233.258 514.22C229.567 526.817 227.027 539.724 225.669 552.78C225.009 559.097 224.724 565.448 224.817 571.799C224.951 577.875 225.575 583.93 226.685 589.906C227.088 592.894 227.999 595.598 228.657 598.377L230.016 602.366C230.255 603.023 230.45 603.681 230.689 604.323L231.54 606.206C233.565 611.038 236.256 615.564 239.533 619.652C240.355 620.638 241.177 621.594 241.938 622.64L244.628 625.329C245.076 625.777 245.494 626.255 245.957 626.673L247.451 627.883C248.452 628.675 249.379 629.527 250.439 630.304L253.651 632.515C254.189 632.888 254.682 633.292 255.25 633.62L256.998 634.621L260.449 636.638L264.169 638.416C269.325 640.86 274.653 642.923 280.11 644.586C281.455 645.065 282.964 645.468 284.458 645.871C285.952 646.275 287.446 646.723 288.94 647.081C291.853 647.724 294.781 648.501 297.59 648.934C302.885 649.971 308.27 650.471 313.665 650.428C318.596 650.354 323.5 649.697 328.277 648.471C337.943 646.006 348.73 640.747 360.428 634.487C366.269 631.394 372.23 628.108 378.356 624.776C384.481 621.444 390.741 618.202 397.031 614.945C422.558 601.928 448.973 590.73 476.078 581.435L481.068 579.672L486.163 577.999C489.554 576.893 492.945 575.743 496.352 574.697L516.297 568.617C522.646 566.659 528.936 564.583 535.196 562.446L544.503 559.085C547.581 557.905 550.659 556.739 553.721 555.529C559.772 553.019 565.882 550.554 571.769 547.745L576.251 545.684L580.628 543.517C583.616 542.113 586.38 540.529 589.264 539.035C600.573 532.904 611.26 525.689 621.175 517.492C626.015 513.418 630.563 509.01 634.786 504.3C638.989 499.685 642.746 494.683 646.006 489.36C652.604 478.796 656.783 466.904 658.242 454.535C658.891 448.31 658.861 442.033 658.152 435.815C657.928 434.321 657.778 432.677 657.51 431.154L656.583 426.672C655.81 423.821 654.77 421.05 653.476 418.395C650.899 413.141 647.059 408.608 642.301 405.203C637.22 401.679 631.555 399.084 625.568 397.539C619.204 395.871 612.704 394.771 606.146 394.252C599.483 393.699 592.7 393.505 585.827 393.565C572.112 393.639 558.129 394.491 543.712 394.79C536.481 394.894 529.13 394.79 521.57 394.341C513.726 393.901 505.934 392.792 498.279 391.025C481.979 387.036 467.936 379.73 455.222 371.603C429.973 355.258 410.088 335.747 389.889 321.389C379.835 314.233 369.885 308.526 359.636 305.389C354.484 303.809 349.153 302.885 343.77 302.64C338.879 302.206 333.954 302.926 329.393 304.743C324.831 306.559 320.759 309.421 317.505 313.098C313.445 317.496 309.966 322.396 307.152 327.679C304.098 333.331 301.37 339.152 298.979 345.114C296.574 351.254 294.288 357.544 292.212 363.909C287.939 376.638 284.189 389.65 279.901 402.514C275.836 415.537 270.663 428.187 264.438 440.327H264.408Z" fill="#EBEBEB"/>
<path d="M676.364 134.281C674.486 138.303 672.335 142.192 669.925 145.919C668.819 147.712 667.654 149.4 666.488 151.103C665.323 152.806 664.098 154.405 662.873 155.974C660.453 159.171 657.913 162.114 655.403 165.057C645.154 176.636 633.994 186.571 623.058 196.431L619.188 199.942L617.485 201.436L615.827 203.184C614.706 204.305 613.72 205.589 612.675 206.814C611.629 208.04 610.702 209.444 609.687 210.818C608.671 212.193 607.804 213.597 606.938 215.091C606.071 216.585 605.19 218.079 604.368 219.573C602.769 222.561 601.141 225.803 599.722 229.06C593.746 242.118 589.264 256.146 582.376 270.205C578.769 277.686 573.993 284.544 568.228 290.523C565.074 293.686 561.565 296.473 557.77 298.83C555.838 300.013 553.843 301.09 551.794 302.057C550.763 302.535 549.732 303.043 548.687 303.461L545.519 304.642C541.308 306.098 536.98 307.187 532.581 307.898C530.37 308.302 527.98 308.421 525.634 308.631C523.289 308.84 521.003 308.631 518.657 308.631C516.312 308.631 514.175 308.227 511.8 307.973C510.68 307.84 509.568 307.65 508.468 307.405L505.151 306.733L503.493 306.375L501.894 305.911L498.697 304.955C496.583 304.349 494.508 303.616 492.482 302.759C484.556 299.592 477.061 295.435 470.177 290.389C463.542 285.469 457.421 279.893 451.905 273.746C446.529 267.652 441.784 261.03 437.742 253.98C436.741 252.217 435.785 250.439 434.844 248.676C433.903 246.913 433.111 245.016 432.259 243.193C431.408 241.371 430.631 239.518 429.914 237.636C429.196 235.753 428.42 233.916 427.822 231.973C425.248 224.4 423.289 216.631 421.965 208.742C420.622 200.993 419.902 193.149 419.814 185.286C419.667 177.604 420.247 169.925 421.547 162.353C422.832 154.875 425.208 147.627 428.599 140.839C432.181 133.958 437.292 127.989 443.539 123.389C449.902 118.833 456.859 115.168 464.216 112.498C478.904 107.185 494.097 103.39 509.559 101.174C517.193 100.008 524.783 99.2315 532.297 98.7534C533.026 98.7207 533.751 98.6257 534.464 98.4696L536.212 98.1558C537.407 97.7972 538.542 97.6927 539.723 97.2743L541.456 96.7813C542.038 96.5722 542.621 96.3331 543.204 96.1688C544.369 95.855 545.594 95.2425 546.774 94.869C552.165 92.6715 557.414 90.1418 562.491 87.2944L571.351 82.3194L576.087 79.6451L581.166 76.9709C584.543 75.1183 588.322 73.3405 592.207 71.5775C596.425 69.735 600.757 68.1631 605.175 66.8714C610.158 65.4124 615.281 64.481 620.458 64.0926C626.111 63.66 631.796 64.0018 637.355 65.1085L639.477 65.5119L641.539 66.0647C642.898 66.4531 644.288 66.8266 645.647 67.2599C648.256 68.1775 650.805 69.2553 653.281 70.4869L656.882 72.3544L660.184 74.4012C662.318 75.7854 664.378 77.2815 666.354 78.8832C666.877 79.2716 667.28 79.5704 667.848 80.0635C668.416 80.5565 669.342 81.3782 670.104 82.0654C671.657 83.4648 673.082 84.9998 674.362 86.652C674.676 87.0554 675.019 87.4737 675.333 87.907L676.244 89.2964C676.827 90.2376 677.38 91.1639 677.932 92.12C678.922 94.0463 679.766 96.0439 680.457 98.0961C680.756 99.112 681.025 100.113 681.279 101.084C681.414 101.592 681.533 102.115 681.623 102.578L681.862 104.072C681.996 105.028 682.101 105.999 682.205 106.97C682.31 107.942 682.28 108.778 682.31 109.689C682.34 110.601 682.31 111.497 682.31 112.364L682.101 114.814C682.011 115.606 681.951 116.472 681.817 117.219L681.384 119.52C680.288 124.618 678.604 129.572 676.364 134.281Z" fill="#EBEBEB"/>
<path d="M183.583 529.399C184.319 533.67 184.624 538.005 184.494 542.337C184.166 550.238 182.81 558.063 180.46 565.613C178.428 572.977 175.836 580.174 172.706 587.142C169.526 594.142 165.513 600.734 160.754 606.773C155.782 613.056 149.994 618.648 143.544 623.401C136.313 628.467 128 631.777 119.266 633.068C114.636 633.76 109.936 633.855 105.282 633.351C100.787 632.849 96.3937 631.665 92.2546 629.84C88.5827 628.191 85.1464 626.061 82.0356 623.506C79.2527 621.178 76.6134 618.683 74.1323 616.036C72.8481 614.65 71.6929 613.15 70.6812 611.554C69.7288 609.88 68.9144 608.131 68.246 606.325C66.9926 602.593 66.1216 598.744 65.6464 594.836C64.5328 586.712 64.4424 578.481 65.3775 570.334C66.2656 562.512 68.8123 554.969 72.8475 548.208C76.7518 541.801 81.9034 536.243 87.9967 531.864C94.2856 527.598 101.055 524.088 108.166 521.406C115.247 518.597 122.105 515.953 128.619 512.875C135.132 509.798 141.437 506.376 149.37 503.911C151.488 503.241 153.664 502.771 155.869 502.507C158.44 502.161 161.049 502.201 163.608 502.626C167.042 503.289 170.244 504.833 172.901 507.108C173.561 507.687 174.189 508.3 174.783 508.946C175.336 509.574 175.889 510.216 176.412 510.888C177.328 512.131 178.152 513.439 178.877 514.802C179.548 516.052 180.147 517.339 180.669 518.657C181.118 519.852 181.626 521.167 181.939 522.317L182.462 524.125L182.896 525.873C183.179 527.143 183.374 528.249 183.583 529.399Z" fill="#EBEBEB"/>
</g>
<g opacity="0.4">
<path d="M605.593 278.601C640.717 251.321 676.05 256.624 676.05 256.624C676.05 256.624 676.214 292.361 644.153 323.182C617.097 349.193 591.415 347.714 582.555 337.495C573.696 327.276 575.952 301.609 605.593 278.601Z" fill="#EBEBEB"/>
<path d="M601.693 296.245C623.954 278.945 646.349 282.321 646.349 282.321C646.349 282.321 646.454 304.955 626.135 324.512C608.984 340.946 592.685 340.064 587.082 333.58C581.48 327.096 582.899 310.827 601.693 296.245Z" fill="white"/>
</g>
<path d="M617.814 305.583L615.155 303.461C614.973 303.317 614.821 303.139 614.709 302.936C614.596 302.733 614.525 302.511 614.498 302.28C614.472 302.05 614.491 301.817 614.555 301.594C614.619 301.371 614.726 301.163 614.871 300.981C615.016 300.801 615.195 300.65 615.398 300.539C615.602 300.428 615.825 300.358 616.055 300.333C616.285 300.308 616.518 300.328 616.741 300.394C616.963 300.459 617.17 300.567 617.351 300.712L620.01 302.834C620.19 302.978 620.34 303.156 620.451 303.358C620.562 303.559 620.632 303.781 620.657 304.01C620.682 304.24 620.662 304.471 620.597 304.692C620.532 304.914 620.424 305.12 620.279 305.299C620.136 305.48 619.959 305.631 619.758 305.744C619.556 305.856 619.335 305.928 619.106 305.954C618.877 305.981 618.644 305.961 618.423 305.898C618.201 305.834 617.994 305.727 617.814 305.583Z" fill="#EBEBEB"/>
<path d="M587.829 332.938L585.977 330.084C585.722 329.694 585.633 329.218 585.728 328.762C585.823 328.305 586.095 327.905 586.485 327.649C586.679 327.521 586.896 327.432 587.125 327.388C587.353 327.344 587.588 327.346 587.816 327.393C588.043 327.44 588.26 327.532 588.452 327.663C588.644 327.794 588.808 327.962 588.935 328.157L590.788 331.011C591.041 331.403 591.128 331.88 591.03 332.336C590.932 332.793 590.657 333.192 590.265 333.446C589.874 333.7 589.399 333.79 588.942 333.695C588.486 333.599 588.086 333.327 587.829 332.938Z" fill="#EBEBEB"/>
<path d="M605.339 300.16H603.501C603.27 300.152 603.042 300.099 602.831 300.003C602.62 299.907 602.43 299.771 602.272 299.601C602.114 299.432 601.991 299.233 601.909 299.016C601.828 298.799 601.79 298.568 601.798 298.337C601.806 298.105 601.859 297.878 601.955 297.667C602.051 297.456 602.187 297.266 602.357 297.108C602.526 296.949 602.725 296.826 602.942 296.745C603.158 296.663 603.389 296.626 603.621 296.634H605.444C605.674 296.64 605.902 296.691 606.113 296.785C606.324 296.879 606.514 297.014 606.672 297.182C606.83 297.351 606.954 297.548 607.035 297.764C607.117 297.981 607.155 298.211 607.147 298.441C607.141 298.673 607.089 298.901 606.995 299.113C606.901 299.324 606.767 299.516 606.599 299.675C606.431 299.835 606.233 299.96 606.017 300.043C605.801 300.126 605.57 300.166 605.339 300.16Z" fill="#EBEBEB"/>
<path d="M622.251 322.256V320.433C622.257 320.202 622.308 319.975 622.402 319.764C622.497 319.553 622.632 319.363 622.8 319.205C622.968 319.046 623.166 318.923 623.382 318.841C623.598 318.76 623.828 318.722 624.059 318.73C624.29 318.736 624.518 318.787 624.73 318.881C624.942 318.975 625.133 319.11 625.292 319.278C625.452 319.446 625.577 319.643 625.66 319.86C625.743 320.076 625.783 320.306 625.777 320.538V322.375C625.771 322.606 625.72 322.834 625.625 323.045C625.531 323.255 625.396 323.446 625.228 323.604C625.06 323.762 624.862 323.886 624.646 323.967C624.43 324.049 624.2 324.087 623.969 324.079C623.736 324.073 623.507 324.021 623.294 323.926C623.082 323.831 622.89 323.695 622.73 323.525C622.57 323.356 622.446 323.157 622.364 322.939C622.281 322.721 622.243 322.489 622.251 322.256Z" fill="#EBEBEB"/>
<path d="M583.302 322.794L583.093 320.986C583.042 320.53 583.168 320.072 583.447 319.707C583.725 319.342 584.134 319.099 584.587 319.029C585.055 318.978 585.523 319.115 585.89 319.409C586.256 319.703 586.492 320.13 586.544 320.597L586.739 322.405C586.794 322.86 586.668 323.319 586.389 323.682C586.11 324.045 585.699 324.284 585.245 324.347C585.015 324.374 584.782 324.355 584.56 324.292C584.337 324.228 584.13 324.121 583.949 323.976C583.768 323.832 583.618 323.653 583.507 323.45C583.396 323.247 583.327 323.024 583.302 322.794Z" fill="#EBEBEB"/>
<path d="M612.958 338.72L611.255 339.392C611.039 339.477 610.809 339.518 610.577 339.513C610.346 339.509 610.117 339.458 609.905 339.365C609.692 339.273 609.501 339.139 609.34 338.971C609.18 338.804 609.054 338.607 608.969 338.391C608.885 338.175 608.844 337.945 608.848 337.713C608.853 337.481 608.903 337.253 608.996 337.041C609.089 336.828 609.223 336.636 609.39 336.476C609.557 336.315 609.754 336.189 609.97 336.105L611.674 335.448C612.108 335.276 612.592 335.284 613.02 335.468C613.449 335.653 613.786 336 613.959 336.434C614.046 336.649 614.089 336.88 614.085 337.112C614.082 337.345 614.032 337.574 613.939 337.787C613.845 338 613.711 338.192 613.542 338.352C613.374 338.512 613.176 338.637 612.958 338.72Z" fill="#EBEBEB"/>
<path d="M606.835 338.888C617.996 337.642 626.033 327.584 624.787 316.424C623.541 305.263 613.484 297.226 602.323 298.472C591.163 299.718 583.126 309.775 584.371 320.936C585.617 332.096 595.675 340.134 606.835 338.888Z" fill="#EBEBEB"/>
<path d="M595.867 307.555C595.92 308.534 596.293 309.468 596.928 310.214C597.56 310.99 598.392 311.579 599.333 311.917C600.304 312.273 601.374 312.241 602.321 311.828C603.221 311.43 603.952 310.726 604.383 309.841C603.725 310.454 602.939 310.914 602.082 311.185C601.68 311.303 601.26 311.348 600.842 311.32C600.423 311.307 600.01 311.226 599.617 311.081L599.019 310.842C598.825 310.737 598.631 310.648 598.452 310.528C598.083 310.304 597.737 310.044 597.421 309.751C596.761 309.131 596.232 308.384 595.867 307.555Z" fill="#C7C7C7"/>
<path d="M603.262 307.913C603.273 307.226 603.046 306.556 602.62 306.016C602.189 305.461 601.609 305.041 600.947 304.806C600.284 304.553 599.549 304.567 598.896 304.846C598.244 305.125 597.726 305.646 597.451 306.3C597.928 305.924 598.477 305.65 599.064 305.493C599.589 305.365 600.141 305.396 600.648 305.583C601.781 306.004 602.715 306.836 603.262 307.913Z" fill="#C7C7C7"/>
<path d="M611.673 321.016C611.489 321.662 611.548 322.352 611.838 322.958C612.117 323.585 612.588 324.108 613.182 324.452C613.484 324.642 613.821 324.768 614.173 324.822C614.525 324.876 614.885 324.857 615.229 324.766C615.883 324.604 616.453 324.205 616.828 323.645C616.291 323.893 615.714 324.045 615.125 324.094C614.598 324.108 614.078 323.968 613.631 323.69C613.158 323.418 612.746 323.052 612.42 322.614C612.075 322.132 611.822 321.59 611.673 321.016Z" fill="#C7C7C7"/>
<path d="M616.111 322.838C616.203 322.624 616.251 322.392 616.251 322.159C616.251 321.925 616.203 321.694 616.111 321.479C615.926 321.022 615.595 320.638 615.17 320.388C614.948 320.252 614.701 320.164 614.444 320.128C614.187 320.092 613.926 320.109 613.676 320.179C613.448 320.246 613.237 320.359 613.055 320.511C612.872 320.662 612.723 320.849 612.615 321.061C612.996 320.936 613.394 320.871 613.795 320.866C614.118 320.883 614.431 320.981 614.706 321.15C615.346 321.545 615.839 322.138 616.111 322.838Z" fill="#C7C7C7"/>
<path d="M618.411 315.712C618.251 315.898 618.131 316.114 618.056 316.348C617.982 316.581 617.955 316.828 617.978 317.072C618.003 317.336 618.08 317.592 618.206 317.826C618.331 318.06 618.503 318.266 618.71 318.431C618.918 318.596 619.16 318.713 619.418 318.772C619.677 318.832 619.945 318.833 620.204 318.775C620.677 318.672 621.099 318.408 621.399 318.028C620.982 318.063 620.562 318.063 620.144 318.028C619.806 318.022 619.479 317.9 619.218 317.684C618.951 317.467 618.745 317.184 618.621 316.863C618.489 316.493 618.418 316.104 618.411 315.712Z" fill="#C7C7C7"/>
<path d="M621.131 317.385C621.27 317.273 621.379 317.129 621.45 316.965C621.52 316.801 621.549 316.622 621.534 316.444C621.527 316.247 621.476 316.053 621.386 315.878C621.295 315.702 621.167 315.549 621.011 315.428C620.856 315.299 620.671 315.209 620.473 315.168C620.275 315.126 620.07 315.133 619.876 315.189C619.705 315.233 619.546 315.311 619.407 315.419C619.268 315.527 619.153 315.662 619.069 315.817C619.359 315.822 619.649 315.847 619.935 315.891C620.126 315.92 620.306 315.998 620.458 316.115C620.622 316.247 620.759 316.41 620.862 316.594C620.985 316.845 621.075 317.111 621.131 317.385Z" fill="#C7C7C7"/>
<path d="M590.041 312.829C590.044 313.076 590.098 313.32 590.198 313.546C590.298 313.771 590.443 313.975 590.623 314.144C590.823 314.329 591.058 314.471 591.315 314.561C591.573 314.651 591.846 314.687 592.117 314.666C592.39 314.654 592.656 314.579 592.894 314.447C593.133 314.315 593.337 314.129 593.492 313.904C593.771 313.508 593.908 313.029 593.88 312.545C593.608 312.865 593.308 313.16 592.984 313.426C592.721 313.632 592.404 313.756 592.072 313.785C591.726 313.802 591.382 313.73 591.071 313.576C590.69 313.384 590.342 313.132 590.041 312.829Z" fill="#C7C7C7"/>
<path d="M593.193 312.246C593.217 312.07 593.2 311.89 593.143 311.722C593.086 311.553 592.99 311.4 592.864 311.275C592.727 311.134 592.562 311.024 592.379 310.952C592.196 310.88 592 310.847 591.803 310.857C591.615 310.867 591.431 310.919 591.264 311.008C591.098 311.097 590.952 311.221 590.839 311.371C590.725 311.522 590.645 311.696 590.606 311.88C590.566 312.065 590.567 312.256 590.608 312.44C590.877 312.231 591.086 312.052 591.295 311.917C591.465 311.819 591.653 311.758 591.848 311.738C592.058 311.73 592.266 311.765 592.461 311.843C592.723 311.942 592.969 312.078 593.193 312.246Z" fill="#C7C7C7"/>
<path d="M602.919 325.289C602.155 325.737 601.276 325.949 600.392 325.898C599.508 325.847 598.659 325.536 597.952 325.003C597.245 324.47 596.711 323.739 596.419 322.904C596.127 322.068 596.088 321.164 596.309 320.307C596.529 319.449 596.999 318.676 597.659 318.085C598.318 317.495 599.138 317.112 600.014 316.987C600.891 316.861 601.785 316.998 602.583 317.38C603.382 317.762 604.05 318.372 604.502 319.133C604.804 319.641 605.003 320.203 605.086 320.788C605.17 321.373 605.137 321.968 604.99 322.54C604.843 323.112 604.584 323.65 604.229 324.121C603.873 324.593 603.428 324.99 602.919 325.289Z" fill="#DBDBDB"/>
<path d="M598.302 319.537C597.75 319.862 597.283 320.313 596.937 320.853C596.592 321.393 596.379 322.007 596.315 322.644C596.112 321.92 596.094 321.157 596.263 320.424C596.433 319.691 596.784 319.013 597.284 318.451C597.784 317.89 598.418 317.463 599.126 317.211C599.835 316.958 600.595 316.888 601.338 317.007C602.081 317.126 602.781 317.429 603.376 317.89C603.97 318.351 604.439 318.954 604.74 319.643C605.04 320.333 605.162 321.087 605.094 321.836C605.027 322.585 604.772 323.305 604.353 323.929C604.512 323.164 604.447 322.37 604.167 321.641C603.888 320.911 603.404 320.278 602.775 319.815C602.145 319.352 601.396 319.08 600.617 319.031C599.837 318.981 599.06 319.157 598.377 319.537H598.302Z" fill="#C7C7C7"/>
<path d="M594.612 322.854C594.726 324.042 595.201 325.168 595.972 326.081C596.768 327.016 597.799 327.723 598.96 328.127C600.131 328.59 601.434 328.59 602.605 328.127C603.675 327.613 604.542 326.756 605.07 325.692C604.288 326.489 603.324 327.084 602.261 327.425C602.008 327.506 601.748 327.566 601.484 327.604C601.221 327.634 600.956 327.634 600.693 327.604C600.182 327.588 599.677 327.487 599.199 327.306L598.452 327.007C598.213 326.872 597.974 326.768 597.749 326.618C597.282 326.337 596.846 326.007 596.45 325.632C595.66 324.836 595.036 323.892 594.612 322.854Z" fill="#C7C7C7"/>
<path d="M589.846 325.095C589.638 325.168 589.418 325.2 589.197 325.188C588.977 325.177 588.761 325.122 588.562 325.027C588.363 324.932 588.185 324.798 588.037 324.634C587.889 324.471 587.776 324.279 587.702 324.071C587.629 323.863 587.597 323.643 587.608 323.422C587.62 323.202 587.675 322.986 587.77 322.787C587.865 322.588 587.998 322.41 588.162 322.262C588.326 322.115 588.518 322.001 588.726 321.927C589.146 321.788 589.604 321.817 590.003 322.01C590.402 322.202 590.71 322.542 590.862 322.958C591.01 323.376 590.987 323.836 590.796 324.237C590.606 324.637 590.264 324.946 589.846 325.095Z" fill="#DBDBDB"/>
<path d="M588.636 322.704C588.411 322.783 588.207 322.916 588.044 323.09C587.88 323.264 587.76 323.475 587.695 323.705C587.657 323.334 587.746 322.961 587.947 322.647C588.147 322.332 588.448 322.094 588.8 321.972C589.221 321.832 589.679 321.862 590.078 322.054C590.476 322.247 590.785 322.587 590.937 323.003C591.043 323.302 591.061 323.626 590.989 323.935C590.918 324.245 590.76 324.528 590.534 324.751C590.675 324.396 590.675 324 590.534 323.645C590.471 323.459 590.372 323.286 590.243 323.138C590.114 322.989 589.957 322.868 589.78 322.78C589.604 322.693 589.412 322.641 589.216 322.628C589.02 322.615 588.823 322.641 588.636 322.704Z" fill="#C7C7C7"/>
<path d="M586.948 323.615C586.88 324.062 586.959 324.517 587.172 324.915C587.398 325.323 587.728 325.663 588.128 325.901C588.54 326.152 589.033 326.232 589.503 326.125C589.947 326.022 590.34 325.762 590.608 325.393C590.251 325.602 589.854 325.734 589.443 325.782C589.06 325.807 588.679 325.713 588.352 325.513C588.002 325.309 587.696 325.035 587.455 324.709C587.213 324.383 587.041 324.011 586.948 323.615Z" fill="#C7C7C7"/>
<path d="M602.515 334.656C602.049 334.735 601.569 334.674 601.138 334.481C600.706 334.288 600.341 333.971 600.09 333.57C599.838 333.169 599.711 332.703 599.725 332.23C599.739 331.757 599.893 331.299 600.167 330.913C600.442 330.528 600.824 330.232 601.267 330.064C601.709 329.897 602.191 329.864 602.652 329.97C603.113 330.077 603.532 330.318 603.856 330.662C604.18 331.007 604.395 331.44 604.472 331.907C604.526 332.216 604.518 332.533 604.448 332.839C604.378 333.145 604.249 333.434 604.067 333.689C603.885 333.945 603.654 334.162 603.388 334.328C603.121 334.494 602.825 334.605 602.515 334.656Z" fill="#DBDBDB"/>
<path d="M601.32 330.906C600.985 330.963 600.669 331.098 600.396 331.3C600.123 331.503 599.902 331.767 599.751 332.071C599.789 331.485 600.041 330.934 600.461 330.524C600.881 330.113 601.438 329.872 602.025 329.848C602.611 329.824 603.186 330.018 603.638 330.393C604.09 330.767 604.387 331.296 604.473 331.877C604.547 332.324 604.494 332.782 604.319 333.199C604.145 333.617 603.856 333.977 603.486 334.238C603.769 333.794 603.886 333.265 603.815 332.744C603.775 332.458 603.678 332.183 603.531 331.935C603.383 331.687 603.187 331.471 602.954 331.3C602.722 331.129 602.458 331.006 602.177 330.938C601.896 330.87 601.605 330.86 601.32 330.906Z" fill="#C7C7C7"/>
<path d="M598.84 331.832C598.678 332.443 598.704 333.089 598.915 333.685C599.119 334.294 599.486 334.837 599.975 335.254C600.479 335.685 601.121 335.918 601.783 335.911C602.422 335.884 603.032 335.641 603.516 335.224C602.979 335.475 602.39 335.592 601.798 335.567C601.245 335.516 600.722 335.291 600.304 334.925C599.862 334.552 599.506 334.088 599.258 333.565C598.998 333.024 598.856 332.433 598.84 331.832Z" fill="#C7C7C7"/>
<path d="M610.523 310.543C610.965 311.235 611.608 311.777 612.365 312.095C613.123 312.414 613.959 312.495 614.763 312.326C615.568 312.158 616.302 311.75 616.868 311.154C617.434 310.559 617.806 309.806 617.934 308.994C618.062 308.183 617.94 307.351 617.585 306.611C617.229 305.87 616.656 305.255 615.943 304.848C615.23 304.44 614.409 304.259 613.59 304.329C612.772 304.399 611.994 304.717 611.36 305.239C610.548 305.834 610.005 306.725 609.848 307.719C609.692 308.712 609.934 309.728 610.523 310.543Z" fill="#DBDBDB"/>
<path d="M616.081 307.047C616.412 307.461 616.633 307.952 616.722 308.475C616.81 308.998 616.765 309.535 616.589 310.035C617.129 309.397 617.437 308.594 617.461 307.758C617.486 306.922 617.226 306.102 616.723 305.433C616.032 304.705 615.082 304.279 614.078 304.245C613.075 304.212 612.098 304.574 611.36 305.254C610.785 305.708 610.343 306.308 610.08 306.991C609.817 307.675 609.743 308.417 609.866 309.138C610.048 308.257 610.528 307.466 611.225 306.897C611.891 306.277 612.774 305.945 613.684 305.973C614.593 306.001 615.454 306.387 616.081 307.047Z" fill="#C7C7C7"/>
<path d="M608.91 307.988C608.453 308.919 608.383 309.994 608.715 310.976C608.889 311.478 609.169 311.937 609.537 312.321C609.889 312.723 610.323 313.044 610.811 313.263C611.298 313.483 611.827 313.594 612.361 313.591C612.867 313.602 613.371 313.531 613.855 313.381C614.808 313.092 615.679 312.58 616.395 311.888C615.529 312.247 614.628 312.512 613.705 312.679C612.847 312.832 611.962 312.744 611.151 312.425C610.768 312.241 610.415 311.999 610.105 311.708C609.781 311.425 609.517 311.079 609.328 310.692C608.948 309.845 608.803 308.911 608.91 307.988Z" fill="#C7C7C7"/>
<path d="M98.7982 508.961L110.302 497.457C111.09 496.674 111.715 495.743 112.142 494.717C112.568 493.692 112.788 492.592 112.788 491.481C112.788 490.37 112.568 489.271 112.142 488.245C111.715 487.219 111.09 486.288 110.302 485.505C109.518 484.719 108.586 484.096 107.561 483.67C106.536 483.245 105.436 483.026 104.326 483.026C103.216 483.026 102.116 483.245 101.091 483.67C100.066 484.096 99.1341 484.719 98.35 485.505L86.8462 497.009C86.0584 497.792 85.4332 498.723 85.0066 499.749C84.58 500.774 84.3604 501.874 84.3604 502.985C84.3604 504.096 84.58 505.196 85.0066 506.221C85.4332 507.247 86.0584 508.178 86.8462 508.961C87.6303 509.747 88.5617 510.371 89.5872 510.796C90.6126 511.222 91.712 511.441 92.8222 511.441C93.9324 511.441 95.0317 511.222 96.0572 510.796C97.0826 510.371 98.0141 509.747 98.7982 508.961Z" fill="#EBEBEB"/>
<path d="M255.937 622.998L263.243 608.461C264.246 606.462 264.414 604.146 263.711 602.023C263.008 599.9 261.491 598.142 259.493 597.137C258.503 596.638 257.425 596.34 256.32 596.258C255.215 596.177 254.105 596.314 253.053 596.663C252.001 597.011 251.028 597.563 250.19 598.288C249.352 599.013 248.665 599.896 248.168 600.887L240.863 615.423C240.364 616.413 240.065 617.491 239.984 618.596C239.903 619.701 240.04 620.811 240.389 621.863C240.737 622.915 241.289 623.888 242.014 624.726C242.739 625.564 243.622 626.251 244.612 626.748C245.602 627.246 246.68 627.545 247.785 627.626C248.89 627.708 250.001 627.57 251.053 627.222C252.104 626.873 253.077 626.321 253.915 625.596C254.754 624.872 255.441 623.989 255.937 622.998Z" fill="#EBEBEB"/>
<path d="M155.211 476.481L163.862 475.241C166.076 474.923 168.074 473.739 169.416 471.949C170.757 470.159 171.334 467.909 171.018 465.695C170.862 464.597 170.492 463.542 169.927 462.588C169.363 461.634 168.616 460.801 167.729 460.136C166.843 459.471 165.833 458.988 164.76 458.714C163.686 458.44 162.568 458.38 161.471 458.538L152.821 459.778C151.724 459.934 150.668 460.305 149.714 460.869C148.76 461.433 147.927 462.18 147.262 463.067C146.598 463.954 146.114 464.963 145.84 466.037C145.566 467.111 145.506 468.228 145.665 469.325C145.983 471.539 147.167 473.537 148.957 474.879C150.747 476.221 152.997 476.797 155.211 476.481Z" fill="#EBEBEB"/>
<path d="M86.5474 590.638L85.3073 581.988C85.1517 580.89 84.7811 579.834 84.2168 578.881C83.6524 577.927 82.9055 577.094 82.0187 576.429C81.1319 575.764 80.1227 575.281 79.0488 575.007C77.975 574.733 76.8576 574.673 75.7607 574.831C74.6653 574.987 73.6114 575.357 72.6594 575.921C71.7073 576.484 70.8758 577.23 70.2124 578.116C69.5491 579.001 69.0669 580.009 68.7935 581.081C68.5202 582.153 68.461 583.268 68.6194 584.363L69.8444 593.028C70.1663 595.241 71.3514 597.236 73.1405 598.577C74.9296 599.918 77.177 600.496 79.3911 600.185C81.6055 599.866 83.6031 598.682 84.9449 596.892C86.2867 595.102 86.8631 592.853 86.5474 590.638Z" fill="#EBEBEB"/>
<path d="M272.072 577.61V558.457C272.072 556.675 270.627 555.23 268.845 555.23H258.432C256.65 555.23 255.205 556.675 255.205 558.457V577.61C255.205 579.393 256.65 580.837 258.432 580.837H268.845C270.627 580.837 272.072 579.393 272.072 577.61Z" fill="#EBEBEB"/>
<path d="M139.554 663.964L147.996 666.219C149.066 666.506 150.182 666.579 151.281 666.433C152.379 666.288 153.438 665.928 154.397 665.373C155.356 664.818 156.196 664.079 156.869 663.199C157.542 662.319 158.035 661.314 158.319 660.243C158.606 659.172 158.679 658.055 158.534 656.956C158.389 655.856 158.028 654.796 157.473 653.836C156.918 652.876 156.18 652.035 155.299 651.36C154.419 650.686 153.415 650.191 152.343 649.905L143.902 647.649C142.831 647.362 141.714 647.289 140.614 647.434C139.515 647.58 138.455 647.94 137.495 648.495C136.534 649.05 135.693 649.789 135.019 650.669C134.344 651.549 133.85 652.554 133.564 653.625C132.993 655.79 133.303 658.093 134.426 660.031C135.548 661.968 137.392 663.382 139.554 663.964Z" fill="#EBEBEB"/>
<path d="M168.777 661.693C222.525 661.693 266.096 618.121 266.096 564.373C266.096 510.625 222.525 467.054 168.777 467.054C115.029 467.054 71.458 510.625 71.458 564.373C71.458 618.121 115.029 661.693 168.777 661.693Z" fill="#EBEBEB"/>
<path d="M204.185 506.645C204.43 511.32 203.168 515.949 200.584 519.852C197.975 523.874 194.318 527.108 190.007 529.205C185.574 531.43 180.454 531.864 175.709 530.415C171.214 528.99 167.363 526.028 164.833 522.048C168.293 524.609 172.278 526.37 176.501 527.203C178.478 527.554 180.501 527.554 182.477 527.203C184.449 526.898 186.36 526.283 188.139 525.38C189.051 524.932 189.977 524.439 190.873 523.886C191.77 523.333 192.606 522.766 193.398 522.108C195.043 520.862 196.546 519.439 197.88 517.865C200.691 514.571 202.833 510.759 204.185 506.645Z" fill="#C7C7C7"/>
<path d="M169.195 512.248C168.764 509.003 169.483 505.71 171.227 502.94C172.976 500.062 175.518 497.748 178.548 496.277C180.109 495.492 181.811 495.023 183.554 494.897C185.298 494.771 187.049 494.992 188.707 495.545C191.838 496.609 194.442 498.834 195.983 501.76C193.519 500.238 190.776 499.222 187.915 498.772C185.348 498.469 182.75 498.931 180.445 500.102C175.322 502.62 171.314 506.947 169.195 512.248Z" fill="#C7C7C7"/>
<path d="M136.238 579.089C137.437 582.051 137.522 585.347 136.477 588.367C135.453 591.504 133.492 594.252 130.86 596.24C129.517 597.289 127.977 598.058 126.333 598.502C124.688 598.945 122.971 599.055 121.283 598.825C118.105 598.387 115.2 596.791 113.126 594.343C115.802 595.227 118.616 595.622 121.432 595.508C123.926 595.328 126.308 594.407 128.275 592.864C130.364 591.286 132.12 589.311 133.444 587.052C134.835 584.582 135.781 581.887 136.238 579.089Z" fill="#C7C7C7"/>
<path d="M116.084 590.13C115.547 589.142 115.212 588.058 115.099 586.939C114.986 585.821 115.098 584.691 115.426 583.616C116.075 581.342 117.45 579.343 119.341 577.924C120.31 577.158 121.429 576.606 122.626 576.302C123.823 575.998 125.071 575.95 126.288 576.161C127.404 576.354 128.469 576.771 129.42 577.387C130.37 578.003 131.185 578.806 131.816 579.747C129.946 579.381 128.033 579.296 126.138 579.493C124.596 579.717 123.139 580.341 121.91 581.3C119.053 583.526 117.006 586.628 116.084 590.13Z" fill="#C7C7C7"/>
<path d="M101.338 557.426C102.197 558.23 102.886 559.198 103.364 560.274C103.841 561.349 104.097 562.51 104.117 563.686C104.139 564.958 103.906 566.222 103.431 567.402C102.956 568.583 102.249 569.656 101.353 570.559C100.432 571.485 99.3099 572.186 98.074 572.608C96.8381 573.031 95.5215 573.163 94.2264 572.994C91.9054 572.734 89.746 571.678 88.116 570.006C90.1243 570.082 92.1354 569.967 94.1218 569.662C95.6989 569.428 97.1595 568.695 98.2901 567.571C99.4536 566.39 100.301 564.936 100.755 563.343C101.277 561.417 101.474 559.417 101.338 557.426Z" fill="#C7C7C7"/>
<path d="M89.2815 566.883C88.5738 566.401 87.9872 565.762 87.5674 565.016C87.1475 564.269 86.9059 563.436 86.8612 562.581C86.8004 561.641 86.9409 560.699 87.2733 559.818C87.6056 558.937 88.1222 558.137 88.7885 557.471C89.4753 556.78 90.3186 556.264 91.247 555.967C92.1754 555.671 93.1616 555.603 94.122 555.768C94.9494 555.892 95.7438 556.179 96.4593 556.612C97.1749 557.046 97.7972 557.617 98.2903 558.293C96.9097 558.479 95.5424 558.754 94.1967 559.115C93.2952 559.341 92.4733 559.811 91.8213 560.474C91.1228 561.182 90.5696 562.019 90.1928 562.939C89.7031 564.204 89.3963 565.532 89.2815 566.883Z" fill="#C7C7C7"/>
<path d="M234.692 528.607C234.805 529.778 234.677 530.959 234.318 532.079C233.958 533.199 233.374 534.234 232.601 535.121C231.774 536.086 230.763 536.877 229.626 537.447C228.49 538.016 227.251 538.353 225.982 538.437C224.678 538.517 223.374 538.296 222.169 537.791C220.964 537.286 219.892 536.51 219.035 535.524C217.467 533.801 216.538 531.591 216.406 529.264C217.883 530.654 219.488 531.9 221.201 532.984C222.534 533.843 224.1 534.266 225.683 534.194C227.332 534.09 228.929 533.576 230.33 532.7C231.997 531.583 233.471 530.2 234.692 528.607Z" fill="#C7C7C7"/>
<path d="M219.394 527.666C219.187 526.834 219.175 525.966 219.359 525.129C219.543 524.292 219.918 523.508 220.455 522.84C221.034 522.1 221.763 521.491 222.595 521.053C223.427 520.615 224.342 520.359 225.28 520.3C226.251 520.232 227.224 520.402 228.115 520.795C229.005 521.188 229.786 521.793 230.39 522.556C230.938 523.194 231.352 523.935 231.609 524.736C231.865 525.536 231.959 526.38 231.884 527.218C230.73 526.427 229.522 525.718 228.268 525.096C227.446 524.666 226.52 524.475 225.594 524.543C224.603 524.603 223.634 524.857 222.741 525.29C221.518 525.919 220.391 526.719 219.394 527.666Z" fill="#C7C7C7"/>
<path d="M180.131 594.731C184.022 596.492 188.348 597.058 192.561 596.356C196.773 595.655 200.682 593.718 203.793 590.792C206.903 587.865 209.074 584.081 210.031 579.919C210.987 575.757 210.686 571.405 209.165 567.414C207.645 563.424 204.973 559.974 201.489 557.504C198.006 555.034 193.867 553.654 189.598 553.54C185.329 553.425 181.122 554.581 177.511 556.861C173.9 559.141 171.047 562.442 169.315 566.345C166.99 571.545 166.824 577.454 168.851 582.776C170.879 588.098 174.936 592.398 180.131 594.731Z" fill="#DBDBDB"/>
<path d="M198.986 564.896C201.786 566.147 204.251 568.043 206.178 570.43C208.105 572.816 209.439 575.625 210.071 578.626C210.656 575.067 210.334 571.418 209.136 568.016C207.938 564.614 205.903 561.568 203.217 559.161C200.531 556.753 197.282 555.061 193.77 554.241C190.258 553.42 186.595 553.498 183.121 554.466C179.647 555.435 176.472 557.263 173.891 559.782C171.31 562.302 169.405 565.43 168.352 568.88C167.3 572.33 167.133 575.989 167.868 579.521C168.603 583.052 170.215 586.341 172.557 589.084C171.344 585.489 171.203 581.619 172.151 577.945C173.099 574.271 175.095 570.952 177.897 568.393C180.698 565.833 184.184 564.145 187.928 563.532C191.673 562.919 195.515 563.409 198.986 564.941V564.896Z" fill="#C7C7C7"/>
<path d="M218.647 578.656C218.758 584.376 217.098 589.991 213.896 594.731C210.654 599.586 206.178 603.49 200.928 606.041C195.562 608.751 189.366 609.317 183.598 607.625C178.09 605.934 173.319 602.426 170.062 597.675C174.247 601.004 179.154 603.306 184.389 604.398C185.64 604.606 186.903 604.741 188.169 604.801C189.421 604.814 190.671 604.714 191.904 604.502C194.394 604.127 196.81 603.361 199.061 602.231C200.211 601.649 201.361 601.036 202.467 600.379C203.572 599.721 204.648 598.989 205.634 598.153C207.696 596.579 209.571 594.775 211.222 592.774C214.638 588.627 217.165 583.821 218.647 578.656Z" fill="#C7C7C7"/>
<path d="M242.207 586.843C243.759 587.213 245.385 587.114 246.88 586.559C248.375 586.004 249.671 585.017 250.605 583.724C251.539 582.431 252.067 580.89 252.124 579.296C252.18 577.702 251.762 576.127 250.922 574.771C250.083 573.415 248.859 572.339 247.407 571.679C245.955 571.019 244.34 570.806 242.767 571.065C241.193 571.324 239.732 572.045 238.568 573.136C237.405 574.227 236.591 575.638 236.231 577.192C235.747 579.264 236.104 581.444 237.224 583.253C238.345 585.062 240.136 586.353 242.207 586.843Z" fill="#DBDBDB"/>
<path d="M246.988 574.562C248.102 574.824 249.138 575.345 250.013 576.082C250.888 576.819 251.576 577.752 252.023 578.805C251.985 577.461 251.609 576.147 250.93 574.985C250.251 573.824 249.29 572.853 248.136 572.161C246.982 571.469 245.672 571.079 244.328 571.027C242.983 570.975 241.647 571.263 240.443 571.863C239.24 572.464 238.206 573.358 237.439 574.463C236.672 575.569 236.196 576.849 236.055 578.187C235.913 579.525 236.111 580.878 236.63 582.119C237.15 583.36 237.973 584.451 239.025 585.289C238.112 583.702 237.84 581.827 238.263 580.045C238.694 578.162 239.855 576.527 241.491 575.498C243.127 574.47 245.104 574.134 246.988 574.562Z" fill="#C7C7C7"/>
<path d="M255.16 578.178C255.721 580.272 255.579 582.492 254.757 584.498C253.939 586.561 252.563 588.356 250.783 589.682C248.962 591.081 246.673 591.728 244.388 591.49C242.216 591.239 240.206 590.215 238.726 588.606C240.526 589.427 242.484 589.845 244.463 589.831C246.298 589.767 248.066 589.124 249.513 587.994C251.06 586.816 252.357 585.341 253.327 583.656C254.297 581.97 254.92 580.108 255.16 578.178Z" fill="#C7C7C7"/>
<path d="M187.004 638.924C189.263 639.057 191.51 638.516 193.461 637.37C195.413 636.225 196.98 634.525 197.964 632.488C198.949 630.451 199.307 628.167 198.993 625.927C198.678 623.686 197.706 621.589 196.198 619.901C194.691 618.214 192.717 617.011 190.526 616.447C188.334 615.882 186.025 615.981 183.89 616.73C181.755 617.479 179.89 618.846 178.532 620.656C177.174 622.466 176.384 624.638 176.262 626.897C176.177 628.392 176.388 629.89 176.882 631.303C177.376 632.717 178.144 634.019 179.141 635.136C180.139 636.253 181.346 637.162 182.696 637.812C184.045 638.462 185.509 638.84 187.004 638.924Z" fill="#DBDBDB"/>
<path d="M190.679 620.578C192.304 620.663 193.885 621.133 195.293 621.948C196.7 622.764 197.894 623.902 198.777 625.269C198.396 623.393 197.548 621.644 196.312 620.183C195.076 618.722 193.491 617.596 191.705 616.909C189.918 616.222 187.988 615.997 186.091 616.254C184.195 616.511 182.394 617.242 180.854 618.38C179.315 619.517 178.088 621.024 177.285 622.762C176.483 624.499 176.131 626.411 176.263 628.32C176.395 630.229 177.006 632.075 178.04 633.685C179.074 635.296 180.497 636.62 182.178 637.535C180.507 635.538 179.663 632.977 179.818 630.378C179.887 629.021 180.222 627.691 180.805 626.464C181.389 625.237 182.208 624.137 183.217 623.227C184.226 622.316 185.404 621.614 186.684 621.159C187.965 620.705 189.322 620.507 190.679 620.578Z" fill="#C7C7C7"/>
<path d="M203.02 623.655C204.124 626.47 204.348 629.554 203.662 632.5C202.979 635.509 201.51 638.282 199.404 640.537C197.262 642.878 194.319 644.328 191.157 644.601C188.121 644.805 185.103 643.99 182.582 642.285C185.278 643.168 188.145 643.399 190.948 642.958C193.608 642.452 196.031 641.094 197.85 639.088C199.743 637.075 201.185 634.681 202.078 632.066C202.973 629.358 203.293 626.494 203.02 623.655Z" fill="#C7C7C7"/>
<path d="M136.089 528.682C130.934 536.555 119.55 538.228 110.69 532.417C101.831 526.605 98.7385 515.505 103.908 507.631C109.077 499.758 120.431 498.084 129.306 503.896C138.18 509.708 141.228 520.808 136.089 528.682Z" fill="#DBDBDB"/>
<path d="M107.792 515.012C106.456 517.141 105.679 519.573 105.532 522.083C105.386 524.593 105.876 527.099 106.955 529.369C100.979 523.243 99.4854 514.294 103.878 507.616C109.017 499.758 120.401 498.085 129.276 503.896C132.254 505.733 134.682 508.338 136.307 511.438C137.931 514.537 138.692 518.016 138.509 521.51C137.178 517.421 134.469 513.92 130.844 511.605C122.807 506.346 112.468 507.855 107.792 515.012Z" fill="#C7C7C7"/>
<path d="M142.363 515.684C143.687 517.713 144.595 519.984 145.033 522.367C145.472 524.75 145.433 527.196 144.918 529.563C144.355 532.031 143.258 534.346 141.706 536.346C140.166 538.37 138.279 540.105 136.133 541.47C133.908 542.718 131.472 543.544 128.947 543.905C126.506 544.211 124.032 544.141 121.611 543.696C116.933 542.878 112.514 540.963 108.718 538.109C113.036 539.365 117.481 540.132 121.97 540.395C126.118 540.698 130.266 539.806 133.922 537.825C135.665 536.764 137.22 535.421 138.524 533.851C139.888 532.312 140.957 530.534 141.676 528.607C143.082 524.443 143.32 519.973 142.363 515.684Z" fill="#C7C7C7"/>
<path d="M577.804 507.766L586.036 509.275L587.874 517.955L589.712 509.275L597.944 507.751L589.741 505.749L587.874 497.562L585.992 505.749L577.804 507.766Z" fill="#C7C7C7"/>
<path d="M238.233 460.914L246.465 462.438L248.303 471.118L250.14 462.438L258.372 460.914L250.185 458.912L248.303 450.725L246.435 458.912L238.233 460.914Z" fill="#C7C7C7"/>
<path d="M493.737 368.181L501.969 369.705L503.807 378.371L505.644 369.705L513.876 368.181L505.689 366.165L503.807 357.977L501.939 366.165L493.737 368.181Z" fill="#C7C7C7"/>
<path d="M656.03 456.686L660.632 457.538L661.663 462.393L662.694 457.538L667.28 456.686L662.708 455.566L661.663 450.994L660.617 455.566L656.03 456.686Z" fill="#C7C7C7"/>
<path d="M306.972 641.195L311.559 642.047L312.59 646.902L313.62 642.047L318.222 641.195L313.635 640.075L312.59 635.503L311.544 640.075L306.972 641.195Z" fill="#C7C7C7"/>
<path d="M644.78 238.428L649.382 239.279L650.413 244.12L651.429 239.279L656.03 238.413L651.458 237.307L650.413 232.72L649.352 237.307L644.78 238.428Z" fill="#C7C7C7"/>
<path d="M102.175 342.724L106.776 343.575L107.807 348.416L108.823 343.575L113.424 342.724L108.853 341.603L107.807 337.017L106.761 341.603L102.175 342.724Z" fill="#C7C7C7"/>
<path d="M126.855 589.517L131.457 590.369L132.488 595.21L133.504 590.369L138.105 589.517L133.534 588.397L132.488 583.81L131.427 588.397L126.855 589.517Z" fill="#C7C7C7"/>
<path d="M627.032 361.249L631.633 362.101L632.649 366.941L633.68 362.101L638.282 361.249L633.71 360.129L632.649 355.542L631.603 360.129L627.032 361.249Z" fill="#C7C7C7"/>
<path d="M433.006 517.955L437.607 518.806L438.638 523.662L439.669 518.806L444.271 517.955L439.684 516.834L438.638 512.263L437.592 516.834L433.006 517.955Z" fill="#C7C7C7"/>
<path d="M265.618 128.589L270.22 129.44L271.251 134.281L272.281 129.44L276.868 128.589L272.296 127.468L271.251 122.882L270.205 127.468L265.618 128.589Z" fill="#C7C7C7"/>
<path d="M445.69 500.341L450.291 501.192L451.322 506.048L452.353 501.192L456.955 500.341L452.368 499.22L451.322 494.634L450.277 499.22L445.69 500.341Z" fill="#C7C7C7"/>
<path d="M296.081 651.683C296.411 651.718 296.717 651.874 296.939 652.121C297.161 652.368 297.284 652.688 297.284 653.02C297.284 653.352 297.161 653.672 296.939 653.919C296.717 654.166 296.411 654.322 296.081 654.357C295.75 654.322 295.445 654.166 295.223 653.919C295.001 653.672 294.878 653.352 294.878 653.02C294.878 652.688 295.001 652.368 295.223 652.121C295.445 651.874 295.75 651.718 296.081 651.683Z" fill="#C7C7C7"/>
<path d="M533.941 401.602C534.271 401.637 534.577 401.793 534.799 402.04C535.021 402.287 535.144 402.607 535.144 402.939C535.144 403.271 535.021 403.592 534.799 403.839C534.577 404.085 534.271 404.241 533.941 404.276C533.61 404.241 533.305 404.085 533.083 403.839C532.86 403.592 532.738 403.271 532.738 402.939C532.738 402.607 532.86 402.287 533.083 402.04C533.305 401.793 533.61 401.637 533.941 401.602Z" fill="#C7C7C7"/>
<path d="M420.172 513.936C420.525 513.936 420.863 514.076 421.113 514.325C421.362 514.575 421.502 514.913 421.502 515.266C421.502 515.618 421.362 515.957 421.113 516.206C420.863 516.455 420.525 516.595 420.172 516.595C419.82 516.595 419.482 516.455 419.232 516.206C418.983 515.957 418.843 515.618 418.843 515.266C418.843 514.913 418.983 514.575 419.232 514.325C419.482 514.076 419.82 513.936 420.172 513.936Z" fill="#C7C7C7"/>
<path d="M222.412 641.688C222.764 641.688 223.103 641.828 223.352 642.077C223.601 642.327 223.741 642.665 223.741 643.018C223.741 643.37 223.601 643.708 223.352 643.958C223.103 644.207 222.764 644.347 222.412 644.347C222.059 644.347 221.721 644.207 221.471 643.958C221.222 643.708 221.082 643.37 221.082 643.018C221.082 642.665 221.222 642.327 221.471 642.077C221.721 641.828 222.059 641.688 222.412 641.688Z" fill="#C7C7C7"/>
<path d="M667.534 659.347C667.864 659.382 668.17 659.538 668.392 659.785C668.614 660.032 668.737 660.352 668.737 660.684C668.737 661.016 668.614 661.337 668.392 661.583C668.17 661.83 667.864 661.986 667.534 662.021C667.204 661.986 666.898 661.83 666.676 661.583C666.454 661.337 666.331 661.016 666.331 660.684C666.331 660.352 666.454 660.032 666.676 659.785C666.898 659.538 667.204 659.382 667.534 659.347Z" fill="#C7C7C7"/>
<path d="M597.391 419.082C597.743 419.082 598.082 419.222 598.331 419.471C598.58 419.721 598.72 420.059 598.72 420.412C598.72 420.764 598.58 421.103 598.331 421.352C598.082 421.601 597.743 421.741 597.391 421.741C597.038 421.741 596.7 421.601 596.45 421.352C596.201 421.103 596.061 420.764 596.061 420.412C596.061 420.059 596.201 419.721 596.45 419.471C596.7 419.222 597.038 419.082 597.391 419.082Z" fill="#C7C7C7"/>
<path d="M329.487 627.704C329.736 627.704 329.976 627.803 330.152 627.98C330.329 628.156 330.428 628.396 330.428 628.645C330.428 628.895 330.329 629.134 330.152 629.311C329.976 629.487 329.736 629.587 329.487 629.587C329.237 629.587 328.998 629.487 328.821 629.311C328.645 629.134 328.545 628.895 328.545 628.645C328.545 628.396 328.645 628.156 328.821 627.98C328.998 627.803 329.237 627.704 329.487 627.704Z" fill="#C7C7C7"/>
<path d="M141.123 137.926C141.354 137.955 141.567 138.068 141.721 138.242C141.875 138.417 141.96 138.642 141.96 138.875C141.96 139.108 141.875 139.333 141.721 139.507C141.567 139.682 141.354 139.794 141.123 139.824C140.892 139.794 140.68 139.682 140.526 139.507C140.371 139.333 140.286 139.108 140.286 138.875C140.286 138.642 140.371 138.417 140.526 138.242C140.68 138.068 140.892 137.955 141.123 137.926Z" fill="#C7C7C7"/>
<path d="M504.972 441.104C505.222 441.104 505.461 441.203 505.638 441.379C505.814 441.556 505.913 441.795 505.913 442.045C505.913 442.294 505.814 442.534 505.638 442.71C505.461 442.887 505.222 442.986 504.972 442.986C504.722 442.986 504.483 442.887 504.306 442.71C504.13 442.534 504.031 442.294 504.031 442.045C504.031 441.795 504.13 441.556 504.306 441.379C504.483 441.203 504.722 441.104 504.972 441.104Z" fill="#C7C7C7"/>
<path d="M459.345 522.721C459.595 522.721 459.834 522.82 460.011 522.996C460.187 523.173 460.286 523.412 460.286 523.662C460.286 523.912 460.187 524.151 460.011 524.327C459.834 524.504 459.595 524.603 459.345 524.603C459.095 524.603 458.856 524.504 458.68 524.327C458.503 524.151 458.404 523.912 458.404 523.662C458.404 523.412 458.503 523.173 458.68 522.996C458.856 522.82 459.095 522.721 459.345 522.721Z" fill="#C7C7C7"/>
<path d="M384.72 506.81C384.951 506.839 385.163 506.951 385.317 507.126C385.472 507.3 385.557 507.525 385.557 507.758C385.557 507.991 385.472 508.216 385.317 508.391C385.163 508.565 384.951 508.678 384.72 508.707C384.489 508.678 384.276 508.565 384.122 508.391C383.968 508.216 383.883 507.991 383.883 507.758C383.883 507.525 383.968 507.3 384.122 507.126C384.276 506.951 384.489 506.839 384.72 506.81Z" fill="#C7C7C7"/>
<path d="M472.94 423.967C473.618 423.967 474.268 424.236 474.747 424.716C475.226 425.195 475.495 425.844 475.495 426.522C475.495 427.2 475.226 427.849 474.747 428.329C474.268 428.808 473.618 429.077 472.94 429.077C472.263 429.077 471.613 428.808 471.134 428.329C470.655 427.849 470.386 427.2 470.386 426.522C470.386 425.844 470.655 425.195 471.134 424.716C471.613 424.236 472.263 423.967 472.94 423.967Z" fill="#C7C7C7"/>
<path d="M342.111 165.789L350.343 167.313L352.181 175.978L354.018 167.313L362.25 165.789L354.048 163.787L352.181 155.585L350.298 163.787L342.111 165.789Z" fill="#C7C7C7"/>
<path d="M373.47 90.6858L378.071 91.5374L379.102 96.378L380.133 91.5374L384.72 90.6858L380.148 89.5653L379.102 84.9788L378.057 89.5653L373.47 90.6858Z" fill="#C7C7C7"/>
<path d="M94.63 215.136C94.9826 215.136 95.3208 215.276 95.5702 215.525C95.8195 215.775 95.9596 216.113 95.9596 216.466C95.9596 216.818 95.8195 217.156 95.5702 217.406C95.3208 217.655 94.9826 217.795 94.63 217.795C94.2773 217.795 93.9391 217.655 93.6897 217.406C93.4404 217.156 93.3003 216.818 93.3003 216.466C93.3003 216.113 93.4404 215.775 93.6897 215.525C93.9391 215.276 94.2773 215.136 94.63 215.136Z" fill="#C7C7C7"/>
<path d="M115.576 568.766C115.906 568.801 116.212 568.957 116.434 569.204C116.656 569.451 116.779 569.771 116.779 570.103C116.779 570.435 116.656 570.755 116.434 571.002C116.212 571.249 115.906 571.405 115.576 571.44C115.245 571.405 114.94 571.249 114.718 571.002C114.495 570.755 114.373 570.435 114.373 570.103C114.373 569.771 114.495 569.451 114.718 569.204C114.94 568.957 115.245 568.801 115.576 568.766Z" fill="#C7C7C7"/>
<path d="M79.4658 634.95C79.796 634.985 80.1017 635.141 80.3238 635.388C80.5459 635.635 80.6688 635.955 80.6688 636.287C80.6688 636.619 80.5459 636.94 80.3238 637.186C80.1017 637.433 79.796 637.589 79.4658 637.624C79.1355 637.589 78.8299 637.433 78.6077 637.186C78.3856 636.94 78.2627 636.619 78.2627 636.287C78.2627 635.955 78.3856 635.635 78.6077 635.388C78.8299 635.141 79.1355 634.985 79.4658 634.95Z" fill="#C7C7C7"/>
<path d="M147.757 326.917C148.087 326.952 148.392 327.108 148.615 327.355C148.837 327.602 148.96 327.922 148.96 328.254C148.96 328.586 148.837 328.907 148.615 329.154C148.392 329.4 148.087 329.556 147.757 329.591C147.426 329.556 147.121 329.4 146.899 329.154C146.676 328.907 146.553 328.586 146.553 328.254C146.553 327.922 146.676 327.602 146.899 327.355C147.121 327.108 147.426 326.952 147.757 326.917Z" fill="#C7C7C7"/>
<path d="M79.4658 96.7664C79.796 96.8013 80.1017 96.9573 80.3238 97.2041C80.5459 97.451 80.6688 97.7714 80.6688 98.1035C80.6688 98.4356 80.5459 98.7559 80.3238 99.0028C80.1017 99.2497 79.796 99.4057 79.4658 99.4406C79.1355 99.4057 78.8299 99.2497 78.6077 99.0028C78.3856 98.7559 78.2627 98.4356 78.2627 98.1035C78.2627 97.7714 78.3856 97.451 78.6077 97.2041C78.8299 96.9573 79.1355 96.8013 79.4658 96.7664Z" fill="#C7C7C7"/>
<path d="M200.51 505.196C200.741 505.225 200.953 505.338 201.107 505.512C201.262 505.687 201.347 505.912 201.347 506.145C201.347 506.378 201.262 506.603 201.107 506.777C200.953 506.952 200.741 507.064 200.51 507.093C200.279 507.064 200.066 506.952 199.912 506.777C199.758 506.603 199.673 506.378 199.673 506.145C199.673 505.912 199.758 505.687 199.912 505.512C200.066 505.338 200.279 505.225 200.51 505.196Z" fill="#C7C7C7"/>
<path d="M399.481 626.105C399.73 626.105 399.97 626.205 400.146 626.381C400.323 626.558 400.422 626.797 400.422 627.047C400.422 627.296 400.323 627.536 400.146 627.712C399.97 627.889 399.73 627.988 399.481 627.988C399.231 627.988 398.991 627.889 398.815 627.712C398.638 627.536 398.539 627.296 398.539 627.047C398.539 626.797 398.638 626.558 398.815 626.381C398.991 626.205 399.231 626.105 399.481 626.105Z" fill="#C7C7C7"/>
<path d="M539.558 194.564C539.789 194.593 540.002 194.705 540.156 194.88C540.31 195.054 540.395 195.279 540.395 195.512C540.395 195.745 540.31 195.97 540.156 196.145C540.002 196.319 539.789 196.432 539.558 196.461C539.327 196.432 539.114 196.319 538.96 196.145C538.806 195.97 538.721 195.745 538.721 195.512C538.721 195.279 538.806 195.054 538.96 194.88C539.114 194.705 539.327 194.593 539.558 194.564Z" fill="#C7C7C7"/>
<path d="M369.167 136.806C369.417 136.806 369.656 136.905 369.833 137.081C370.009 137.258 370.109 137.497 370.109 137.747C370.109 137.997 370.009 138.236 369.833 138.412C369.656 138.589 369.417 138.688 369.167 138.688C368.918 138.688 368.678 138.589 368.502 138.412C368.325 138.236 368.226 137.997 368.226 137.747C368.226 137.497 368.325 137.258 368.502 137.081C368.678 136.905 368.918 136.806 369.167 136.806Z" fill="#C7C7C7"/>
<path d="M312.589 471.686C313.267 471.686 313.917 471.955 314.396 472.434C314.875 472.913 315.144 473.563 315.144 474.241C315.144 474.918 314.875 475.568 314.396 476.047C313.917 476.526 313.267 476.795 312.589 476.795C311.912 476.795 311.262 476.526 310.783 476.047C310.304 475.568 310.035 474.918 310.035 474.241C310.035 473.563 310.304 472.913 310.783 472.434C311.262 471.955 311.912 471.686 312.589 471.686Z" fill="#C7C7C7"/>
<path d="M649.277 278.556C649.923 278.606 650.526 278.897 650.967 279.372C651.407 279.847 651.651 280.471 651.651 281.118C651.651 281.766 651.407 282.39 650.967 282.865C650.526 283.34 649.923 283.631 649.277 283.681C648.632 283.631 648.028 283.34 647.588 282.865C647.148 282.39 646.904 281.766 646.904 281.118C646.904 280.471 647.148 279.847 647.588 279.372C648.028 278.897 648.632 278.606 649.277 278.556Z" fill="#C7C7C7"/>
<path d="M126.198 502.641C126.876 502.641 127.525 502.911 128.005 503.39C128.484 503.869 128.753 504.519 128.753 505.196C128.753 505.874 128.484 506.523 128.005 507.003C127.525 507.482 126.876 507.751 126.198 507.751C125.52 507.751 124.871 507.482 124.392 507.003C123.912 506.523 123.643 505.874 123.643 505.196C123.643 504.519 123.912 503.869 124.392 503.39C124.871 502.911 125.52 502.641 126.198 502.641Z" fill="#C7C7C7"/>
<path d="M340.916 404.276L345.517 405.128L346.548 409.969L347.579 405.128L352.181 404.276L347.594 403.156L346.548 398.569L345.502 403.156L340.916 404.276Z" fill="#C7C7C7"/>
<path d="M438.638 636.25L443.24 637.101L444.271 641.942L445.286 637.101L449.888 636.235L445.316 635.129L444.271 630.543L443.21 635.129L438.638 636.25Z" fill="#C7C7C7"/>
<path d="M459.017 576.505C459.347 576.54 459.652 576.696 459.875 576.942C460.097 577.189 460.22 577.51 460.22 577.842C460.22 578.174 460.097 578.494 459.875 578.741C459.652 578.988 459.347 579.144 459.017 579.179C458.686 579.144 458.381 578.988 458.159 578.741C457.936 578.494 457.813 578.174 457.813 577.842C457.813 577.51 457.936 577.189 458.159 576.942C458.381 576.696 458.686 576.54 459.017 576.505Z" fill="#C7C7C7"/>
<path d="M510.948 541.037C511.278 541.072 511.584 541.228 511.806 541.475C512.028 541.722 512.151 542.042 512.151 542.374C512.151 542.706 512.028 543.027 511.806 543.274C511.584 543.52 511.278 543.676 510.948 543.711C510.618 543.676 510.312 543.52 510.09 543.274C509.868 543.027 509.745 542.706 509.745 542.374C509.745 542.042 509.868 541.722 510.09 541.475C510.312 541.228 510.618 541.072 510.948 541.037Z" fill="#C7C7C7"/>
<path d="M346.548 602.276L351.15 603.128L352.18 607.983L353.211 603.128L357.813 602.276L353.226 601.156L352.18 596.569L351.135 601.156L346.548 602.276Z" fill="#C7C7C7"/>
<path d="M535.898 172.826C536.228 172.861 536.534 173.017 536.756 173.264C536.978 173.511 537.101 173.831 537.101 174.163C537.101 174.495 536.978 174.816 536.756 175.062C536.534 175.309 536.228 175.465 535.898 175.5C535.567 175.465 535.262 175.309 535.04 175.062C534.817 174.816 534.695 174.495 534.695 174.163C534.695 173.831 534.817 173.511 535.04 173.264C535.262 173.017 535.567 172.861 535.898 172.826Z" fill="#C7C7C7"/>
<path d="M567.974 545.31C568.224 545.31 568.463 545.409 568.639 545.586C568.816 545.762 568.915 546.002 568.915 546.251C568.915 546.501 568.816 546.74 568.639 546.917C568.463 547.093 568.224 547.193 567.974 547.193C567.724 547.193 567.485 547.093 567.308 546.917C567.132 546.74 567.033 546.501 567.033 546.251C567.033 546.002 567.132 545.762 567.308 545.586C567.485 545.409 567.724 545.31 567.974 545.31Z" fill="#C7C7C7"/>
<path d="M166.611 384.884L171.212 385.736L172.228 390.576L173.259 385.736L177.861 384.884L173.289 383.764L172.228 379.177L171.182 383.764L166.611 384.884Z" fill="#C7C7C7"/>
<path d="M113.424 458.255C113.777 458.255 114.115 458.395 114.365 458.644C114.614 458.893 114.754 459.232 114.754 459.584C114.754 459.937 114.614 460.275 114.365 460.524C114.115 460.774 113.777 460.914 113.424 460.914C113.072 460.914 112.734 460.774 112.484 460.524C112.235 460.275 112.095 459.937 112.095 459.584C112.095 459.232 112.235 458.893 112.484 458.644C112.734 458.395 113.072 458.255 113.424 458.255Z" fill="#C7C7C7"/>
<path d="M297.306 360.054C297.659 360.054 297.997 360.194 298.246 360.444C298.496 360.693 298.636 361.031 298.636 361.384C298.636 361.736 298.496 362.075 298.246 362.324C297.997 362.573 297.659 362.713 297.306 362.713C296.953 362.713 296.615 362.573 296.366 362.324C296.116 362.075 295.976 361.736 295.976 361.384C295.976 361.031 296.116 360.693 296.366 360.444C296.615 360.194 296.953 360.054 297.306 360.054Z" fill="#C7C7C7"/>
<path d="M141.123 225.34C141.354 225.369 141.567 225.482 141.721 225.656C141.875 225.831 141.96 226.056 141.96 226.289C141.96 226.522 141.875 226.747 141.721 226.921C141.567 227.096 141.354 227.208 141.123 227.237C140.892 227.208 140.68 227.096 140.526 226.921C140.371 226.747 140.286 226.522 140.286 226.289C140.286 226.056 140.371 225.831 140.526 225.656C140.68 225.482 140.892 225.369 141.123 225.34Z" fill="#C7C7C7"/>
<path d="M129.037 216.63C129.714 216.63 130.364 216.899 130.843 217.378C131.322 217.857 131.591 218.507 131.591 219.185C131.591 219.862 131.322 220.512 130.843 220.991C130.364 221.47 129.714 221.739 129.037 221.739C128.359 221.739 127.709 221.47 127.23 220.991C126.751 220.512 126.482 219.862 126.482 219.185C126.482 218.507 126.751 217.857 127.23 217.378C127.709 216.899 128.359 216.63 129.037 216.63Z" fill="#C7C7C7"/>
<path d="M651.742 103.818C652.42 103.818 653.07 104.087 653.549 104.566C654.028 105.045 654.297 105.695 654.297 106.373C654.297 107.05 654.028 107.7 653.549 108.179C653.07 108.658 652.42 108.928 651.742 108.928C651.065 108.928 650.415 108.658 649.936 108.179C649.457 107.7 649.188 107.05 649.188 106.373C649.188 105.695 649.457 105.045 649.936 104.566C650.415 104.087 651.065 103.818 651.742 103.818Z" fill="#C7C7C7"/>
<path d="M349.058 183.523C347.997 182.253 286.534 153.748 230.868 196.222C179.698 235.275 161.935 308.675 168.732 310.438C177.054 312.59 199.852 277.57 243.612 258.313C259.134 251.485 283.83 258.313 283.83 258.313L349.058 183.523Z" fill="#BA68C8"/>
<path opacity="0.1" d="M283.86 258.298C276.532 256.434 269.011 255.431 261.45 255.31C271.101 235.111 289.119 197.432 300.817 173.02C328.351 173.274 348.52 182.821 349.133 183.478L283.86 258.298Z" fill="#610C7D"/>
<path d="M450.307 302.938C451.382 304.193 469.46 369.496 418.44 417.453C371.543 461.556 296.23 467.069 295.603 460.077C294.841 451.517 333.132 434.754 359.277 394.73C368.54 380.537 365.866 355.049 365.866 355.049L450.307 302.938Z" fill="#BA68C8"/>
<path opacity="0.1" d="M452.682 352.659L365.044 378.161C366.215 370.515 366.471 362.756 365.806 355.049L450.247 302.938C450.919 303.655 457.164 325.304 452.682 352.659Z" fill="#610C7D"/>
<path d="M307.211 382.763L247.182 311.962C247.182 311.962 278.556 228.014 352.898 171.631C390.054 143.499 433.574 122.448 472.672 108.524C526.531 89.2217 571.59 83.664 578.567 91.8511C585.544 100.038 572.591 143.633 544.832 193.637C524.678 229.807 496.77 269.368 462.946 301.429C395.148 365.612 307.211 382.763 307.211 382.763Z" fill="#C7C7C7"/>
<path d="M453.041 271.116C444.967 277.969 435.041 282.272 424.521 283.483C414 284.693 403.357 282.756 393.938 277.916C384.519 273.077 376.746 265.552 371.605 256.294C366.463 247.036 364.183 236.461 365.053 225.907C365.923 215.352 369.904 205.293 376.492 197.002C383.08 188.711 391.979 182.56 402.064 179.328C412.149 176.096 422.965 175.927 433.146 178.844C443.326 181.761 452.413 187.632 459.256 195.714C468.418 206.542 472.91 220.564 471.745 234.701C470.58 248.837 463.853 261.934 453.041 271.116Z" fill="#A6A6A6"/>
<path d="M455.969 266.141C447.893 272.988 437.969 277.286 427.45 278.492C416.932 279.698 406.292 277.758 396.877 272.917C387.461 268.076 379.692 260.551 374.553 251.295C369.413 242.039 367.134 231.467 368.003 220.915C368.872 210.364 372.851 200.307 379.436 192.017C386.021 183.726 394.916 177.575 404.997 174.34C415.078 171.105 425.892 170.932 436.071 173.843C446.25 176.754 455.337 182.618 462.184 190.694C471.361 201.525 475.861 215.556 474.696 229.704C473.53 243.852 466.794 256.958 455.969 266.141Z" fill="#BA68C8"/>
<path d="M445.376 253.606C439.78 258.364 432.899 261.355 425.603 262.201C418.306 263.047 410.923 261.709 404.387 258.357C397.851 255.005 392.456 249.79 388.885 243.371C385.314 236.953 383.728 229.619 384.326 222.298C384.924 214.977 387.68 207.999 392.246 202.245C396.812 196.491 402.982 192.221 409.975 189.975C416.968 187.728 424.471 187.607 431.533 189.626C438.595 191.645 444.9 195.713 449.649 201.316C456.01 208.82 459.132 218.541 458.331 228.345C457.53 238.149 452.871 247.235 445.376 253.606Z" fill="white"/>
<path d="M445.391 253.607C441.888 256.589 437.86 258.895 433.514 260.404L403.634 257.969C399.591 255.777 395.993 252.848 393.027 249.334C390.848 246.782 389.033 243.941 387.633 240.893L452.025 246.137C450.166 248.918 447.934 251.432 445.391 253.607Z" fill="#EBEBEB"/>
<path d="M452.861 205.694L393.43 200.853C394.626 199.478 395.925 198.194 397.314 197.014C404.816 190.65 414.539 187.525 424.344 188.326C434.149 189.127 443.235 193.789 449.604 201.287C450.8 202.671 451.889 204.144 452.861 205.694Z" fill="#EBEBEB"/>
<path d="M456.088 238.442L384.974 232.631C384.738 231.541 384.564 230.438 384.451 229.329L457.119 235.305C456.835 236.321 456.477 237.382 456.088 238.442Z" fill="#EBEBEB"/>
<path d="M544.832 193.637L472.672 108.479C526.531 89.2216 571.59 83.664 578.567 91.8511C585.544 100.038 572.65 143.633 544.832 193.637Z" fill="#BA68C8"/>
<path d="M493.886 115.71C493.416 116.111 492.837 116.364 492.223 116.435C491.609 116.507 490.988 116.395 490.438 116.114C489.888 115.832 489.433 115.393 489.133 114.853C488.832 114.313 488.698 113.696 488.749 113.08C488.799 112.464 489.031 111.877 489.415 111.393C489.8 110.909 490.319 110.549 490.907 110.361C491.496 110.172 492.127 110.162 492.722 110.333C493.316 110.503 493.846 110.846 494.245 111.318C494.778 111.949 495.04 112.765 494.973 113.588C494.906 114.411 494.515 115.174 493.886 115.71Z" fill="white"/>
<path d="M506.72 130.859C506.408 131.134 506.045 131.343 505.652 131.475C505.258 131.607 504.842 131.659 504.429 131.629C504.015 131.598 503.611 131.486 503.241 131.297C502.871 131.109 502.543 130.849 502.275 130.532C502.006 130.215 501.804 129.848 501.679 129.452C501.555 129.056 501.51 128.64 501.549 128.226C501.587 127.813 501.707 127.412 501.903 127.045C502.098 126.679 502.364 126.356 502.686 126.094C503.32 125.577 504.132 125.33 504.946 125.406C505.761 125.481 506.513 125.873 507.041 126.498C507.57 127.122 507.832 127.928 507.772 128.744C507.712 129.56 507.334 130.319 506.72 130.859Z" fill="white"/>
<path d="M519.554 145.994C519.079 146.381 518.5 146.619 517.891 146.68C517.281 146.741 516.667 146.621 516.125 146.335C515.583 146.049 515.137 145.61 514.843 145.073C514.549 144.536 514.419 143.924 514.47 143.313C514.521 142.703 514.75 142.121 515.129 141.64C515.508 141.159 516.021 140.8 516.602 140.608C517.184 140.416 517.81 140.399 518.401 140.56C518.992 140.72 519.523 141.052 519.927 141.512C520.206 141.826 520.419 142.194 520.551 142.593C520.684 142.992 520.735 143.414 520.7 143.833C520.665 144.252 520.545 144.659 520.348 145.031C520.151 145.402 519.881 145.73 519.554 145.994Z" fill="white"/>
<path d="M532.402 161.143C531.928 161.531 531.351 161.772 530.741 161.835C530.132 161.898 529.517 161.78 528.974 161.496C528.431 161.212 527.984 160.775 527.688 160.239C527.392 159.702 527.26 159.091 527.309 158.48C527.357 157.869 527.585 157.286 527.963 156.804C528.34 156.322 528.852 155.961 529.433 155.767C530.014 155.573 530.639 155.555 531.231 155.713C531.823 155.872 532.355 156.202 532.76 156.661C533.038 156.975 533.25 157.343 533.383 157.741C533.516 158.139 533.567 158.56 533.534 158.978C533.5 159.396 533.383 159.804 533.188 160.176C532.994 160.548 532.726 160.877 532.402 161.143Z" fill="white"/>
<path d="M545.31 176.292C544.839 176.691 544.26 176.941 543.647 177.012C543.034 177.082 542.414 176.969 541.865 176.687C541.316 176.405 540.863 175.967 540.563 175.427C540.263 174.888 540.129 174.272 540.179 173.656C540.23 173.041 540.461 172.455 540.844 171.971C541.227 171.487 541.745 171.128 542.333 170.938C542.92 170.748 543.55 170.737 544.144 170.906C544.738 171.074 545.268 171.415 545.669 171.885C545.935 172.197 546.137 172.56 546.263 172.95C546.389 173.341 546.437 173.753 546.404 174.163C546.371 174.572 546.257 174.971 546.069 175.336C545.881 175.702 545.623 176.026 545.31 176.292Z" fill="white"/>
<path d="M264.438 310.304C263.804 310.82 262.992 311.067 262.178 310.992C261.364 310.916 260.611 310.524 260.083 309.9C259.555 309.275 259.292 308.469 259.352 307.653C259.412 306.837 259.79 306.078 260.404 305.538C260.716 305.264 261.079 305.055 261.473 304.922C261.866 304.79 262.282 304.738 262.696 304.768C263.11 304.799 263.513 304.912 263.883 305.1C264.253 305.288 264.582 305.548 264.85 305.865C265.118 306.182 265.32 306.549 265.445 306.945C265.569 307.341 265.614 307.758 265.576 308.171C265.537 308.584 265.417 308.986 265.222 309.352C265.026 309.718 264.76 310.042 264.438 310.304Z" fill="#A6A6A6"/>
<path d="M277.346 325.453C276.872 325.842 276.295 326.082 275.686 326.145C275.076 326.208 274.462 326.09 273.919 325.806C273.376 325.522 272.928 325.085 272.632 324.549C272.336 324.012 272.204 323.401 272.253 322.79C272.302 322.179 272.529 321.596 272.907 321.114C273.285 320.632 273.796 320.271 274.377 320.077C274.958 319.883 275.584 319.865 276.175 320.023C276.767 320.182 277.299 320.512 277.705 320.971C277.983 321.285 278.194 321.653 278.327 322.051C278.46 322.449 278.511 322.87 278.478 323.288C278.444 323.706 278.327 324.114 278.132 324.486C277.938 324.858 277.671 325.187 277.346 325.453Z" fill="#A6A6A6"/>
<path d="M290.18 340.632C289.709 341.031 289.13 341.281 288.517 341.352C287.904 341.422 287.283 341.309 286.734 341.027C286.185 340.745 285.732 340.307 285.432 339.767C285.132 339.228 284.999 338.612 285.049 337.996C285.099 337.381 285.33 336.795 285.714 336.311C286.097 335.827 286.615 335.468 287.202 335.278C287.79 335.088 288.42 335.077 289.014 335.246C289.607 335.414 290.138 335.755 290.538 336.225C290.805 336.537 291.007 336.9 291.133 337.29C291.259 337.681 291.307 338.093 291.273 338.503C291.24 338.912 291.126 339.311 290.939 339.676C290.751 340.042 290.493 340.366 290.18 340.632Z" fill="#A6A6A6"/>
<path d="M303.013 355.736C302.54 356.125 301.962 356.366 301.353 356.429C300.743 356.491 300.129 356.374 299.586 356.09C299.043 355.806 298.595 355.368 298.299 354.832C298.003 354.296 297.871 353.684 297.92 353.074C297.969 352.463 298.196 351.88 298.574 351.398C298.952 350.915 299.463 350.555 300.044 350.361C300.625 350.167 301.251 350.148 301.842 350.307C302.434 350.466 302.966 350.795 303.372 351.254C303.65 351.569 303.861 351.936 303.994 352.334C304.127 352.732 304.178 353.153 304.145 353.572C304.111 353.99 303.994 354.397 303.799 354.769C303.605 355.141 303.338 355.47 303.013 355.736Z" fill="#A6A6A6"/>
<path d="M315.846 370.871C315.372 371.257 314.793 371.496 314.184 371.557C313.574 371.617 312.96 371.497 312.418 371.212C311.876 370.926 311.43 370.487 311.136 369.95C310.842 369.413 310.712 368.801 310.763 368.19C310.814 367.58 311.043 366.998 311.422 366.517C311.801 366.036 312.314 365.677 312.895 365.485C313.477 365.293 314.103 365.276 314.694 365.437C315.285 365.597 315.816 365.928 316.22 366.389C316.499 366.703 316.712 367.071 316.844 367.47C316.977 367.869 317.028 368.29 316.993 368.709C316.958 369.128 316.838 369.536 316.641 369.908C316.444 370.279 316.174 370.607 315.846 370.871Z" fill="#A6A6A6"/>
<path opacity="0.2" d="M575.19 89.7445C533.627 92.7325 461.646 117.892 385.915 177.293C329.95 221.172 289.119 297.963 270.085 338.974L247.182 311.962C247.182 311.962 278.556 228.014 352.898 171.631C390.054 143.499 433.574 122.448 472.672 108.524C520.943 91.2087 562.133 84.9339 575.19 89.7445Z" fill="white"/>
<path d="M280.394 394.297L231.585 336.718L250.574 315.966L303.969 378.953L280.394 394.297Z" fill="#BA68C8"/>
<path opacity="0.1" d="M303.969 378.953L292.481 386.423L243.313 323.899L250.574 315.981L303.969 378.953Z" fill="#610C7D"/>
<path d="M544.07 201.331L521.765 199.837L511.277 221.082L512.233 197.417L491.944 188.035L514.474 188.259L524.723 168.284L524.185 190.724L544.07 201.331Z" fill="#FCFCFC"/>
<path d="M538.587 118.937L526.112 118.116L520.256 129.993L520.794 116.756L509.454 111.512L522.049 111.632L527.771 100.471L527.472 113.021L538.587 118.937Z" fill="#FCFCFC"/>
<path d="M437.712 372.2L425.252 371.364L419.396 383.241L419.919 370.019L408.579 364.775L421.174 364.895L426.91 353.734L426.597 366.284L437.712 372.2Z" fill="#FCFCFC"/>
<path d="M215.823 262.018L203.348 261.181L197.492 273.058L198.03 259.836L186.69 254.593L199.285 254.712L205.007 243.552L204.708 256.087L215.823 262.018Z" fill="#FCFCFC"/>
<path opacity="0.6" d="M269.667 381.448C247.033 396.702 227.058 416.169 212.477 439.43C197.515 462.809 189.063 489.756 187.99 517.492C187.632 531.551 189.348 545.586 193.085 559.144C196.929 572.955 202.746 586.138 210.355 598.287C218.147 610.653 227.491 621.97 238.159 631.962C249.016 642.119 260.892 651.131 273.596 658.854C259.893 652.592 246.876 644.926 234.752 635.981C222.483 626.888 211.437 616.253 201.884 604.338C182.083 579.681 170.014 549.721 167.194 518.224C164.385 486.387 171.108 453.713 185.032 424.565C198.956 395.417 219.767 369.526 244.359 348.371L269.667 381.448Z" fill="#BA68C8"/>
<path d="M230.958 416.154L222.053 417.797L220.066 427.179L218.079 417.797L209.175 416.139L218.049 413.972L220.066 405.113L222.098 413.972L230.958 416.154Z" fill="white"/>
<path d="M198.194 591.893L193.219 592.819L192.114 598.063L190.993 592.819L186.018 591.893L190.978 590.683L192.114 585.738L193.249 590.683L198.194 591.893Z" fill="white"/>
<path d="M195.52 546.371L190.545 547.282L189.439 552.541L188.334 547.282L183.344 546.371L188.304 545.161L189.439 540.2L190.575 545.161L195.52 546.371Z" fill="white"/>
<path d="M224.384 386.886L219.409 387.813L218.288 393.056L217.183 387.813L212.208 386.886L217.168 385.676L218.288 380.731L219.424 385.676L224.384 386.886Z" fill="white"/>
<path d="M209.967 603.247C209.65 603.333 209.371 603.521 209.172 603.782C208.972 604.042 208.865 604.361 208.865 604.689C208.865 605.017 208.972 605.336 209.172 605.596C209.371 605.857 209.65 606.045 209.967 606.131C210.283 606.045 210.563 605.857 210.762 605.596C210.961 605.336 211.069 605.017 211.069 604.689C211.069 604.361 210.961 604.042 210.762 603.782C210.563 603.521 210.283 603.333 209.967 603.247Z" fill="white"/>
<path d="M251.142 379.864C250.825 379.95 250.546 380.138 250.346 380.399C250.147 380.659 250.039 380.978 250.039 381.306C250.039 381.634 250.147 381.953 250.346 382.213C250.546 382.474 250.825 382.662 251.142 382.748C251.458 382.662 251.737 382.474 251.937 382.213C252.136 381.953 252.244 381.634 252.244 381.306C252.244 380.978 252.136 380.659 251.937 380.399C251.737 380.138 251.458 379.95 251.142 379.864Z" fill="white"/>
<path d="M173.483 508.513C173.167 508.599 172.887 508.786 172.688 509.047C172.489 509.308 172.381 509.626 172.381 509.954C172.381 510.282 172.489 510.601 172.688 510.862C172.887 511.122 173.167 511.31 173.483 511.396C173.8 511.31 174.079 511.122 174.278 510.862C174.478 510.601 174.586 510.282 174.586 509.954C174.586 509.626 174.478 509.308 174.278 509.047C174.079 508.786 173.8 508.599 173.483 508.513Z" fill="white"/>
<path d="M207.397 595.732C207.147 595.763 206.917 595.884 206.75 596.072C206.583 596.261 206.49 596.504 206.49 596.756C206.49 597.008 206.583 597.251 206.75 597.44C206.917 597.628 207.147 597.749 207.397 597.779C207.647 597.749 207.878 597.628 208.045 597.44C208.212 597.251 208.304 597.008 208.304 596.756C208.304 596.504 208.212 596.261 208.045 596.072C207.878 595.884 207.647 595.763 207.397 595.732Z" fill="white"/>
<path d="M172.961 458.105C172.691 458.105 172.433 458.212 172.242 458.403C172.052 458.593 171.945 458.852 171.945 459.121C171.945 459.391 172.052 459.649 172.242 459.84C172.433 460.03 172.691 460.137 172.961 460.137C173.23 460.137 173.488 460.03 173.679 459.84C173.869 459.649 173.976 459.391 173.976 459.121C173.976 458.852 173.869 458.593 173.679 458.403C173.488 458.212 173.23 458.105 172.961 458.105Z" fill="white"/>
<path d="M183.344 562.476C182.644 562.527 181.989 562.842 181.512 563.356C181.034 563.87 180.769 564.546 180.769 565.247C180.769 565.949 181.034 566.625 181.512 567.139C181.989 567.653 182.644 567.967 183.344 568.019C184.044 567.967 184.698 567.653 185.176 567.139C185.654 566.625 185.919 565.949 185.919 565.247C185.919 564.546 185.654 563.87 185.176 563.356C184.698 562.842 184.044 562.527 183.344 562.476Z" fill="white"/>
<path d="M186.018 448.723C185.285 448.723 184.582 449.014 184.064 449.532C183.545 450.051 183.254 450.754 183.254 451.487C183.254 452.22 183.545 452.923 184.064 453.441C184.582 453.959 185.285 454.251 186.018 454.251C186.751 454.251 187.454 453.959 187.972 453.441C188.491 452.923 188.782 452.22 188.782 451.487C188.782 450.754 188.491 450.051 187.972 449.532C187.454 449.014 186.751 448.723 186.018 448.723Z" fill="white"/>
</g>
</svg>
