<svg width="679" height="675" viewBox="0 0 679 675" fill="none" xmlns="http://www.w3.org/2000/svg">
<path d="M610.964 537.961H565.987V538.299H610.964V537.961Z" fill="#EBEBEB"/>
<path d="M449.797 541.633H437.996V541.971H449.797V541.633Z" fill="#EBEBEB"/>
<path d="M564.629 525.433H538.569V525.771H564.629V525.433Z" fill="#EBEBEB"/>
<path d="M129.893 527.702H71.2407V528.039H129.893V527.702Z" fill="#EBEBEB"/>
<path d="M150.589 527.702H141.992V528.039H150.589V527.702Z" fill="#EBEBEB"/>
<path d="M305.754 533.398H178.536V533.736H305.754V533.398Z" fill="#EBEBEB"/>
<path d="M321.846 456.03H59.6433C57.5868 456.03 55.6145 455.218 54.1603 453.772C52.7061 452.327 51.8892 450.366 51.8892 448.322V81.891C51.9071 79.8583 52.7319 77.9149 54.1842 76.4839C55.6364 75.0528 57.5985 74.2499 59.6433 74.25H321.846C323.903 74.25 325.875 75.0621 327.329 76.5078C328.783 77.9534 329.6 79.9141 329.6 81.9585V448.322C329.6 450.366 328.783 452.327 327.329 453.772C325.875 455.218 323.903 456.03 321.846 456.03ZM59.6433 74.52C57.6779 74.5236 55.7941 75.3013 54.4043 76.6829C53.0146 78.0644 52.2322 79.9372 52.2287 81.891V448.322C52.2322 450.275 53.0146 452.148 54.4043 453.53C55.7941 454.911 57.6779 455.689 59.6433 455.693H321.846C323.811 455.689 325.695 454.911 327.085 453.53C328.475 452.148 329.257 450.275 329.261 448.322V81.891C329.257 79.9372 328.475 78.0644 327.085 76.6829C325.695 75.3013 323.811 74.5236 321.846 74.52H59.6433Z" fill="#EBEBEB"/>
<path d="M615.595 456.03H353.365C351.31 456.026 349.34 455.213 347.886 453.768C346.433 452.323 345.615 450.365 345.611 448.322V81.891C345.632 79.8594 346.458 77.9181 347.91 76.4878C349.361 75.0574 351.321 74.2534 353.365 74.25H615.595C617.635 74.257 619.59 75.063 621.037 76.4933C622.483 77.9236 623.304 79.863 623.322 81.891V448.322C623.322 450.361 622.509 452.318 621.06 453.763C619.612 455.208 617.647 456.023 615.595 456.03ZM353.365 74.52C351.4 74.5236 349.516 75.3013 348.126 76.6829C346.736 78.0644 345.954 79.9372 345.951 81.891V448.322C345.954 450.275 346.736 452.148 348.126 453.53C349.516 454.911 351.4 455.689 353.365 455.693H615.595C617.56 455.689 619.444 454.911 620.834 453.53C622.224 452.148 623.006 450.275 623.01 448.322V81.891C623.006 79.9372 622.224 78.0644 620.834 76.6829C619.444 75.3013 617.56 74.5236 615.595 74.52H353.365Z" fill="#EBEBEB"/>
<path d="M679 516.24H0V516.577H679V516.24Z" fill="#EBEBEB"/>
<path d="M261.238 128.723H97.1921V515.808H261.238V128.723Z" fill="#EBEBEB"/>
<path d="M254.258 135.729H104.159V515.808H254.258V135.729Z" fill="#F5F5F5"/>
<path d="M175.698 185.868H115.525V325.066H175.698V185.868Z" fill="#FAFAFA"/>
<path d="M243.707 185.868H183.534V325.066H243.707V185.868Z" fill="#FAFAFA"/>
<path d="M243.707 367.173H115.525V506.371H243.707V367.173Z" fill="#FAFAFA"/>
<path d="M138.991 145.8H220.24C226.464 145.8 232.433 148.258 236.834 152.633C241.234 157.007 243.707 162.941 243.707 169.128V178.645H115.525V169.155C115.521 166.089 116.126 163.053 117.303 160.219C118.481 157.386 120.209 154.811 122.389 152.642C124.568 150.473 127.156 148.752 130.005 147.578C132.854 146.404 135.907 145.8 138.991 145.8Z" fill="#FAFAFA"/>
<path d="M126.471 331.33H115.525V359.68H126.471V331.33Z" fill="#E6E6E6"/>
<path d="M126.471 359.694H128.616V331.344H126.471V359.694Z" fill="#E0E0E0"/>
<path d="M122.845 342.468C122.847 343.376 122.579 344.265 122.073 345.022C121.567 345.778 120.847 346.369 120.004 346.718C119.16 347.068 118.232 347.161 117.335 346.985C116.439 346.809 115.615 346.373 114.967 345.732C114.32 345.091 113.879 344.273 113.7 343.382C113.521 342.491 113.611 341.568 113.96 340.728C114.31 339.889 114.901 339.171 115.661 338.666C116.42 338.161 117.314 337.892 118.227 337.892C119.45 337.892 120.622 338.373 121.488 339.231C122.353 340.089 122.841 341.253 122.845 342.468Z" fill="#E0E0E0"/>
<path d="M121.962 350.406H119.585V356.144H121.962V350.406Z" fill="#E0E0E0"/>
<path d="M114.167 348.881C117.73 348.881 120.618 346.01 120.618 342.468C120.618 338.926 117.73 336.056 114.167 336.056C110.605 336.056 107.717 338.926 107.717 342.468C107.717 346.01 110.605 348.881 114.167 348.881Z" fill="#EBEBEB"/>
<path d="M513.718 405.243C513.718 405.243 532.458 387.693 532.146 376.151C531.834 364.608 520.44 391.648 520.168 385.965C519.897 380.281 533.124 363.96 533.68 352.809C534.237 341.658 520.223 372.816 519.476 367.659C518.729 362.502 532.309 339.241 532.2 331.141C532.092 323.041 520.331 351.675 518.62 346.612C516.909 341.55 528.411 322.623 525.41 308.462C522.409 294.3 516.217 331.411 515.266 326.74C514.315 322.069 522.273 297.81 516.624 288.144C510.975 278.478 512.55 314.321 510.662 310.149C508.775 305.978 507.58 285.43 500.423 278.437C493.266 271.444 502.311 299.133 500.111 300.537C497.911 301.941 487.699 281.313 484.942 285.228C482.185 289.143 499.459 311.296 499.622 316.588C499.785 321.88 485.689 307.746 484.426 313.484C483.163 319.221 504.049 328.253 505.122 333.734C506.194 339.215 487.739 329.4 487.821 335.084C487.902 340.767 505.38 343.778 506.425 350.203C507.471 356.63 489.301 345.546 490.306 353.092C491.311 360.639 503.519 359.154 504.918 366.592C506.317 374.031 492.289 365.553 492.818 372.614C493.348 379.674 507.362 380.457 508.829 385.843C510.296 391.23 495.453 383.333 495.86 389.057C496.268 394.781 510.798 395.428 513.718 405.243Z" fill="#E0E0E0"/>
<path d="M512.17 430.218C514.668 417.222 515.986 404.029 516.108 390.798C516.814 362.057 513.175 333.072 503.546 305.896C502.84 303.912 499.595 304.628 500.301 306.626C509.807 333.626 513.473 362.205 512.781 390.69C512.685 403.647 511.417 416.569 508.992 429.3C508.571 431.366 511.708 432.365 512.17 430.286V430.218Z" fill="#F0F0F0"/>
<path d="M519.204 411.183C519.204 411.183 506.181 386.397 510.336 369.603C514.492 352.809 517.534 391.905 519.476 382.55C521.418 373.194 513.324 355.05 520.861 341.55C528.398 328.05 521.418 366.876 526.402 358.344C531.385 349.812 525.546 328.05 532.499 319.761C539.452 311.472 534.713 337.662 538.026 333.531C541.34 329.4 540.525 310.136 545.794 305.721C551.063 301.307 546.337 324.176 549.107 319.761C551.878 315.347 558.247 295.259 567.114 292.761C575.982 290.264 561.302 305.141 567.114 303.764C572.927 302.387 586.221 299.363 587.335 305.424C588.449 311.486 559.36 318.087 556.033 325.526C552.706 332.964 569.328 319.734 572.329 325.242C575.33 330.75 546.839 338.458 544.626 346.72C542.412 354.982 568.174 339.836 567.617 348.381C567.06 356.927 537.972 358.56 536.587 365.998C535.201 373.437 560.419 357.737 559.578 365.175C558.736 372.614 533.545 378.392 531.888 386.37C530.231 394.349 550.438 378.945 550.995 385.277C551.552 391.608 519.204 411.183 519.204 411.183Z" fill="#EBEBEB"/>
<path d="M500.79 410.4C500.79 410.4 513.392 388.057 509.63 377.149C505.869 366.241 503.125 395.55 501.102 390.15C499.079 384.75 506.846 365.31 504.022 354.51C501.197 343.71 497.232 377.595 494.91 372.816C492.587 368.037 498.617 341.901 496.077 334.206C493.538 326.511 490.917 357.332 487.753 352.998C484.589 348.665 489.885 327.199 482.81 314.55C475.735 301.9 480.949 339.228 478.627 335.016C476.305 330.804 476.617 305.316 468.333 297.783C460.05 290.25 472.407 323.959 469.27 320.544C466.133 317.128 458.882 297.877 449.946 293.328C441.01 288.778 457.972 312.525 456.302 314.509C454.631 316.494 438.648 299.862 437.222 304.411C435.796 308.961 458.95 324.972 460.661 329.98C462.372 334.989 444.704 325.674 445.22 331.533C445.736 337.392 468.401 339.795 471.022 344.709C473.643 349.623 453.137 345.748 454.916 351.121C456.695 356.494 474.281 354.199 477.215 360.018C480.148 365.836 459.479 360.666 462.698 367.564C465.916 374.463 477.133 369.427 480.705 376.11C484.276 382.792 468.347 378.81 470.982 385.452C473.616 392.094 487.21 388.611 490.224 393.322C493.239 398.034 476.644 394.888 478.817 400.234C480.99 405.58 495.059 401.949 500.79 410.4Z" fill="#EBEBEB"/>
<path d="M506.833 434.7C505.284 421.556 502.558 408.576 498.685 395.914C490.7 368.28 478.518 341.698 461.15 318.613C459.887 316.939 456.994 318.613 458.284 320.287C475.49 343.156 487.576 369.401 495.48 396.792C499.284 409.165 501.97 421.852 503.506 434.7C503.709 436.792 507.036 436.806 506.833 434.7Z" fill="#F0F0F0"/>
<path d="M518.647 431.555C519.169 420.055 520.53 408.608 522.721 397.305C526.714 375.475 533.083 353.174 545.359 334.422C552.353 323.717 561.519 314.55 573.239 309.082C575.181 308.178 573.497 305.33 571.569 306.221C550.601 316.022 538.04 336.879 530.068 357.642C522.667 376.974 518.566 397.562 516.393 418.095C515.918 422.564 515.497 427.059 515.347 431.595C515.28 433.728 518.593 433.715 518.675 431.595L518.647 431.555Z" fill="#F5F5F5"/>
<path d="M545.78 425.142H477.093L484.847 498.191V515.808H538.026V498.191L545.78 425.142Z" fill="#EBEBEB"/>
<path d="M561.506 200.488H512.17V239.152H561.506V200.488Z" fill="#F0F0F0"/>
<path d="M564.168 200.488H561.506V239.152H564.168V200.488Z" fill="#E0E0E0"/>
<path d="M556.481 204.43H517.208V235.21H556.481V204.43Z" fill="#FAFAFA"/>
<path d="M553.249 206.969H520.44V232.686H553.249V206.969Z" fill="#EBEBEB"/>
<path d="M501.998 137.741H447.692V206.199H501.998V137.741Z" fill="#EBEBEB"/>
<path d="M504.592 137.741H501.998V206.199H504.592V137.741Z" fill="#E0E0E0"/>
<path d="M496.458 144.72H453.232V199.22H496.458V144.72Z" fill="#F5F5F5"/>
<path d="M492.9 149.215H456.79V194.751H492.9V149.215Z" fill="#FAFAFA"/>
<path d="M481.995 165.281C481.995 165.281 475.612 174.258 472.326 174.11C469.325 173.975 464.178 165.281 464.178 165.281C464.178 165.281 470.561 156.303 473.847 156.451C476.889 156.6 481.995 165.281 481.995 165.281Z" fill="#EBEBEB"/>
<path d="M465.292 185.152C463.404 181.534 473.263 173.934 477.364 174.109C481.126 174.271 488.961 181.71 487.495 185.152C485.349 190.242 467.845 190.053 465.292 185.152Z" fill="#F0F0F0"/>
<path d="M546.405 180.09C559.942 180.09 570.917 164.877 570.917 146.11C570.917 127.344 559.942 112.131 546.405 112.131C532.867 112.131 521.893 127.344 521.893 146.11C521.893 164.877 532.867 180.09 546.405 180.09Z" fill="#E0E0E0"/>
<path d="M543.485 180.09C557.023 180.09 567.997 164.877 567.997 146.11C567.997 127.344 557.023 112.131 543.485 112.131C529.948 112.131 518.973 127.344 518.973 146.11C518.973 164.877 529.948 180.09 543.485 180.09Z" fill="#EBEBEB"/>
<path d="M543.485 175.055C555.02 175.055 564.371 162.096 564.371 146.111C564.371 130.125 555.02 117.167 543.485 117.167C531.95 117.167 522.599 130.125 522.599 146.111C522.599 162.096 531.95 175.055 543.485 175.055Z" fill="#E6E6E6"/>
<path d="M543.485 171.977C553.79 171.977 562.144 160.396 562.144 146.111C562.144 131.825 553.79 120.245 543.485 120.245C533.18 120.245 524.826 131.825 524.826 146.111C524.826 160.396 533.18 171.977 543.485 171.977Z" fill="#FAFAFA"/>
<path d="M537.632 160.164C535.695 158.319 534.178 156.081 533.185 153.603C532.191 151.125 531.744 148.464 531.874 145.8C531.874 145.8 539.574 144.909 539.343 157.734C539.343 157.734 548.021 148.783 545.454 143.1C541.462 134.244 541.462 134.244 544.286 128.709C544.286 128.709 551.85 131.746 548.36 141.979C548.327 144.638 547.962 147.281 547.274 149.85C547.274 149.85 554.892 142.6 557.337 147.352C557.337 147.352 553.263 155.034 547.274 151.834C547.274 151.794 540.484 163.566 537.632 160.164Z" fill="#EBEBEB"/>
<path d="M404.996 427.045C404.996 425.911 404.928 424.791 404.833 423.684L411.46 420.026C410.967 416.901 410.143 413.838 409.002 410.886L401.425 411.021C400.474 408.981 399.343 407.029 398.043 405.189L401.941 398.736C399.919 396.279 397.643 394.039 395.151 392.054L388.66 395.928C386.813 394.632 384.855 393.503 382.807 392.553L382.929 385.033C379.964 383.897 376.887 383.073 373.749 382.577L370.069 389.164C368.941 389.07 367.828 389.016 366.687 389.016C365.546 389.016 364.419 389.016 363.306 389.164L359.626 382.577C356.483 383.071 353.401 383.895 350.432 385.033L350.554 392.553C348.508 393.506 346.549 394.635 344.701 395.928L338.21 392.054C335.714 394.035 333.438 396.275 331.42 398.736L335.304 405.189C334.004 407.029 332.873 408.981 331.922 411.021L324.358 410.886C323.213 413.837 322.385 416.901 321.887 420.026L328.514 423.684C328.419 424.791 328.364 425.911 328.364 427.045C328.364 428.179 328.364 429.3 328.514 430.407L321.887 434.066C322.385 437.186 323.213 440.245 324.358 443.192L331.922 443.07C332.87 445.107 334.002 447.055 335.304 448.889L331.42 455.342C333.438 457.822 335.714 460.085 338.21 462.092L344.701 458.217C346.552 459.505 348.51 460.634 350.554 461.592L350.432 469.111C353.399 470.252 356.482 471.071 359.626 471.555L363.306 464.967C364.419 465.075 365.546 465.129 366.687 465.129C367.828 465.129 368.941 465.129 370.069 464.967L373.749 471.555C376.888 471.069 379.966 470.25 382.929 469.111L382.807 461.592C384.852 460.637 386.81 459.508 388.66 458.217L395.151 462.092C397.643 460.081 399.918 457.819 401.941 455.342L398.043 448.889C399.345 447.055 400.477 445.107 401.425 443.07L409.002 443.192C410.143 440.244 410.967 437.185 411.46 434.066L404.833 430.407C404.928 429.3 404.996 428.179 404.996 427.045ZM366.741 452.858C361.602 452.86 356.578 451.347 352.303 448.511C348.029 445.674 344.697 441.641 342.729 436.921C340.761 432.202 340.246 427.008 341.248 421.997C342.25 416.986 344.724 412.383 348.358 408.771C351.992 405.158 356.622 402.698 361.663 401.702C366.704 400.706 371.928 401.219 376.676 403.175C381.423 405.131 385.48 408.443 388.334 412.693C391.187 416.942 392.709 421.937 392.706 427.045C392.706 433.891 389.971 440.457 385.101 445.297C380.232 450.138 373.628 452.858 366.741 452.858Z" fill="#860086"/>
<path opacity="0.5" d="M404.996 427.045C404.996 425.911 404.928 424.791 404.833 423.684L411.46 420.026C410.967 416.901 410.143 413.838 409.002 410.886L401.425 411.021C400.474 408.981 399.343 407.029 398.043 405.189L401.941 398.736C399.919 396.279 397.643 394.039 395.151 392.054L388.66 395.928C386.813 394.632 384.855 393.503 382.807 392.553L382.929 385.033C379.964 383.897 376.887 383.073 373.749 382.577L370.069 389.164C368.941 389.07 367.828 389.016 366.687 389.016C365.546 389.016 364.419 389.016 363.306 389.164L359.626 382.577C356.483 383.071 353.401 383.895 350.432 385.033L350.554 392.553C348.508 393.506 346.549 394.635 344.701 395.928L338.21 392.054C335.714 394.035 333.438 396.275 331.42 398.736L335.304 405.189C334.004 407.029 332.873 408.981 331.922 411.021L324.358 410.886C323.213 413.837 322.385 416.901 321.887 420.026L328.514 423.684C328.419 424.791 328.364 425.911 328.364 427.045C328.364 428.179 328.364 429.3 328.514 430.407L321.887 434.066C322.385 437.186 323.213 440.245 324.358 443.192L331.922 443.07C332.87 445.107 334.002 447.055 335.304 448.889L331.42 455.342C333.438 457.822 335.714 460.085 338.21 462.092L344.701 458.217C346.552 459.505 348.51 460.634 350.554 461.592L350.432 469.111C353.399 470.252 356.482 471.071 359.626 471.555L363.306 464.967C364.419 465.075 365.546 465.129 366.687 465.129C367.828 465.129 368.941 465.129 370.069 464.967L373.749 471.555C376.888 471.069 379.966 470.25 382.929 469.111L382.807 461.592C384.852 460.637 386.81 459.508 388.66 458.217L395.151 462.092C397.643 460.081 399.918 457.819 401.941 455.342L398.043 448.889C399.345 447.055 400.477 445.107 401.425 443.07L409.002 443.192C410.143 440.244 410.967 437.185 411.46 434.066L404.833 430.407C404.928 429.3 404.996 428.179 404.996 427.045ZM366.741 452.858C361.602 452.86 356.578 451.347 352.303 448.511C348.029 445.674 344.697 441.641 342.729 436.921C340.761 432.202 340.246 427.008 341.248 421.997C342.25 416.986 344.724 412.383 348.358 408.771C351.992 405.158 356.622 402.698 361.663 401.702C366.704 400.706 371.928 401.219 376.676 403.175C381.423 405.131 385.48 408.443 388.334 412.693C391.187 416.942 392.709 421.937 392.706 427.045C392.706 433.891 389.971 440.457 385.101 445.297C380.232 450.138 373.628 452.858 366.741 452.858Z" fill="white"/>
<path d="M201.541 228.434C201.541 227.61 201.541 226.8 201.419 225.99L206.239 223.29C205.875 221.02 205.274 218.794 204.447 216.648L198.947 216.743C198.257 215.261 197.429 213.846 196.475 212.517L199.314 207.819C197.858 206.035 196.22 204.406 194.425 202.959L189.699 205.767C188.358 204.828 186.936 204.01 185.449 203.324L185.53 197.924C183.38 197.087 181.144 196.49 178.862 196.142L176.146 200.921C175.331 200.853 174.517 200.813 173.688 200.813C172.86 200.813 172.031 200.813 171.23 200.921L168.514 196.142C166.228 196.49 163.987 197.087 161.833 197.924L161.928 203.324C160.436 204.01 159.009 204.828 157.664 205.767L152.952 202.959C151.152 204.406 149.509 206.034 148.049 207.819L150.887 212.517C149.938 213.849 149.111 215.264 148.416 216.743L142.984 216.648C142.157 218.794 141.556 221.02 141.191 223.29L146.012 225.99C146.012 226.8 145.904 227.61 145.904 228.434C145.904 229.257 145.904 230.067 146.012 230.877L141.232 233.55C141.595 235.82 142.196 238.046 143.025 240.192L148.457 240.098C149.155 241.579 149.982 242.998 150.928 244.337L148.09 249.021C149.55 250.806 151.193 252.434 152.992 253.881L157.705 251.073C159.05 252.012 160.477 252.83 161.969 253.517L161.874 258.984C164.028 259.82 166.269 260.418 168.555 260.766L171.271 255.987C172.072 255.987 172.901 256.095 173.729 256.095C174.557 256.095 175.372 256.095 176.187 255.987L178.903 260.766C181.185 260.418 183.421 259.82 185.571 258.984L185.489 253.517C186.977 252.83 188.399 252.012 189.74 251.073L194.466 253.881C196.261 252.434 197.899 250.805 199.354 249.021L196.475 244.35C197.427 243.014 198.254 241.596 198.947 240.111L204.447 240.206C205.276 238.06 205.876 235.834 206.239 233.564L201.419 230.864C201.486 230.067 201.541 229.257 201.541 228.434ZM173.729 239.328C171.561 239.328 169.443 238.689 167.64 237.492C165.838 236.295 164.434 234.593 163.604 232.603C162.775 230.612 162.558 228.421 162.98 226.308C163.403 224.195 164.447 222.254 165.98 220.73C167.512 219.206 169.465 218.169 171.591 217.748C173.717 217.328 175.92 217.544 177.923 218.368C179.925 219.193 181.637 220.589 182.841 222.381C184.045 224.172 184.688 226.279 184.688 228.434C184.688 231.323 183.533 234.094 181.478 236.137C179.423 238.18 176.635 239.328 173.729 239.328Z" fill="#860086"/>
<path opacity="0.6" d="M201.541 228.434C201.541 227.61 201.541 226.8 201.419 225.99L206.239 223.29C205.875 221.02 205.274 218.794 204.447 216.648L198.947 216.743C198.257 215.261 197.429 213.846 196.475 212.517L199.314 207.819C197.858 206.035 196.22 204.406 194.425 202.959L189.699 205.767C188.358 204.828 186.936 204.01 185.449 203.324L185.53 197.924C183.38 197.087 181.144 196.49 178.862 196.142L176.146 200.921C175.331 200.853 174.517 200.813 173.688 200.813C172.86 200.813 172.031 200.813 171.23 200.921L168.514 196.142C166.228 196.49 163.987 197.087 161.833 197.924L161.928 203.324C160.436 204.01 159.009 204.828 157.664 205.767L152.952 202.959C151.152 204.406 149.509 206.034 148.049 207.819L150.887 212.517C149.938 213.849 149.111 215.264 148.416 216.743L142.984 216.648C142.157 218.794 141.556 221.02 141.191 223.29L146.012 225.99C146.012 226.8 145.904 227.61 145.904 228.434C145.904 229.257 145.904 230.067 146.012 230.877L141.232 233.55C141.595 235.82 142.196 238.046 143.025 240.192L148.457 240.098C149.155 241.579 149.982 242.998 150.928 244.337L148.09 249.021C149.55 250.806 151.193 252.434 152.992 253.881L157.705 251.073C159.05 252.012 160.477 252.83 161.969 253.517L161.874 258.984C164.028 259.82 166.269 260.418 168.555 260.766L171.271 255.987C172.072 255.987 172.901 256.095 173.729 256.095C174.557 256.095 175.372 256.095 176.187 255.987L178.903 260.766C181.185 260.418 183.421 259.82 185.571 258.984L185.489 253.517C186.977 252.83 188.399 252.012 189.74 251.073L194.466 253.881C196.261 252.434 197.899 250.805 199.354 249.021L196.475 244.35C197.427 243.014 198.254 241.596 198.947 240.111L204.447 240.206C205.276 238.06 205.876 235.834 206.239 233.564L201.419 230.864C201.486 230.067 201.541 229.257 201.541 228.434ZM173.729 239.328C171.561 239.328 169.443 238.689 167.64 237.492C165.838 236.295 164.434 234.593 163.604 232.603C162.775 230.612 162.558 228.421 162.98 226.308C163.403 224.195 164.447 222.254 165.98 220.73C167.512 219.206 169.465 218.169 171.591 217.748C173.717 217.328 175.92 217.544 177.923 218.368C179.925 219.193 181.637 220.589 182.841 222.381C184.045 224.172 184.688 226.279 184.688 228.434C184.688 231.323 183.533 234.094 181.478 236.137C179.423 238.18 176.635 239.328 173.729 239.328Z" fill="white"/>
<path d="M365.859 145.516H330.551L295.039 549.585H330.347C338.401 549.439 346.122 546.365 352.052 540.945C357.982 535.526 361.71 528.135 362.532 520.168L392.869 174.933C393.283 171.187 392.889 167.397 391.713 163.814C390.538 160.231 388.608 156.939 386.053 154.155C383.497 151.372 380.374 149.162 376.892 147.673C373.41 146.183 369.649 145.448 365.859 145.516Z" fill="#263238"/>
<path d="M323.082 549.585H177.776C173.983 549.657 170.219 548.925 166.734 547.437C163.249 545.949 160.122 543.74 157.564 540.956C155.005 538.173 153.073 534.879 151.896 531.294C150.719 527.71 150.324 523.917 150.738 520.168L181.13 174.933C181.949 166.966 185.676 159.573 191.607 154.153C197.537 148.732 205.26 145.66 213.315 145.517H358.621C362.414 145.442 366.18 146.173 369.667 147.66C373.154 149.147 376.282 151.356 378.842 154.14C381.402 156.924 383.335 160.219 384.513 163.804C385.691 167.39 386.086 171.184 385.672 174.933L355.266 520.168C354.447 528.136 350.72 535.528 344.79 540.949C338.859 546.369 331.137 549.442 323.082 549.585Z" fill="#860086"/>
<path d="M358.05 152.267H320.284C319.047 152.288 317.853 152.73 316.903 153.518C315.952 154.306 315.3 155.394 315.056 156.6L314.812 157.775C314.158 160.688 312.539 163.299 310.215 165.189C307.89 167.079 304.994 168.138 301.992 168.196H266.059C263.216 168.251 260.465 167.186 258.408 165.234C256.35 163.282 255.151 160.601 255.073 157.775V156.6C255.045 155.442 254.555 154.343 253.713 153.543C252.87 152.743 251.743 152.309 250.578 152.334H212.758C206.551 152.444 200.601 154.811 196.031 158.988C191.462 163.165 188.591 168.862 187.961 175.001L157.528 520.169C157.209 523.055 157.513 525.977 158.419 528.738C159.325 531.499 160.812 534.036 162.782 536.181C164.752 538.326 167.159 540.028 169.843 541.176C172.526 542.323 175.425 542.889 178.346 542.835H323.652C329.858 542.722 335.807 540.354 340.375 536.177C344.944 532.001 347.816 526.306 348.449 520.169L378.882 174.933C379.201 172.045 378.897 169.123 377.99 166.361C377.084 163.599 375.595 161.06 373.624 158.915C371.652 156.77 369.244 155.068 366.558 153.921C363.873 152.775 360.972 152.211 358.05 152.267Z" fill="#860086"/>
<path opacity="0.7" d="M358.05 152.267H320.284C319.047 152.288 317.853 152.73 316.903 153.518C315.952 154.306 315.3 155.394 315.056 156.6L314.812 157.775C314.158 160.688 312.539 163.299 310.215 165.189C307.89 167.079 304.994 168.138 301.992 168.196H266.059C263.216 168.251 260.465 167.186 258.408 165.234C256.35 163.282 255.151 160.601 255.073 157.775V156.6C255.045 155.442 254.555 154.343 253.713 153.543C252.87 152.743 251.743 152.309 250.578 152.334H212.758C206.551 152.444 200.601 154.811 196.031 158.988C191.462 163.165 188.591 168.862 187.961 175.001L157.528 520.169C157.209 523.055 157.513 525.977 158.419 528.738C159.325 531.499 160.812 534.036 162.782 536.181C164.752 538.326 167.159 540.028 169.843 541.176C172.526 542.323 175.425 542.889 178.346 542.835H323.652C329.858 542.722 335.807 540.354 340.375 536.177C344.944 532.001 347.816 526.306 348.449 520.169L378.882 174.933C379.201 172.045 378.897 169.123 377.99 166.361C377.084 163.599 375.595 161.06 373.624 158.915C371.652 156.77 369.244 155.068 366.558 153.921C363.873 152.775 360.972 152.211 358.05 152.267Z" fill="white"/>
<g opacity="0.2">
<path d="M276.285 156.087C276.205 156.867 275.841 157.59 275.26 158.12C274.679 158.65 273.923 158.95 273.135 158.962C272.765 158.969 272.398 158.897 272.059 158.75C271.72 158.604 271.416 158.388 271.168 158.116C270.92 157.843 270.733 157.522 270.62 157.172C270.507 156.822 270.471 156.452 270.514 156.087C270.593 155.311 270.957 154.591 271.535 154.063C272.113 153.536 272.866 153.237 273.651 153.225C274.019 153.219 274.385 153.291 274.724 153.436C275.063 153.581 275.366 153.796 275.615 154.067C275.864 154.337 276.053 154.657 276.168 155.005C276.284 155.354 276.324 155.722 276.285 156.087Z" fill="black"/>
<path d="M296.995 153.225H287.095C286.31 153.237 285.557 153.536 284.979 154.063C284.401 154.591 284.038 155.311 283.958 156.087C283.917 156.453 283.956 156.823 284.07 157.173C284.185 157.523 284.373 157.844 284.622 158.116C284.871 158.388 285.176 158.604 285.515 158.75C285.855 158.896 286.222 158.969 286.592 158.962H296.492C297.278 158.947 298.031 158.646 298.609 158.116C299.187 157.586 299.55 156.864 299.629 156.087C299.668 155.722 299.628 155.354 299.512 155.005C299.397 154.657 299.209 154.337 298.96 154.067C298.711 153.796 298.407 153.581 298.068 153.436C297.729 153.291 297.363 153.219 296.995 153.225Z" fill="black"/>
</g>
<path d="M204.379 168.075H207.434L207.692 165.038H204.637L204.379 168.075Z" fill="#860086"/>
<path d="M210.748 165.037L210.49 168.075H213.545L213.804 165.037L214.075 162H211.02L210.748 165.037Z" fill="#860086"/>
<path d="M217.402 158.962L217.131 162L216.859 165.037L216.601 168.075H219.657L219.915 165.037L220.186 162L220.458 158.962H217.402Z" fill="#860086"/>
<path d="M348.775 159.165L348.585 161.393H347.091L346.697 165.848H348.191L347.987 168.075H361.432L362.219 159.165H348.775ZM354.207 165.848H349.726L350.12 161.393H354.601L354.207 165.848Z" fill="#860086"/>
<g opacity="0.4">
<path d="M266.168 168.129L165.866 538.88C169.509 541.491 173.896 542.876 178.387 542.835H186.223L287.597 168.129H266.168Z" fill="white"/>
<path d="M358.05 152.267H320.284C319.047 152.288 317.853 152.73 316.903 153.518C315.952 154.306 315.3 155.394 315.056 156.6L314.812 157.775C314.172 160.61 312.619 163.161 310.389 165.039C308.158 166.917 305.372 168.021 302.454 168.183L201.052 542.835H278.39L378.882 171.356C378.557 166.117 376.208 161.205 372.326 157.648C368.444 154.091 363.329 152.163 358.05 152.267Z" fill="white"/>
</g>
<path d="M240.217 257.85H196C195.305 257.864 194.614 257.73 193.975 257.457C193.336 257.184 192.763 256.778 192.295 256.266C191.826 255.755 191.474 255.15 191.26 254.491C191.047 253.833 190.977 253.137 191.057 252.45L195.28 204.498C195.423 203.038 196.102 201.68 197.186 200.685C198.27 199.689 199.685 199.124 201.161 199.098H245.391C246.086 199.084 246.776 199.217 247.414 199.491C248.053 199.764 248.625 200.17 249.092 200.682C249.56 201.194 249.911 201.799 250.123 202.458C250.335 203.116 250.402 203.812 250.32 204.498L246.11 252.45C245.961 253.911 245.279 255.266 244.194 256.261C243.108 257.256 241.693 257.821 240.217 257.85Z" fill="white"/>
<path d="M352.903 299.943H256.309C255.613 299.957 254.923 299.823 254.284 299.55C253.644 299.277 253.072 298.871 252.603 298.359C252.135 297.848 251.782 297.243 251.569 296.584C251.355 295.926 251.286 295.23 251.366 294.543L259.297 204.444C259.44 202.984 260.118 201.626 261.202 200.631C262.286 199.635 263.701 199.07 265.177 199.044H361.771C362.466 199.032 363.156 199.168 363.794 199.441C364.432 199.715 365.004 200.121 365.472 200.632C365.939 201.143 366.292 201.748 366.507 202.405C366.721 203.062 366.792 203.757 366.714 204.444L358.784 294.543C358.641 296.003 357.962 297.361 356.878 298.356C355.794 299.352 354.379 299.917 352.903 299.943Z" fill="white"/>
<path d="M345.638 382.414H185.027C184.333 382.426 183.643 382.291 183.005 382.017C182.367 381.743 181.795 381.337 181.327 380.826C180.859 380.315 180.506 379.711 180.292 379.054C180.078 378.396 180.007 377.701 180.084 377.014L185.666 313.565C185.815 312.104 186.497 310.748 187.582 309.753C188.668 308.759 190.083 308.193 191.559 308.165H352.17C352.865 308.153 353.555 308.288 354.193 308.562C354.831 308.836 355.403 309.242 355.871 309.753C356.338 310.264 356.691 310.868 356.905 311.525C357.12 312.183 357.191 312.878 357.113 313.565L351.532 377.014C351.383 378.475 350.701 379.831 349.615 380.826C348.529 381.821 347.115 382.386 345.638 382.414Z" fill="white"/>
<path d="M334.258 511.731H173.647C172.953 511.743 172.263 511.607 171.625 511.334C170.987 511.06 170.415 510.654 169.947 510.143C169.479 509.632 169.126 509.027 168.912 508.37C168.698 507.713 168.627 507.018 168.704 506.331L178.414 396.049C178.557 394.587 179.237 393.228 180.325 392.232C181.412 391.236 182.83 390.672 184.308 390.649H344.932C345.627 390.635 346.317 390.769 346.956 391.042C347.594 391.315 348.167 391.722 348.634 392.234C349.101 392.745 349.452 393.351 349.664 394.009C349.876 394.667 349.943 395.363 349.862 396.049L340.165 506.331C340.016 507.794 339.332 509.151 338.244 510.147C337.155 511.142 335.737 511.705 334.258 511.731Z" fill="white"/>
<path d="M222.902 245.295H178.686C177.99 245.309 177.3 245.175 176.66 244.902C176.021 244.629 175.448 244.223 174.98 243.711C174.512 243.2 174.159 242.595 173.946 241.936C173.732 241.278 173.663 240.582 173.743 239.895L177.966 191.93C178.112 190.468 178.793 189.111 179.88 188.115C180.966 187.12 182.382 186.555 183.86 186.53H228.144C228.839 186.518 229.528 186.653 230.167 186.927C230.805 187.201 231.377 187.607 231.844 188.118C232.312 188.629 232.665 189.233 232.879 189.89C233.094 190.548 233.164 191.243 233.087 191.93L228.864 239.895C228.716 241.368 228.026 242.735 226.925 243.732C225.824 244.729 224.391 245.286 222.902 245.295Z" fill="#860086"/>
<path opacity="0.4" d="M222.902 245.295H178.686C177.99 245.309 177.3 245.175 176.66 244.902C176.021 244.629 175.448 244.223 174.98 243.711C174.512 243.2 174.159 242.595 173.946 241.936C173.732 241.278 173.663 240.582 173.743 239.895L177.966 191.93C178.112 190.468 178.793 189.111 179.88 188.115C180.966 187.12 182.382 186.555 183.86 186.53H228.144C228.839 186.518 229.528 186.653 230.167 186.927C230.805 187.201 231.377 187.607 231.844 188.118C232.312 188.629 232.665 189.233 232.879 189.89C233.094 190.548 233.164 191.243 233.087 191.93L228.864 239.895C228.716 241.368 228.026 242.735 226.925 243.732C225.824 244.729 224.391 245.286 222.902 245.295Z" fill="white"/>
<path opacity="0.8" d="M228.945 191.956C228.964 191.786 228.947 191.613 228.894 191.45C228.841 191.287 228.754 191.136 228.639 191.009C228.524 190.881 228.382 190.779 228.224 190.71C228.066 190.641 227.896 190.605 227.723 190.606H183.493C183.126 190.615 182.776 190.757 182.508 191.006C182.24 191.255 182.073 191.593 182.04 191.956L177.816 239.922C177.795 240.093 177.811 240.266 177.863 240.431C177.915 240.595 178.002 240.746 178.117 240.874C178.233 241.003 178.376 241.104 178.535 241.173C178.694 241.241 178.865 241.275 179.039 241.272H223.269C223.635 241.264 223.986 241.121 224.254 240.872C224.522 240.623 224.689 240.285 224.722 239.922L228.945 191.956Z" fill="white"/>
<path d="M212.065 213.894C211.576 219.389 208.209 223.844 202.682 223.844C197.154 223.844 194.534 219.389 195.063 213.894C195.593 208.4 198.906 203.945 204.433 203.945C209.96 203.945 212.541 208.4 212.065 213.894Z" fill="#860086"/>
<path d="M222.087 233.159C221.41 230.751 219.948 228.636 217.93 227.145C215.911 225.655 213.452 224.873 210.938 224.924H194.194C191.527 224.97 188.927 225.768 186.698 227.226C184.47 228.684 182.703 230.741 181.605 233.159L178.088 240.854C178.203 240.979 178.344 241.079 178.501 241.146C178.658 241.214 178.827 241.247 178.998 241.245H223.228C223.592 241.239 223.94 241.1 224.206 240.854L222.087 233.159Z" fill="#860086"/>
<path d="M310.412 498.231H149.801C149.106 498.243 148.417 498.107 147.778 497.834C147.14 497.56 146.568 497.154 146.101 496.643C145.633 496.132 145.28 495.527 145.066 494.87C144.851 494.213 144.781 493.518 144.858 492.831L154.568 382.549C154.711 381.089 155.389 379.732 156.473 378.736C157.557 377.74 158.972 377.176 160.448 377.149H321.058C321.753 377.138 322.443 377.273 323.081 377.547C323.719 377.821 324.291 378.227 324.759 378.738C325.227 379.249 325.579 379.853 325.794 380.51C326.008 381.168 326.079 381.863 326.001 382.549L316.292 492.831C316.146 494.29 315.467 495.646 314.383 496.641C313.3 497.636 311.887 498.202 310.412 498.231Z" fill="#860086"/>
<path opacity="0.4" d="M310.412 498.231H149.801C149.106 498.243 148.417 498.107 147.778 497.834C147.14 497.56 146.568 497.154 146.101 496.643C145.633 496.132 145.28 495.527 145.066 494.87C144.851 494.213 144.781 493.518 144.858 492.831L154.568 382.549C154.711 381.089 155.389 379.732 156.473 378.736C157.557 377.74 158.972 377.176 160.448 377.149H321.058C321.753 377.138 322.443 377.273 323.081 377.547C323.719 377.821 324.291 378.227 324.759 378.738C325.227 379.249 325.579 379.853 325.794 380.51C326.008 381.168 326.079 381.863 326.001 382.549L316.292 492.831C316.146 494.29 315.467 495.646 314.383 496.641C313.3 497.636 311.887 498.202 310.412 498.231Z" fill="white"/>
<path d="M320.705 381.227H160.095C159.726 381.229 159.372 381.369 159.103 381.619C158.833 381.869 158.669 382.211 158.642 382.577L148.932 492.858C148.91 493.029 148.926 493.202 148.978 493.367C149.03 493.531 149.117 493.682 149.233 493.811C149.349 493.939 149.491 494.04 149.65 494.109C149.809 494.177 149.981 494.211 150.154 494.208H310.765C311.13 494.197 311.48 494.053 311.747 493.805C312.014 493.557 312.182 493.22 312.218 492.858L321.927 382.577C321.949 382.406 321.933 382.232 321.881 382.068C321.829 381.903 321.742 381.752 321.627 381.624C321.511 381.496 321.368 381.394 321.209 381.326C321.05 381.257 320.879 381.223 320.705 381.227Z" fill="#263238"/>
<path d="M249.342 452.141C258.102 443.804 258.973 430.576 251.287 422.594C243.601 414.612 230.268 414.9 221.508 423.237C212.747 431.574 211.876 444.803 219.562 452.784C227.249 460.766 240.581 460.478 249.342 452.141Z" fill="#860086"/>
<path opacity="0.9" d="M246.423 437.697L228.918 448.362L230.806 427.045L246.423 437.697Z" fill="white"/>
<path opacity="0.8" d="M292.839 477.859H158.221L158.316 476.739H292.934L292.839 477.859Z" fill="white"/>
<path d="M209.892 477.293C209.855 477.706 209.666 478.09 209.359 478.372C209.053 478.654 208.653 478.813 208.236 478.818H156.944C156.75 478.82 156.558 478.78 156.38 478.701C156.203 478.623 156.044 478.507 155.916 478.363C155.787 478.218 155.691 478.048 155.634 477.863C155.577 477.679 155.561 477.484 155.586 477.293C155.626 476.882 155.818 476.5 156.123 476.221C156.429 475.942 156.828 475.785 157.243 475.781H208.534C208.727 475.779 208.918 475.819 209.095 475.896C209.271 475.974 209.429 476.088 209.557 476.231C209.686 476.374 209.782 476.543 209.84 476.726C209.898 476.909 209.916 477.102 209.892 477.293Z" fill="#860086"/>
<g opacity="0.8">
<path d="M305.428 473.985H307.152L307.03 475.47H308.483L308.701 473.08H305.509L305.428 473.985Z" fill="white"/>
<path d="M296.37 475.47L296.506 473.985H298.23L298.312 473.08H295.121L294.903 475.47H296.37Z" fill="white"/>
<path d="M297.66 480.614H295.922L296.058 479.129H294.591L294.374 481.518H297.579L297.66 480.614Z" fill="white"/>
<path d="M306.704 479.129L306.568 480.614H304.844L304.762 481.518H307.954L308.171 479.129H306.704Z" fill="white"/>
</g>
<g opacity="0.8">
<path opacity="0.9" d="M227.682 489.294L232.897 486.121L228.239 482.936L227.682 489.294Z" fill="white"/>
<path opacity="0.9" d="M233.155 483.273L232.897 486.121L232.653 488.957H233.983L234.486 483.273H233.155Z" fill="white"/>
</g>
<g opacity="0.8">
<path opacity="0.9" d="M239.103 488.956H240.841L241.344 483.273H239.606L239.103 488.956Z" fill="white"/>
<path opacity="0.9" d="M242.675 483.273L242.172 488.956H243.897L244.399 483.273H242.675Z" fill="white"/>
</g>
<path opacity="0.8" d="M223.119 486.121L217.905 489.294L218.461 482.936L223.119 486.121Z" fill="white"/>
<path d="M320.895 367.551H160.244C159.549 367.563 158.86 367.428 158.221 367.154C157.583 366.88 157.011 366.474 156.544 365.963C156.076 365.452 155.723 364.847 155.509 364.19C155.294 363.533 155.224 362.838 155.301 362.151L160.882 298.701C161.031 297.24 161.713 295.885 162.799 294.89C163.885 293.895 165.3 293.33 166.776 293.301H327.427C328.123 293.287 328.814 293.421 329.453 293.694C330.092 293.967 330.665 294.373 331.133 294.885C331.601 295.396 331.954 296.001 332.167 296.66C332.381 297.318 332.45 298.014 332.37 298.701L326.789 362.151C326.64 363.612 325.958 364.967 324.872 365.962C323.787 366.957 322.372 367.522 320.895 367.551Z" fill="#860086"/>
<path opacity="0.4" d="M320.895 367.551H160.244C159.549 367.563 158.86 367.428 158.221 367.154C157.583 366.88 157.011 366.474 156.544 365.963C156.076 365.452 155.723 364.847 155.509 364.19C155.294 363.533 155.224 362.838 155.301 362.151L160.882 298.701C161.031 297.24 161.713 295.885 162.799 294.89C163.885 293.895 165.3 293.33 166.776 293.301H327.427C328.123 293.287 328.814 293.421 329.453 293.694C330.092 293.967 330.665 294.373 331.133 294.885C331.601 295.396 331.954 296.001 332.167 296.66C332.381 297.318 332.45 298.014 332.37 298.701L326.789 362.151C326.64 363.612 325.958 364.967 324.872 365.962C323.787 366.957 322.372 367.522 320.895 367.551Z" fill="white"/>
<path opacity="0.3" d="M327.129 296.73H166.518C165.969 296.737 165.441 296.944 165.035 297.313C164.63 297.681 164.375 298.185 164.318 298.728L158.737 362.178C158.71 362.434 158.738 362.692 158.819 362.937C158.899 363.181 159.031 363.406 159.206 363.596C159.38 363.786 159.593 363.937 159.831 364.039C160.068 364.142 160.325 364.193 160.583 364.189H321.194C321.744 364.176 322.27 363.965 322.675 363.595C323.079 363.225 323.335 362.721 323.394 362.178L328.975 298.728C329.003 298.473 328.975 298.215 328.894 297.971C328.813 297.727 328.68 297.504 328.506 297.315C328.331 297.126 328.118 296.976 327.88 296.875C327.643 296.774 327.387 296.725 327.129 296.73Z" fill="white"/>
<path opacity="0.4" d="M199.327 330.453H276.733L272.931 311.904L267.838 296.73H189.74L199.327 330.453Z" fill="white"/>
<path opacity="0.4" d="M199.327 330.453L161.412 331.803L158.696 362.164C158.669 362.42 158.697 362.679 158.778 362.923C158.859 363.168 158.991 363.392 159.165 363.582C159.34 363.772 159.553 363.923 159.79 364.026C160.027 364.128 160.284 364.179 160.543 364.176H208.942L199.327 330.453Z" fill="white"/>
<path d="M324.263 352.188L324.902 344.966L280.576 327.47L276.285 315.104L289.879 296.73H283.401L274.533 308.718L271.464 296.73H265.666L270.188 314.591L274.533 327.078H201.201L193.176 296.73H187.418L195.443 327.078H161.833L161.235 333.828H197.236L205.262 364.176H211.006L202.98 333.828H243.272L264.389 364.176H271.274L250.157 333.828H277.725L324.263 352.188Z" fill="white"/>
<path opacity="0.2" d="M247.11 324.14C251.797 324.12 255.593 323.275 255.589 322.254C255.584 321.232 251.781 320.421 247.093 320.441C242.406 320.461 238.61 321.306 238.614 322.327C238.619 323.349 242.422 324.16 247.11 324.14Z" fill="black"/>
<path d="M249.016 300.78C246.709 300.832 244.5 301.717 242.801 303.27C241.102 304.822 240.029 306.936 239.782 309.218C239.375 313.875 247.061 323.055 247.061 323.055C247.061 323.055 256.35 313.875 256.757 309.218C256.875 308.144 256.761 307.058 256.424 306.031C256.087 305.004 255.534 304.06 254.802 303.262C254.07 302.464 253.175 301.83 252.178 301.402C251.18 300.974 250.103 300.762 249.016 300.78ZM247.93 313.065C247.435 313.074 246.943 312.977 246.488 312.782C246.032 312.587 245.624 312.298 245.29 311.934C244.956 311.57 244.704 311.14 244.55 310.671C244.397 310.203 244.345 309.707 244.399 309.218C244.508 308.176 244.996 307.21 245.772 306.502C246.547 305.793 247.556 305.391 248.609 305.37C249.105 305.361 249.596 305.458 250.052 305.653C250.507 305.848 250.915 306.137 251.249 306.501C251.583 306.865 251.835 307.295 251.989 307.764C252.142 308.232 252.194 308.728 252.14 309.218C252.036 310.261 251.55 311.23 250.774 311.94C249.997 312.65 248.985 313.05 247.93 313.065Z" fill="#860086"/>
<path d="M455.555 514.337L453.423 538.583H442.369L441.228 514.337H455.555Z" fill="#B97964"/>
<path d="M437.398 537.989C436.188 538.102 434.978 537.765 434.003 537.044C433.881 536.869 433.816 536.662 433.816 536.45C433.816 536.237 433.881 536.03 434.003 535.856C434.098 535.699 434.224 535.563 434.374 535.456C434.523 535.35 434.693 535.274 434.872 535.235C436.814 534.735 440.82 537.111 440.997 537.206C441.045 537.238 441.083 537.282 441.107 537.335C441.131 537.387 441.14 537.445 441.133 537.503C441.117 537.556 441.088 537.604 441.047 537.642C441.006 537.68 440.956 537.706 440.902 537.719C439.744 537.907 438.572 537.997 437.398 537.989ZM435.592 535.707C435.418 535.702 435.243 535.725 435.076 535.775C434.962 535.789 434.852 535.83 434.755 535.893C434.659 535.956 434.578 536.04 434.519 536.139C434.316 536.477 434.384 536.639 434.519 536.733C435.035 537.503 437.969 537.57 440.128 537.341C438.736 536.51 437.196 535.955 435.592 535.707Z" fill="#860086"/>
<path d="M440.915 537.718H440.793C439.435 537.084 436.719 534.532 436.95 533.236C436.95 532.926 437.222 532.548 437.982 532.494C438.256 532.467 438.532 532.497 438.793 532.58C439.055 532.664 439.297 532.8 439.503 532.98C440.956 534.208 441.214 537.327 441.228 537.475C441.232 537.523 441.223 537.571 441.202 537.614C441.18 537.657 441.147 537.693 441.106 537.718C441.044 537.738 440.977 537.738 440.915 537.718ZM438.199 532.993H438.036C437.548 532.993 437.507 533.223 437.493 533.29C437.412 534.073 439.204 536.058 440.617 536.935C440.507 535.624 439.99 534.378 439.136 533.371C438.883 533.135 438.547 533.005 438.199 533.007V532.993Z" fill="#860086"/>
<path d="M442.165 536.125L454.821 536.341C455.053 536.344 455.277 536.425 455.456 536.573C455.634 536.721 455.755 536.925 455.799 537.151L457.918 547.425C457.961 547.645 457.96 547.871 457.915 548.091C457.871 548.31 457.782 548.519 457.656 548.705C457.53 548.89 457.368 549.049 457.18 549.172C456.992 549.296 456.781 549.381 456.56 549.423C456.438 549.436 456.315 549.436 456.193 549.423C451.644 549.274 447.583 548.95 441.907 548.869C435.198 548.761 436.896 549.585 429.006 549.558C424.253 549.558 423.479 544.158 425.502 543.928C434.737 542.929 435.741 540.189 439.354 536.962C440.154 536.346 441.156 536.048 442.165 536.125Z" fill="#263238"/>
<path d="M422.338 302.913L440.44 523.341H455.514C455.514 523.341 464.3 462.24 458.23 423.819C457.599 419.744 457.517 415.604 457.986 411.507C459.86 394.956 464.45 352.512 463.838 338.162C463.838 338.162 471.511 320.909 465.414 296.919H422.338V302.913Z" fill="#263238"/>
<path d="M457.7 519.21L457.076 523.341L458.447 526.716H439.34L439.843 523.341L438.213 519.21H457.7Z" fill="#263238"/>
<path opacity="0.3" d="M457.7 519.21L457.076 523.341L458.447 526.716H439.34L439.843 523.341L438.213 519.21H457.7Z" fill="white"/>
<path opacity="0.5" d="M457.307 323.595L465.237 334.166C464.872 335.543 464.418 336.896 463.879 338.216C464.26 347.193 462.942 363.433 461.544 377.473C446.157 341.617 450.544 327.699 450.544 327.699L457.307 323.595Z" fill="black"/>
<path d="M378.189 217.215L372.839 208.224L376.166 202.5C376.379 202.128 376.507 201.714 376.542 201.287C376.577 200.86 376.519 200.431 376.37 200.029L376.112 199.381C375.907 198.852 375.549 198.394 375.082 198.067C374.615 197.74 374.062 197.559 373.491 197.545L368.249 197.397C367.718 197.383 367.193 197.516 366.732 197.78C366.272 198.045 365.895 198.431 365.642 198.895L364.569 200.826C364.313 201.291 364.171 201.81 364.154 202.34C364.138 202.87 364.247 203.397 364.474 203.877L366.728 208.723L370.911 219.874L378.189 217.215Z" fill="#B97964"/>
<path d="M420.763 215.635L390.221 237.735L375.867 211.046L367.719 214.555C367.719 214.555 380.281 255.055 387.587 253.368C394.893 251.68 415.548 241.65 422.216 234.643C425.597 231.147 428.164 224.708 424.823 216.743C424.66 216.376 424.417 216.05 424.112 215.789C423.806 215.527 423.446 215.336 423.057 215.23C422.669 215.124 422.261 215.106 421.864 215.176C421.467 215.246 421.091 215.403 420.763 215.635Z" fill="#860086"/>
<path d="M432.184 163.026C432.184 163.026 421.387 165.834 426.385 178.767C426.385 178.767 431.749 177.417 432.632 173.907C433.514 170.397 434.329 165.604 434.329 165.604L432.184 163.026Z" fill="#263238"/>
<path opacity="0.3" d="M432.184 163.026C432.184 163.026 421.387 165.834 426.385 178.767C426.385 178.767 431.749 177.417 432.632 173.907C433.514 170.397 434.329 165.604 434.329 165.604L432.184 163.026Z" fill="black"/>
<path d="M457.66 214.353L437.955 213.719L429.807 214.88L428.707 229.649L444.582 234.9L461.516 231.538L462.399 217.31L461.19 214.475L457.66 214.353Z" fill="#B97964"/>
<path d="M509.848 513.715L517.14 538.582H526.632L524.718 512.973L509.848 513.715Z" fill="#B97964"/>
<path d="M510.608 537.989C509.169 537.989 507.702 537.678 507.267 537.044C507.161 536.858 507.114 536.645 507.133 536.433C507.153 536.22 507.237 536.019 507.376 535.856C507.587 535.545 507.906 535.324 508.272 535.235C510.255 534.735 514.125 537.111 514.302 537.206C514.349 537.237 514.385 537.283 514.404 537.337C514.424 537.39 514.426 537.448 514.41 537.503C514.395 537.556 514.365 537.604 514.325 537.642C514.284 537.68 514.234 537.706 514.18 537.719C512.999 537.91 511.804 538 510.608 537.989ZM508.924 535.707C508.745 535.703 508.567 535.726 508.394 535.775C508.278 535.79 508.167 535.831 508.069 535.894C507.97 535.957 507.887 536.041 507.824 536.139C507.607 536.477 507.661 536.639 507.729 536.733C508.218 537.503 511.138 537.57 513.31 537.341C511.963 536.509 510.463 535.954 508.897 535.707H508.924Z" fill="#860086"/>
<path d="M514.112 537.718H513.989C512.631 537.084 510.038 534.532 510.377 533.236C510.377 532.926 510.69 532.548 511.45 532.494C511.719 532.465 511.992 532.494 512.249 532.578C512.507 532.661 512.744 532.798 512.944 532.98C514.302 534.208 514.438 537.327 514.438 537.475C514.437 537.524 514.424 537.571 514.4 537.614C514.376 537.656 514.343 537.692 514.302 537.718C514.24 537.738 514.173 537.738 514.112 537.718ZM511.599 532.993H511.45C510.948 532.993 510.907 533.223 510.88 533.29C510.757 534.073 512.441 536.058 513.813 536.935C513.778 535.641 513.326 534.391 512.523 533.371C512.272 533.138 511.942 533.008 511.599 533.007V532.993Z" fill="#860086"/>
<path d="M515.442 536.126L528.085 536.342C528.315 536.342 528.537 536.424 528.711 536.572C528.885 536.721 529.001 536.926 529.036 537.152L530.598 547.425C530.661 547.866 530.557 548.315 530.306 548.684C530.055 549.054 529.675 549.317 529.24 549.423C529.122 549.436 529.004 549.436 528.887 549.423C524.324 549.275 520.291 548.951 514.614 548.87C507.919 548.762 509.562 549.585 501.686 549.558C496.933 549.558 496.444 544.158 498.467 543.929C507.756 542.93 508.911 540.189 512.686 536.963C513.481 536.378 514.454 536.082 515.442 536.126Z" fill="#263238"/>
<path d="M439.449 296.919L511.219 523.341H526.361C526.361 523.341 519.123 450.549 505.991 422.091C504.373 418.573 503.346 414.815 502.949 410.967C501.591 396.995 497.952 363.946 493.864 345.748C493.348 343.453 493.035 341.118 492.927 338.769C492.574 330.966 490.618 311.499 480.406 296.919H439.449Z" fill="#263238"/>
<path d="M529.036 519.21L528.194 523.341L529.389 526.716H510.282L509.454 523.341L508.041 519.21H529.036Z" fill="#263238"/>
<path opacity="0.3" d="M529.036 519.21L528.194 523.341L529.389 526.716H510.282L509.454 523.341L508.041 519.21H529.036Z" fill="white"/>
<path d="M460.131 216.796C460.131 216.796 453.816 226.381 443.401 225.909C433.542 225.463 431.844 215.676 431.844 215.676L430.595 230.634L429.359 266.855L430.934 282.218L430.826 299.147C440.098 299.9 449.422 299.751 458.665 298.701C458.665 298.701 460.471 236.601 460.131 236.938C459.792 237.276 463.078 226.138 463.078 226.138V221.63L460.131 216.796Z" fill="#860086"/>
<path opacity="0.6" d="M460.131 216.796C460.131 216.796 453.816 226.381 443.401 225.909C433.542 225.463 431.844 215.676 431.844 215.676L430.595 230.634L429.359 266.855L430.934 282.218L430.826 299.147C440.098 299.9 449.422 299.751 458.665 298.701C458.665 298.701 460.471 236.601 460.131 236.938C459.792 237.276 463.078 226.138 463.078 226.138V221.63L460.131 216.796Z" fill="white"/>
<path d="M450.096 213.205C450.096 213.205 482.688 211.208 484.046 220.982C485.404 230.756 475.898 250.776 477.473 264.492C479.048 278.208 486.762 298.796 486.762 298.796C486.762 298.796 462.087 315.117 453.491 309.717C444.894 304.317 447.176 242.446 447.176 242.446C447.176 242.446 465.482 216.567 455.188 215.217C444.894 213.867 433.121 212.787 434.017 220.982C435.027 227.985 436.438 234.927 438.24 241.771C438.24 241.771 437.48 310.405 430.174 309.501C422.868 308.596 419.174 300.726 419.174 300.726C420.737 292.387 420.737 283.833 419.174 275.495C416.594 261.347 411.868 250.223 414.434 239.045C417.001 227.867 419.174 213.584 424.606 213.395C429.237 213.071 450.096 213.205 450.096 213.205Z" fill="#860086"/>
<path opacity="0.2" d="M450.096 213.205C450.096 213.205 482.688 211.208 484.046 220.982C485.404 230.756 475.898 250.776 477.473 264.492C479.048 278.208 486.762 298.796 486.762 298.796C486.762 298.796 462.087 315.117 453.491 309.717C444.894 304.317 447.176 242.446 447.176 242.446C447.176 242.446 465.482 216.567 455.188 215.217C444.894 213.867 433.121 212.787 434.017 220.982C435.027 227.985 436.438 234.927 438.24 241.771C438.24 241.771 437.48 310.405 430.174 309.501C422.868 308.596 419.174 300.726 419.174 300.726C420.737 292.387 420.737 283.833 419.174 275.495C416.594 261.347 411.868 250.223 414.434 239.045C417.001 227.867 419.174 213.584 424.606 213.395C429.237 213.071 450.096 213.205 450.096 213.205Z" fill="black"/>
<path d="M436.325 213.152C443.115 213.152 450.096 213.152 450.096 213.152C450.096 213.152 454.265 212.895 459.669 213.016C461.815 214.488 464.667 217.877 462.385 225.072L457.646 226.922L458.502 231.538C458.502 231.538 453.07 240.098 447.081 243.338C447.081 242.771 447.081 242.447 447.081 242.447C447.081 242.447 465.387 216.567 455.093 215.217C444.799 213.867 433.025 212.787 433.922 220.982C434.932 227.985 436.343 234.927 438.145 241.772V242.149C435.239 239.584 432.713 235.022 430.975 229.622L432.903 224.302L428.639 221.967C428.998 219.944 429.903 218.055 431.256 216.503C432.61 214.95 434.362 213.792 436.325 213.152Z" fill="#860086"/>
<path opacity="0.2" d="M436.325 213.152C443.115 213.152 450.096 213.152 450.096 213.152C450.096 213.152 454.265 212.895 459.669 213.016C461.815 214.488 464.667 217.877 462.385 225.072L457.646 226.922L458.502 231.538C458.502 231.538 453.07 240.098 447.081 243.338C447.081 242.771 447.081 242.447 447.081 242.447C447.081 242.447 465.387 216.567 455.093 215.217C444.799 213.867 433.025 212.787 433.922 220.982C434.932 227.985 436.343 234.927 438.145 241.772V242.149C435.239 239.584 432.713 235.022 430.975 229.622L432.903 224.302L428.639 221.967C428.998 219.944 429.903 218.055 431.256 216.503C432.61 214.95 434.362 213.792 436.325 213.152Z" fill="white"/>
<path d="M438.2 224.1C433.854 219.55 436.529 216.27 436.529 216.27C444.27 213.651 443.564 207.873 441.785 202.513L454.265 189.851C453.518 196.601 453.246 212.099 457.687 217.498V218.7C453.669 220.261 449.75 222.064 445.954 224.1H438.2Z" fill="#B97964"/>
<path opacity="0.1" d="M441.785 202.5L451.698 192.443L453.993 193.266C453.912 194.481 453.871 195.804 453.844 197.195C452.594 199.746 449.58 203.337 442.531 205.146C442.328 204.242 442.07 203.351 441.785 202.5Z" fill="black"/>
<path d="M460.62 178.646C457.592 190.121 456.546 195.035 449.498 199.84C438.851 207.063 425.353 200.88 424.85 188.743C424.402 177.822 429.4 160.907 441.744 158.531C444.461 158 447.27 158.166 449.905 159.014C452.539 159.861 454.913 161.363 456.802 163.376C458.691 165.389 460.033 167.847 460.701 170.519C461.369 173.191 461.341 175.988 460.62 178.646Z" fill="#B97964"/>
<path d="M433.202 181.602C431.931 183.601 430.391 185.418 428.626 187.002C429.031 187.454 429.533 187.81 430.094 188.043C430.656 188.277 431.263 188.382 431.871 188.352L433.202 181.602Z" fill="#A24E3F"/>
<path d="M445.506 177.376C445.586 177.373 445.665 177.349 445.734 177.306C445.803 177.264 445.86 177.205 445.899 177.135C445.939 177.064 445.959 176.985 445.959 176.905C445.959 176.824 445.939 176.745 445.899 176.674C445.453 175.919 444.832 175.281 444.088 174.811C443.344 174.342 442.499 174.055 441.622 173.974C441.497 173.974 441.376 174.022 441.285 174.107C441.194 174.193 441.14 174.309 441.133 174.434C441.129 174.557 441.174 174.676 441.257 174.767C441.341 174.858 441.457 174.913 441.581 174.92C442.31 174.998 443.009 175.249 443.621 175.65C444.233 176.052 444.739 176.593 445.098 177.228C445.149 177.283 445.213 177.325 445.284 177.351C445.355 177.377 445.431 177.386 445.506 177.376Z" fill="#263238"/>
<path d="M426.412 173.907C426.488 173.926 426.567 173.926 426.643 173.907C427.269 173.536 427.974 173.318 428.702 173.271C429.429 173.224 430.157 173.35 430.826 173.637C430.936 173.695 431.064 173.708 431.184 173.672C431.303 173.637 431.404 173.556 431.464 173.448C431.516 173.335 431.523 173.206 431.483 173.088C431.442 172.969 431.358 172.871 431.247 172.813C430.436 172.455 429.551 172.294 428.666 172.343C427.78 172.392 426.919 172.651 426.154 173.097C426.043 173.155 425.959 173.254 425.921 173.372C425.882 173.491 425.893 173.62 425.95 173.731C425.992 173.813 426.057 173.88 426.136 173.926C426.216 173.971 426.307 173.993 426.398 173.988L426.412 173.907Z" fill="#263238"/>
<path d="M436.706 191.43C436.151 191.432 435.596 191.387 435.049 191.295C434.974 191.279 434.909 191.235 434.866 191.172C434.823 191.109 434.806 191.032 434.818 190.957C434.823 190.92 434.835 190.884 434.855 190.852C434.874 190.819 434.899 190.791 434.93 190.768C434.96 190.745 434.995 190.729 435.031 190.72C435.068 190.711 435.106 190.709 435.144 190.715C436.346 190.942 437.584 190.89 438.762 190.562C439.94 190.235 441.026 189.64 441.934 188.824C441.989 188.783 442.058 188.762 442.127 188.766C442.196 188.769 442.262 188.796 442.313 188.842C442.365 188.889 442.398 188.951 442.408 189.019C442.418 189.088 442.404 189.157 442.369 189.216C440.839 190.653 438.81 191.447 436.706 191.43Z" fill="#263238"/>
<path d="M456.736 187.65C455.34 186.075 454.304 184.218 453.699 182.207C453.094 180.195 452.935 178.078 453.233 175.999C453.233 175.999 448.588 171.274 448.819 166.212C448.819 166.212 447.461 170.262 448.819 173.124C448.819 173.124 436.774 172.247 437.059 166.212C437.059 166.212 436.271 169.249 438.077 170.829C438.077 170.829 427.376 171.274 428.816 165.766C430.255 160.258 438.661 157.545 438.661 157.545C438.661 157.545 446.646 150.795 457.673 162.729C457.673 162.729 470.683 170.829 461.462 184.329L456.736 187.65Z" fill="#263238"/>
<path d="M461.557 188.366C461.027 189.371 460.301 190.262 459.422 190.987C458.544 191.712 457.529 192.258 456.437 192.591C453.518 193.469 451.997 190.89 452.757 188.109C453.436 185.612 455.786 182.142 458.76 182.48C459.404 182.568 460.015 182.815 460.539 183.197C461.063 183.579 461.483 184.086 461.76 184.67C462.038 185.254 462.165 185.898 462.129 186.543C462.094 187.189 461.897 187.815 461.557 188.366Z" fill="#B97964"/>
<path d="M441.866 179.968C441.771 180.954 441.16 181.697 440.508 181.643C439.856 181.589 439.422 180.725 439.53 179.726C439.639 178.727 440.25 177.984 440.888 178.052C441.527 178.119 441.975 178.969 441.866 179.968Z" fill="#2E353A"/>
<path d="M430.595 178.794C430.5 179.779 429.888 180.522 429.237 180.468C428.585 180.414 428.137 179.55 428.245 178.551C428.354 177.552 428.965 176.81 429.603 176.877C430.242 176.945 430.717 177.795 430.595 178.794Z" fill="#2E353A"/>
<path d="M429.889 176.958L427.566 176.027C427.566 176.027 428.598 178.011 429.889 176.958Z" fill="#2E353A"/>
<path d="M441.16 178.2L438.838 177.268C438.838 177.268 439.883 179.185 441.16 178.2Z" fill="#2E353A"/>
<path d="M455.731 197.964C456.48 197.963 457.212 197.746 457.838 197.339C458.464 196.932 458.958 196.353 459.259 195.671C459.56 194.99 459.655 194.237 459.532 193.503C459.41 192.769 459.075 192.086 458.569 191.538L458.067 191.984C458.563 192.516 458.859 193.201 458.907 193.925C458.954 194.649 458.749 195.367 458.327 195.959C457.904 196.55 457.29 196.979 456.586 197.174C455.883 197.368 455.134 197.316 454.465 197.026C453.796 196.736 453.248 196.226 452.913 195.581C452.578 194.937 452.476 194.197 452.624 193.487C452.773 192.777 453.163 192.139 453.729 191.681C454.294 191.223 455.001 190.972 455.731 190.971C456.199 190.955 456.664 191.047 457.089 191.241L457.374 190.62C456.877 190.405 456.341 190.295 455.799 190.296C454.776 190.296 453.795 190.7 453.072 191.419C452.349 192.138 451.942 193.113 451.942 194.13C451.942 195.147 452.349 196.122 453.072 196.841C453.795 197.56 454.776 197.964 455.799 197.964H455.731Z" fill="#860086"/>
<g opacity="0.6">
<path d="M455.731 197.964C456.48 197.963 457.212 197.746 457.838 197.339C458.464 196.932 458.958 196.353 459.259 195.671C459.56 194.99 459.655 194.237 459.532 193.503C459.41 192.769 459.075 192.086 458.569 191.538L458.067 191.984C458.563 192.516 458.859 193.201 458.907 193.925C458.954 194.649 458.749 195.367 458.327 195.959C457.904 196.55 457.29 196.979 456.586 197.174C455.883 197.368 455.134 197.316 454.465 197.026C453.796 196.736 453.248 196.226 452.913 195.581C452.578 194.937 452.476 194.197 452.624 193.487C452.773 192.777 453.163 192.139 453.729 191.681C454.294 191.223 455.001 190.972 455.731 190.971C456.199 190.955 456.664 191.047 457.089 191.241L457.374 190.62C456.877 190.405 456.341 190.295 455.799 190.296C454.776 190.296 453.795 190.7 453.072 191.419C452.349 192.138 451.942 193.113 451.942 194.13C451.942 195.147 452.349 196.122 453.072 196.841C453.795 197.56 454.776 197.964 455.799 197.964H455.731Z" fill="white"/>
</g>
<path d="M414.19 282.218L403.163 288.279L391.498 286.848C391.069 286.789 390.634 286.89 390.276 287.132L385.889 290.034C385.657 290.182 385.462 290.38 385.319 290.615L384.056 292.761C383.906 293.02 383.822 293.312 383.813 293.611C383.804 293.91 383.87 294.207 384.005 294.474C384.139 294.742 384.338 294.972 384.584 295.144C384.83 295.316 385.115 295.425 385.414 295.461C388.717 296.175 392.066 296.662 395.436 296.919C398.382 296.504 401.295 295.886 404.154 295.07L419.622 289.562L414.19 282.218Z" fill="#B97964"/>
<path d="M480.053 218.282C473.725 214.232 466.229 223.681 460.077 236.83L448.507 261.63L405.132 286.443L408.106 294.354C408.106 294.354 449.838 282.717 460.023 270.23C470.208 257.742 488.717 223.884 480.053 218.282Z" fill="#860086"/>
<path d="M299.154 291.033H389.746C391.544 290.996 393.266 290.308 394.589 289.097C395.912 287.886 396.745 286.237 396.93 284.459L403.53 209.493C403.62 208.657 403.531 207.811 403.268 207.012C403.005 206.212 402.574 205.477 402.004 204.856C401.434 204.234 400.738 203.74 399.962 203.406C399.185 203.072 398.346 202.906 397.5 202.918H306.908C305.108 202.949 303.383 203.636 302.058 204.848C300.734 206.06 299.904 207.713 299.724 209.493L293.124 284.459C293.032 285.295 293.119 286.142 293.381 286.942C293.644 287.743 294.074 288.478 294.645 289.1C295.215 289.722 295.912 290.216 296.69 290.55C297.467 290.883 298.307 291.048 299.154 291.033Z" fill="#860086"/>
<g opacity="0.4">
<path d="M299.154 291.033H389.746C391.544 290.996 393.266 290.308 394.589 289.097C395.912 287.886 396.745 286.237 396.93 284.459L403.53 209.493C403.62 208.657 403.531 207.811 403.268 207.012C403.005 206.212 402.574 205.477 402.004 204.856C401.434 204.234 400.738 203.74 399.962 203.406C399.185 203.072 398.346 202.906 397.5 202.918H306.908C305.108 202.949 303.383 203.636 302.058 204.848C300.734 206.06 299.904 207.713 299.724 209.493L293.124 284.459C293.032 285.295 293.119 286.142 293.381 286.942C293.644 287.743 294.074 288.478 294.645 289.1C295.215 289.722 295.912 290.216 296.69 290.55C297.467 290.883 298.307 291.048 299.154 291.033Z" fill="white"/>
</g>
<path d="M306.392 206.874C305.712 206.871 305.056 207.122 304.553 207.577C304.05 208.032 303.737 208.658 303.676 209.331L297.049 284.62C297.016 284.933 297.051 285.249 297.149 285.547C297.248 285.845 297.409 286.119 297.622 286.351C297.835 286.583 298.095 286.768 298.385 286.893C298.674 287.018 298.987 287.081 299.303 287.077H390.289C390.969 287.08 391.625 286.829 392.128 286.374C392.631 285.92 392.944 285.294 393.005 284.62L399.632 209.331C399.667 209.018 399.634 208.702 399.536 208.402C399.438 208.103 399.277 207.828 399.064 207.596C398.851 207.363 398.59 207.179 398.299 207.054C398.009 206.93 397.695 206.868 397.378 206.874H306.392Z" fill="#860086"/>
<path opacity="0.8" d="M306.392 206.874C305.712 206.871 305.056 207.122 304.553 207.577C304.05 208.032 303.737 208.658 303.676 209.331L297.049 284.62C297.016 284.933 297.051 285.249 297.149 285.547C297.248 285.845 297.409 286.119 297.622 286.351C297.835 286.583 298.095 286.768 298.385 286.893C298.674 287.018 298.987 287.081 299.303 287.077H390.289C390.969 287.08 391.625 286.829 392.128 286.374C392.631 285.92 392.944 285.294 393.005 284.62L399.632 209.331C399.667 209.018 399.634 208.702 399.536 208.402C399.438 208.103 399.277 207.828 399.064 207.596C398.851 207.363 398.59 207.179 398.299 207.054C398.009 206.93 397.695 206.868 397.378 206.874H306.392Z" fill="white"/>
<path d="M325.648 244.512L297.239 282.865L297.076 284.621C297.044 284.933 297.078 285.249 297.177 285.547C297.275 285.845 297.436 286.119 297.649 286.351C297.862 286.583 298.122 286.768 298.412 286.893C298.701 287.018 299.015 287.081 299.33 287.077H349.685L325.648 244.512Z" fill="#860086"/>
<path d="M393.657 276.75L371.766 232.2L335.1 287.145H390.235C390.915 287.148 391.571 286.897 392.074 286.442C392.577 285.987 392.89 285.361 392.951 284.688L393.657 276.75Z" fill="#860086"/>
<path opacity="0.2" d="M393.657 276.75L371.766 232.2L335.1 287.145H390.235C390.915 287.148 391.571 286.897 392.074 286.442C392.577 285.987 392.89 285.361 392.951 284.688L393.657 276.75Z" fill="white"/>
<path d="M356.679 225.706C356.5 227.447 355.685 229.063 354.389 230.247C353.092 231.431 351.404 232.102 349.644 232.132C348.816 232.147 347.995 231.986 347.234 231.66C346.473 231.335 345.791 230.852 345.232 230.244C344.674 229.637 344.251 228.918 343.994 228.135C343.736 227.353 343.648 226.525 343.737 225.706C343.916 223.965 344.731 222.35 346.027 221.166C347.323 219.982 349.011 219.311 350.771 219.28C351.599 219.266 352.421 219.427 353.182 219.753C353.942 220.078 354.625 220.561 355.183 221.169C355.742 221.776 356.164 222.495 356.422 223.278C356.68 224.06 356.767 224.888 356.679 225.706Z" fill="#860086"/>
</svg>
