<svg width="207" height="207" viewBox="0 0 207 207" fill="none" xmlns="http://www.w3.org/2000/svg">
<path d="M110.952 146.022C115.449 146.022 119.095 142.376 119.095 137.878C119.095 133.381 115.449 129.735 110.952 129.735C106.455 129.735 102.809 133.381 102.809 137.878C102.809 142.376 106.455 146.022 110.952 146.022Z" fill="#EBEBEB"/>
<path d="M113.916 133.047C113.936 133.438 113.83 133.826 113.614 134.153C113.395 134.489 113.089 134.759 112.728 134.935C112.357 135.122 111.928 135.158 111.532 135.034C111.154 134.917 110.831 134.669 110.621 134.335C110.912 134.543 111.246 134.685 111.598 134.749C111.763 134.78 111.933 134.78 112.099 134.749C112.264 134.725 112.423 134.673 112.571 134.595C112.649 134.558 112.724 134.517 112.798 134.475C112.873 134.434 112.948 134.38 113.014 134.326C113.151 134.221 113.277 134.102 113.391 133.97C113.623 133.699 113.801 133.385 113.916 133.047Z" fill="#C7C7C7"/>
<path d="M110.985 133.515C110.95 133.244 111.01 132.969 111.155 132.737C111.303 132.496 111.515 132.303 111.768 132.178C112.033 132.046 112.339 132.024 112.62 132.116C112.882 132.206 113.1 132.392 113.229 132.637C113.023 132.51 112.793 132.424 112.554 132.385C112.338 132.361 112.12 132.4 111.925 132.496C111.497 132.709 111.163 133.072 110.985 133.515Z" fill="#C7C7C7"/>
<path d="M110.952 141.704C111.052 141.952 111.059 142.229 110.973 142.482C110.884 142.744 110.72 142.973 110.501 143.14C110.388 143.228 110.259 143.293 110.121 143.33C109.983 143.367 109.839 143.376 109.698 143.356C109.432 143.321 109.188 143.188 109.015 142.983C109.239 143.057 109.474 143.09 109.71 143.078C109.919 143.064 110.12 142.987 110.286 142.859C110.455 142.725 110.595 142.559 110.7 142.37C110.823 142.165 110.908 141.939 110.952 141.704Z" fill="#C7C7C7"/>
<path d="M109.263 142.631C109.218 142.548 109.19 142.457 109.181 142.364C109.172 142.27 109.181 142.175 109.209 142.085C109.264 141.895 109.378 141.728 109.536 141.609C109.618 141.545 109.712 141.498 109.812 141.473C109.913 141.447 110.018 141.443 110.12 141.46C110.213 141.477 110.301 141.512 110.38 141.564C110.459 141.616 110.527 141.683 110.579 141.762C110.423 141.731 110.262 141.724 110.103 141.741C109.975 141.758 109.853 141.809 109.751 141.89C109.513 142.078 109.341 142.338 109.263 142.631Z" fill="#C7C7C7"/>
<path d="M108.017 134.38C108.089 134.447 108.146 134.528 108.186 134.617C108.226 134.707 108.247 134.804 108.249 134.902C108.25 135.008 108.23 135.114 108.19 135.213C108.151 135.312 108.092 135.401 108.017 135.477C107.94 135.555 107.846 135.614 107.743 135.65C107.639 135.685 107.529 135.695 107.421 135.68C107.226 135.662 107.044 135.575 106.907 135.436C107.078 135.441 107.248 135.43 107.416 135.403C107.547 135.382 107.669 135.321 107.764 135.229C107.862 135.129 107.933 135.007 107.971 134.873C108.013 134.712 108.029 134.546 108.017 134.38Z" fill="#C7C7C7"/>
<path d="M107.007 135.171C106.948 135.13 106.899 135.077 106.863 135.014C106.828 134.952 106.808 134.882 106.804 134.811C106.801 134.734 106.814 134.658 106.841 134.587C106.869 134.516 106.911 134.451 106.965 134.397C107.022 134.339 107.092 134.296 107.169 134.271C107.247 134.247 107.329 134.242 107.408 134.256C107.478 134.266 107.545 134.289 107.606 134.325C107.666 134.362 107.719 134.41 107.76 134.467C107.644 134.481 107.529 134.503 107.417 134.533C107.341 134.552 107.272 134.593 107.218 134.649C107.158 134.708 107.111 134.778 107.081 134.856C107.042 134.957 107.017 135.063 107.007 135.171Z" fill="#C7C7C7"/>
<path d="M113.676 142.962C113.629 143.049 113.565 143.124 113.487 143.185C113.409 143.246 113.32 143.29 113.225 143.314C113.123 143.345 113.015 143.355 112.909 143.343C112.803 143.331 112.701 143.297 112.608 143.244C112.514 143.189 112.433 143.113 112.373 143.022C112.313 142.93 112.274 142.827 112.26 142.718C112.235 142.524 112.276 142.327 112.376 142.159C112.411 142.326 112.463 142.488 112.534 142.644C112.583 142.767 112.672 142.87 112.786 142.938C112.905 143.01 113.041 143.05 113.179 143.053C113.349 143.052 113.517 143.021 113.676 142.962Z" fill="#C7C7C7"/>
<path d="M112.662 142.18C112.686 142.113 112.726 142.052 112.777 142.002C112.829 141.953 112.892 141.916 112.96 141.894C113.035 141.87 113.114 141.861 113.193 141.87C113.272 141.879 113.347 141.904 113.415 141.944C113.488 141.987 113.548 142.047 113.592 142.12C113.635 142.192 113.66 142.274 113.664 142.358C113.671 142.428 113.664 142.499 113.643 142.567C113.623 142.634 113.589 142.697 113.544 142.751C113.499 142.643 113.45 142.536 113.395 142.433C113.356 142.364 113.301 142.307 113.233 142.267C113.161 142.226 113.083 142.198 113.001 142.184C112.889 142.167 112.775 142.166 112.662 142.18Z" fill="#C7C7C7"/>
<path d="M116.467 137.233C116.483 137.431 116.42 137.627 116.293 137.779C116.151 137.94 115.952 138.039 115.738 138.057C115.629 138.063 115.519 138.044 115.418 138.001C115.317 137.959 115.227 137.894 115.154 137.812C115.024 137.667 114.946 137.482 114.935 137.286C115.062 137.404 115.2 137.508 115.349 137.597C115.46 137.67 115.592 137.706 115.726 137.7C115.864 137.691 115.998 137.647 116.115 137.572C116.249 137.479 116.368 137.364 116.467 137.233Z" fill="#C7C7C7"/>
<path d="M115.187 137.154C115.167 137.083 115.165 137.009 115.18 136.936C115.195 136.864 115.227 136.797 115.274 136.74C115.324 136.677 115.386 136.625 115.458 136.588C115.529 136.552 115.608 136.532 115.688 136.529C115.767 136.526 115.846 136.541 115.918 136.574C115.99 136.608 116.053 136.657 116.102 136.719C116.148 136.773 116.182 136.835 116.202 136.902C116.223 136.969 116.23 137.039 116.222 137.109C116.127 137.041 116.026 136.981 115.92 136.931C115.851 136.895 115.774 136.879 115.697 136.885C115.613 136.889 115.531 136.91 115.457 136.947C115.358 137.005 115.268 137.074 115.187 137.154Z" fill="#C7C7C7"/>
<path d="M105.678 139.079C105.687 139.177 105.676 139.275 105.646 139.368C105.616 139.461 105.568 139.547 105.504 139.621C105.435 139.703 105.35 139.769 105.255 139.817C105.16 139.864 105.056 139.892 104.949 139.899C104.84 139.906 104.73 139.887 104.629 139.845C104.527 139.803 104.437 139.738 104.365 139.655C104.236 139.51 104.159 139.326 104.146 139.133C104.274 139.249 104.412 139.353 104.56 139.443C104.672 139.516 104.804 139.55 104.937 139.543C105.075 139.535 105.209 139.492 105.326 139.419C105.461 139.325 105.579 139.21 105.678 139.079Z" fill="#C7C7C7"/>
<path d="M104.398 138.996C104.379 138.925 104.377 138.851 104.392 138.779C104.407 138.707 104.439 138.639 104.485 138.582C104.535 138.52 104.598 138.468 104.67 138.432C104.741 138.396 104.819 138.375 104.899 138.371C104.978 138.368 105.057 138.383 105.129 138.415C105.2 138.447 105.264 138.496 105.313 138.557C105.358 138.611 105.392 138.673 105.413 138.74C105.433 138.807 105.44 138.877 105.433 138.947C105.337 138.882 105.236 138.823 105.131 138.773C105.063 138.735 104.985 138.718 104.908 138.723C104.826 138.728 104.746 138.75 104.672 138.785C104.571 138.842 104.479 138.913 104.398 138.996Z" fill="#C7C7C7"/>
<g opacity="0.4">
<path d="M20.046 107.607C20.0326 110.749 20.6331 113.864 21.8137 116.777C23.0102 119.646 24.9022 122.188 27.3531 123.786C27.9508 124.182 28.5826 124.524 29.2409 124.809C29.8879 125.076 30.5588 125.281 31.2447 125.421C32.5812 125.697 33.958 125.717 35.3019 125.479C37.968 125.02 40.4272 123.699 42.6048 121.96C42.7373 121.848 42.8863 121.737 43.0188 121.633L43.3252 121.339C43.5239 121.132 43.7392 120.925 43.9131 120.706C44.3105 120.253 44.6718 119.77 44.9936 119.261C45.698 118.16 46.3008 116.997 46.7945 115.787C47.8688 113.118 48.7501 110.374 49.4317 107.578C50.9097 101.782 52.0854 95.6422 53.4847 89.4074C53.8325 87.8452 54.2037 86.2775 54.5984 84.7043C54.9793 83.127 55.4016 81.5455 55.8404 79.9516C56.7326 76.6365 57.8787 73.395 59.2683 70.2557C59.6492 69.4277 60.0673 68.5997 60.5641 67.7428C60.8084 67.3288 61.0858 66.8858 61.3921 66.4635C61.6985 66.0412 61.9966 65.6355 62.3236 65.267C63.576 63.8102 65.0267 62.5364 66.6334 61.4831C69.6721 59.4421 72.7937 58.1711 75.7911 56.8794C78.7884 55.5877 81.7444 54.3954 84.5389 52.9671C87.3055 51.579 89.9066 49.8833 92.2931 47.9122C94.602 45.9774 96.5708 43.6699 98.1181 41.0853C99.6416 38.5226 100.751 35.7281 101.07 33.0082C101.244 31.7113 101.226 30.3958 101.016 29.1041C100.817 27.9493 100.395 26.8442 99.7741 25.8501C99.2184 24.9714 98.4875 24.2168 97.627 23.6334C96.7665 23.05 95.7949 22.6504 94.773 22.4594C93.7299 22.2557 92.6617 22.2138 91.6059 22.3352C90.4723 22.4756 89.3601 22.7537 88.2939 23.1632C88.0165 23.2667 87.7432 23.3827 87.4659 23.4986L86.4888 23.9126C85.843 24.2024 85.2013 24.5046 84.5761 24.8275C83.3341 25.4692 82.0921 26.1606 80.8874 26.9348C78.4738 28.4624 76.1016 30.313 73.4602 32.3168C70.6907 34.4479 67.7682 36.3727 64.7166 38.0755C61.5354 39.7752 58.1984 41.1657 54.7516 42.2279C54.3376 42.3687 53.8987 42.4805 53.4723 42.6047L52.3255 42.9317C51.6921 43.118 51.0504 43.3209 50.4129 43.5403C49.1419 43.9874 47.8833 44.4967 46.6579 45.0638C41.7603 47.3491 37.4795 50.5535 34.4325 54.7183C32.8564 56.8419 31.5532 59.1549 30.5533 61.6031C30.0153 62.8836 29.5604 64.1973 29.1912 65.5361C28.7941 66.9229 28.4708 68.3297 28.2225 69.7507C27.9741 71.1955 27.7795 72.6776 27.6594 74.1846C27.5973 74.8925 27.5518 75.8158 27.4938 76.6686C27.4359 77.5214 27.3489 78.3701 27.2496 79.2147C26.8538 82.5543 26.2243 85.8619 25.3659 89.1134C24.5379 92.3302 23.5111 95.4435 22.4679 98.503C21.9421 100.035 21.4163 101.554 20.9485 103.057C20.4447 104.526 20.1411 106.057 20.046 107.607ZM18.804 107.607C18.8083 106.76 18.8943 105.916 19.0606 105.086C19.2055 104.258 19.396 103.475 19.5823 102.688C19.9549 101.111 20.3565 99.5545 20.6877 97.9896C21.0189 96.4247 21.3128 94.8639 21.5157 93.2948C21.7185 91.7258 21.851 90.1526 21.9297 88.5835C22.0418 85.4733 21.8421 82.3596 21.3335 79.2892C21.2176 78.5275 21.0685 77.774 20.9195 77.0246C20.7705 76.2753 20.5924 75.5798 20.4186 74.6897C20.0647 72.9748 19.8063 71.2416 19.6444 69.4981C19.293 65.8744 19.4617 62.219 20.1453 58.643C20.8728 54.9054 22.2337 51.3196 24.1694 48.0405C26.1524 44.7516 28.6343 41.7907 31.5262 39.2637C34.3612 36.7812 37.5181 34.6923 40.9116 33.0537C42.5812 32.2353 44.3014 31.5246 46.0617 30.9257C46.9394 30.6152 47.8336 30.3461 48.7444 30.0977L50.9552 29.5057C53.6696 28.7654 56.3163 27.7959 58.8667 26.6077C61.5129 25.3449 64.068 23.8993 66.5133 22.2814C69.1422 20.6254 71.9864 18.692 75.1411 17.0153C76.7237 16.164 78.3502 15.397 80.0139 14.7176C80.8419 14.374 81.6699 14.0635 82.5393 13.7654L83.8144 13.3514C84.2988 13.2065 84.7873 13.0658 85.2799 12.9374C87.2998 12.4242 89.3822 12.1998 91.4651 12.2709C93.6274 12.3395 95.7612 12.785 97.7703 13.5874C99.8211 14.4124 101.684 15.6431 103.248 17.2058C104.792 18.7471 105.988 20.6003 106.758 22.6416C107.482 24.572 107.837 26.6207 107.806 28.6819C107.784 30.6017 107.483 32.5082 106.911 34.3412C105.804 37.7232 104.116 40.8865 101.923 43.6894C100.882 45.0565 99.7489 46.3512 98.5321 47.5644C97.322 48.7558 96.0433 49.8755 94.7026 50.9178C89.3661 55.0578 83.3052 57.8068 77.8279 61.007C75.0955 62.5885 72.4915 64.319 70.5167 66.3145C69.5912 67.2456 68.8048 68.3053 68.1817 69.4609C68.041 69.7369 67.9126 70.0129 67.7967 70.2889C67.6849 70.558 67.5814 70.8312 67.4779 71.1169C67.2751 71.713 67.0888 72.3589 66.919 73.0461C66.5837 74.4082 66.3229 75.8779 66.091 77.3765C65.8592 78.8752 65.6522 80.4112 65.4411 81.9595L64.8283 86.6543C64.6213 88.2316 64.4143 89.8214 64.1659 91.4194C63.1889 97.795 61.9469 104.299 59.6119 110.774C58.4361 114.139 56.8657 117.354 54.9337 120.35C54.408 121.12 53.8615 121.882 53.2529 122.627C52.6432 123.39 51.982 124.111 51.274 124.784C50.5443 125.488 49.7608 126.134 48.9307 126.717C48.5071 127.017 48.0676 127.293 47.6142 127.545L46.9187 127.918C46.6951 128.034 46.5047 128.116 46.2853 128.216C44.6045 128.996 42.8445 129.593 41.0358 129.996C39.1955 130.403 37.3061 130.542 35.4261 130.41C33.5565 130.277 31.7243 129.82 30.0109 129.06C29.1741 128.689 28.3731 128.241 27.618 127.723C26.8831 127.221 26.1907 126.658 25.548 126.042C23.1168 123.62 21.3232 120.633 20.3275 117.348C19.3468 114.204 18.8335 110.933 18.804 107.64V107.607Z" fill="#EBEBEB"/>
<path d="M72.1686 121.455C73.8815 118.187 75.1552 114.707 75.9567 111.105C76.8219 107.516 77.3726 103.852 77.9108 100.147C78.1964 98.296 78.4531 96.4206 78.7926 94.5451C79.1097 92.6162 79.5382 90.7072 80.076 88.8278C80.6466 86.8019 81.4671 84.855 82.5186 83.0318C83.7351 80.9531 85.405 79.1757 87.4038 77.832C87.9378 77.4801 88.5133 77.1861 89.0598 76.8715C89.6063 76.5568 90.2438 76.3581 90.8483 76.1221C91.4527 75.8862 92.0903 75.7495 92.6947 75.5922C93.2991 75.4349 93.9367 75.3645 94.5536 75.261C96.9316 74.945 99.3429 74.9771 101.712 75.3562C104.035 75.7264 106.304 76.3798 108.468 77.302C110.495 78.1783 112.446 79.221 114.301 80.4195C117.67 82.6503 120.871 85.1229 123.881 87.8176L128.121 91.5436C128.812 92.1522 129.512 92.7318 130.191 93.3156L131.222 94.1808L132.252 95.0088C133.592 96.0816 134.985 97.0861 136.426 98.0186C137.787 98.9087 139.222 99.6816 140.715 100.329C142.301 100.976 143.941 101.483 145.616 101.844C147.363 102.258 149.185 102.564 151.052 102.838C154.778 103.388 158.67 103.736 162.607 104.191L165.567 104.56C166.565 104.705 167.554 104.854 168.556 105.036C170.589 105.376 172.593 105.872 174.551 106.518C176.599 107.18 178.527 108.165 180.264 109.437C182.019 110.753 183.452 112.452 184.454 114.405C184.932 115.348 185.318 116.335 185.605 117.352L185.977 118.855C186.081 119.352 186.147 119.832 186.234 120.325C186.526 122.294 186.638 124.285 186.569 126.274C186.469 128.277 186.175 130.265 185.692 132.211C185.559 132.695 185.46 133.192 185.302 133.668L184.839 135.105C184.483 136.044 184.122 136.988 183.696 137.899C181.988 141.571 179.743 144.969 177.035 147.98C175.702 149.5 174.281 150.941 172.779 152.294C171.297 153.673 169.715 154.927 168.109 156.148C167.281 156.736 166.486 157.353 165.646 157.908L164.404 158.761L163.133 159.589C161.424 160.66 159.68 161.667 157.9 162.611C157.01 163.079 156.111 163.53 155.213 163.985C154.314 164.441 153.395 164.846 152.48 165.256C151.566 165.666 150.646 166.084 149.715 166.453C148.783 166.821 147.86 167.215 146.916 167.558L141.534 169.57C140.657 169.897 139.795 170.249 138.93 170.589L137.63 171.102L136.343 171.636C129.511 174.459 122.858 177.697 116.421 181.332C113.188 183.158 109.983 185.058 106.506 186.979C104.771 187.952 102.933 188.896 100.921 189.794C98.7891 190.755 96.5712 191.512 94.2969 192.055C91.8555 192.624 89.3508 192.876 86.8449 192.804C84.4614 192.731 82.0925 192.405 79.7779 191.831C78.6518 191.587 77.6044 191.26 76.5404 190.949C76.0147 190.784 75.5096 190.601 74.9962 190.432C74.4828 190.262 73.9778 190.088 73.4478 189.869L71.8829 189.239L71.1046 188.916L70.3304 188.54C69.2834 188.054 68.2647 187.509 67.2792 186.909C66.7824 186.602 66.2856 186.304 65.793 185.985L64.3606 184.93L63.6567 184.396C63.4208 184.213 63.2055 184.002 62.9778 183.804L61.653 182.595C61.239 182.181 60.825 181.7 60.4358 181.257L59.8397 180.578C59.6492 180.347 59.4795 180.098 59.2973 179.854C58.9454 179.365 58.5894 178.881 58.2499 178.388C57.9104 177.896 57.6496 177.353 57.3598 176.832C56.2694 174.788 55.4947 172.591 55.0621 170.315L54.8924 169.487C54.8468 169.21 54.8178 168.937 54.7847 168.659C54.7185 168.113 54.6481 167.566 54.6026 167.003C54.542 165.935 54.5351 164.864 54.5819 163.795C54.6754 161.736 54.9441 159.689 55.385 157.676C55.8178 155.74 56.3597 153.83 57.0079 151.955C58.286 148.322 59.7889 144.773 61.5081 141.327C61.9221 140.478 62.3361 139.617 62.7832 138.781C63.2303 137.945 63.6112 137.092 64.079 136.26C64.5468 135.428 64.965 134.604 65.4121 133.776L66.7493 131.292L72.1686 121.455ZM73.2698 122.018C71.4979 125.297 69.8502 128.642 68.3846 132.058L67.8381 133.337L67.3248 134.629C66.9729 135.486 66.6624 136.359 66.3477 137.229C65.706 138.963 65.1513 140.727 64.6379 142.495C63.615 145.985 62.9111 149.562 62.5348 153.18C62.3519 154.93 62.2731 156.69 62.2988 158.45C62.3359 160.134 62.5089 161.812 62.8163 163.468C62.9281 164.296 63.1807 165.045 63.3628 165.815L63.7396 166.921C63.8058 167.103 63.8596 167.285 63.9259 167.463L64.1618 167.985C64.723 169.324 65.4685 170.578 66.3767 171.711C66.6044 171.984 66.8321 172.249 67.0433 172.539L67.7885 173.284C67.9127 173.408 68.0286 173.54 68.1569 173.656L68.5709 173.992C68.8483 174.211 69.105 174.447 69.3989 174.662L70.289 175.275C70.4381 175.379 70.5747 175.49 70.732 175.581L71.2164 175.859L72.1727 176.418L73.2036 176.91C74.6322 177.588 76.1086 178.159 77.621 178.62C77.9936 178.753 78.4117 178.865 78.8257 178.976C79.2397 179.088 79.6537 179.212 80.0677 179.312C80.875 179.49 81.6864 179.705 82.4648 179.825C83.932 180.112 85.4244 180.251 86.9194 180.239C88.2857 180.218 89.6448 180.036 90.9683 179.697C93.6469 179.014 96.636 177.556 99.8776 175.822C101.496 174.965 103.148 174.054 104.846 173.131C106.543 172.207 108.278 171.309 110.021 170.406C117.094 166.799 124.414 163.696 131.925 161.12L133.308 160.632L134.72 160.168C135.66 159.862 136.599 159.543 137.543 159.253L143.07 157.568C144.83 157.026 146.573 156.451 148.307 155.859L150.887 154.927C151.739 154.6 152.592 154.277 153.441 153.942C155.118 153.246 156.811 152.563 158.442 151.785L159.684 151.213L160.897 150.613C161.725 150.224 162.491 149.785 163.29 149.371C166.424 147.672 169.385 145.673 172.133 143.401C173.474 142.272 174.734 141.051 175.905 139.746C177.069 138.467 178.11 137.081 179.014 135.606C180.842 132.678 182 129.383 182.404 125.955C182.584 124.23 182.576 122.491 182.38 120.768C182.317 120.354 182.276 119.898 182.202 119.476L181.945 118.234C181.731 117.444 181.442 116.676 181.084 115.941C180.37 114.485 179.306 113.229 177.987 112.285C176.579 111.309 175.009 110.589 173.35 110.161C171.587 109.699 169.786 109.394 167.968 109.25C166.122 109.097 164.242 109.043 162.338 109.06C158.537 109.081 154.662 109.317 150.667 109.399C148.663 109.428 146.626 109.399 144.532 109.275C142.358 109.153 140.199 108.846 138.077 108.356C133.561 107.251 129.669 105.226 126.146 102.974C119.149 98.445 113.639 93.0382 108.042 89.0596C105.255 87.0766 102.498 85.4951 99.6582 84.6257C98.2305 84.1879 96.7533 83.932 95.2615 83.8639C93.9062 83.7438 92.5416 83.9434 91.2775 84.4467C90.0135 84.9501 88.8852 85.7431 87.9834 86.7619C86.8584 87.9807 85.8942 89.3387 85.1144 90.8026C84.2682 92.3686 83.5121 93.9817 82.8498 95.634C82.1832 97.3355 81.5498 99.0784 80.9744 100.842C79.7903 104.369 78.7512 107.975 77.563 111.54C76.4367 115.149 75.0031 118.654 73.2781 122.018H73.2698Z" fill="#EBEBEB"/>
<path d="M187.426 37.2102C186.906 38.3248 186.31 39.4024 185.642 40.4353C185.335 40.9321 185.013 41.3999 184.69 41.8719C184.367 42.3438 184.027 42.7868 183.688 43.2215C183.017 44.1075 182.313 44.923 181.618 45.7386C178.778 48.9471 175.685 51.7002 172.655 54.4326L171.582 55.4055L171.11 55.8195L170.651 56.3039C170.34 56.6144 170.067 56.9704 169.777 57.3099C169.488 57.6494 169.231 58.0386 168.949 58.4194C168.668 58.8003 168.428 59.1895 168.188 59.6035C167.947 60.0175 167.703 60.4315 167.476 60.8455C167.033 61.6735 166.581 62.5719 166.188 63.4744C164.532 67.0927 163.29 70.9802 161.381 74.8759C160.382 76.9489 159.058 78.8495 157.461 80.5063C156.587 81.3828 155.614 82.1552 154.563 82.8082C154.027 83.136 153.475 83.4345 152.907 83.7024C152.621 83.8349 152.336 83.9756 152.046 84.0916L151.168 84.4186C150.001 84.8221 148.802 85.1241 147.583 85.3212C146.97 85.4329 146.308 85.4661 145.658 85.524C145.008 85.582 144.374 85.524 143.724 85.524C143.074 85.524 142.482 85.4122 141.824 85.3419C141.514 85.3049 141.206 85.2524 140.901 85.1845L139.982 84.9982L139.522 84.8989L139.079 84.7705L138.193 84.5056C137.607 84.3375 137.032 84.1343 136.471 83.897C134.275 83.0193 132.198 81.8675 130.29 80.4691C128.452 79.1058 126.755 77.5607 125.227 75.8571C123.737 74.1686 122.422 72.3335 121.302 70.3799C121.025 69.8914 120.76 69.3987 120.499 68.9102C120.238 68.4217 120.019 67.8959 119.783 67.3908C119.547 66.8857 119.331 66.3724 119.133 65.8507C118.934 65.3291 118.719 64.8199 118.553 64.2817C117.84 62.183 117.297 60.0301 116.93 57.844C116.558 55.6968 116.359 53.5232 116.334 51.3442C116.293 49.2155 116.454 47.0877 116.814 44.9893C117.17 42.9172 117.829 40.9085 118.768 39.0277C119.761 37.1208 121.177 35.4667 122.908 34.1922C124.672 32.9294 126.599 31.9139 128.638 31.1741C132.708 29.7017 136.919 28.6501 141.203 28.036C143.319 27.7131 145.422 27.4978 147.504 27.3653C147.706 27.3562 147.907 27.3299 148.104 27.2866L148.589 27.1997C148.92 27.1003 149.235 27.0714 149.562 26.9554L150.042 26.8188C150.203 26.7609 150.365 26.6946 150.526 26.6491C150.849 26.5621 151.189 26.3924 151.516 26.2889C153.01 25.68 154.464 24.9789 155.871 24.1899L158.326 22.8113L159.638 22.0702L161.046 21.3292C161.982 20.8158 163.029 20.3232 164.106 19.8346C165.274 19.324 166.475 18.8885 167.699 18.5305C169.08 18.1262 170.499 17.8681 171.934 17.7605C173.501 17.6406 175.076 17.7353 176.617 18.042L177.204 18.1538L177.776 18.307C178.153 18.4146 178.538 18.5181 178.914 18.6382C179.637 18.8925 180.344 19.1911 181.03 19.5324L182.028 20.0499L182.943 20.6171C183.534 21.0007 184.105 21.4152 184.652 21.8591C184.797 21.9667 184.909 22.0495 185.066 22.1862C185.224 22.3228 185.48 22.5505 185.691 22.7409C186.122 23.1287 186.517 23.554 186.871 24.0119C186.958 24.1237 187.054 24.2396 187.141 24.3597L187.393 24.7447C187.555 25.0055 187.708 25.2622 187.861 25.5271C188.135 26.0609 188.369 26.6145 188.561 27.1831C188.643 27.4647 188.718 27.742 188.788 28.0111C188.825 28.1519 188.859 28.2968 188.883 28.4251L188.95 28.8391C188.987 29.1041 189.016 29.3732 189.045 29.6423C189.074 29.9114 189.066 30.1432 189.074 30.3958C189.082 30.6483 189.074 30.8967 189.074 31.1368L189.016 31.8158C188.991 32.0352 188.975 32.2753 188.937 32.4823L188.817 33.1199C188.514 34.5327 188.047 35.9053 187.426 37.2102Z" fill="#EBEBEB"/>
<path d="M50.8724 146.701C51.0764 147.884 51.161 149.085 51.1249 150.286C51.0341 152.475 50.6584 154.644 50.0071 156.736C49.444 158.777 48.7257 160.771 47.8585 162.702C46.9772 164.642 45.8652 166.468 44.5465 168.142C43.1685 169.883 41.5646 171.432 39.7772 172.75C37.7735 174.153 35.47 175.071 33.0497 175.428C31.7667 175.62 30.4644 175.646 29.1747 175.507C27.9289 175.368 26.7116 175.04 25.5646 174.534C24.5471 174.077 23.5948 173.487 22.7328 172.779C21.9617 172.133 21.2303 171.442 20.5428 170.709C20.1869 170.325 19.8668 169.909 19.5864 169.467C19.3225 169.003 19.0968 168.518 18.9116 168.018C18.5643 166.984 18.3229 165.917 18.1912 164.834C17.8826 162.583 17.8576 160.302 18.1167 158.044C18.3628 155.877 19.0685 153.786 20.1867 151.913C21.2686 150.137 22.6962 148.597 24.3847 147.384C26.1274 146.202 28.0033 145.229 29.9737 144.486C31.936 143.708 33.8363 142.975 35.6413 142.122C37.4464 141.269 39.1935 140.321 41.3918 139.638C41.9786 139.452 42.5816 139.322 43.1927 139.249C43.9052 139.153 44.628 139.164 45.3372 139.282C46.2888 139.465 47.1762 139.893 47.9123 140.524C48.0952 140.684 48.2694 140.854 48.4339 141.033C48.5871 141.207 48.7403 141.385 48.8852 141.571C49.1393 141.916 49.3676 142.278 49.5683 142.656C49.7543 143.002 49.9202 143.359 50.0651 143.724C50.1893 144.055 50.3301 144.42 50.417 144.738L50.5619 145.239L50.682 145.724C50.7606 146.076 50.8144 146.382 50.8724 146.701Z" fill="#EBEBEB"/>
</g>
<g opacity="0.4">
<path d="M167.815 77.2027C177.548 69.6431 187.339 71.1128 187.339 71.1128C187.339 71.1128 187.385 81.0156 178.5 89.5565C171.003 96.7642 163.886 96.3543 161.431 93.5226C158.976 90.6908 159.601 83.5783 167.815 77.2027Z" fill="#EBEBEB"/>
<path d="M166.735 82.092C172.903 77.2979 179.109 78.2335 179.109 78.2335C179.109 78.2335 179.138 84.5056 173.508 89.9249C168.755 94.4789 164.238 94.2346 162.686 92.4379C161.133 90.6411 161.526 86.1327 166.735 82.092Z" fill="white"/>
</g>
<path d="M171.202 84.6795L170.465 84.0916C170.414 84.0517 170.372 84.0022 170.341 83.9461C170.31 83.8899 170.29 83.8281 170.283 83.7643C170.275 83.7005 170.281 83.6358 170.298 83.574C170.316 83.5123 170.346 83.4546 170.386 83.4044C170.426 83.3543 170.476 83.3127 170.532 83.2818C170.588 83.251 170.65 83.2316 170.714 83.2246C170.778 83.2177 170.843 83.2235 170.904 83.2415C170.966 83.2596 171.023 83.2896 171.073 83.3298L171.81 83.9177C171.86 83.9576 171.902 84.0069 171.932 84.0628C171.963 84.1188 171.983 84.1803 171.989 84.2438C171.996 84.3072 171.991 84.3715 171.973 84.4328C171.955 84.494 171.925 84.5512 171.885 84.6008C171.845 84.651 171.796 84.6929 171.74 84.7241C171.684 84.7553 171.623 84.7751 171.559 84.7824C171.496 84.7897 171.432 84.7844 171.37 84.7667C171.309 84.749 171.251 84.7194 171.202 84.6795Z" fill="#EBEBEB"/>
<path d="M162.892 92.2598L162.379 91.4691C162.309 91.3609 162.284 91.2291 162.31 91.1026C162.336 90.9762 162.412 90.8653 162.52 90.7943C162.574 90.7587 162.634 90.7341 162.697 90.7219C162.76 90.7098 162.825 90.7102 162.889 90.7233C162.952 90.7364 163.012 90.7618 163.065 90.7982C163.118 90.8345 163.164 90.881 163.199 90.935L163.712 91.7258C163.782 91.8345 163.806 91.9666 163.779 92.0932C163.752 92.2197 163.676 92.3302 163.567 92.4006C163.459 92.4711 163.327 92.4959 163.201 92.4695C163.074 92.4432 162.963 92.3678 162.892 92.2598Z" fill="#EBEBEB"/>
<path d="M167.745 83.1767H167.235C167.171 83.1745 167.108 83.1598 167.05 83.1332C166.991 83.1067 166.939 83.0689 166.895 83.022C166.851 82.975 166.817 82.92 166.794 82.8598C166.772 82.7997 166.761 82.7358 166.763 82.6716C166.766 82.6074 166.78 82.5443 166.807 82.4859C166.833 82.4274 166.871 82.3748 166.918 82.3309C166.965 82.2871 167.02 82.2529 167.08 82.2304C167.14 82.2079 167.204 82.1974 167.269 82.1996H167.774C167.838 82.2012 167.901 82.2155 167.959 82.2416C168.017 82.2677 168.07 82.3051 168.114 82.3517C168.158 82.3983 168.192 82.4531 168.215 82.513C168.237 82.5729 168.248 82.6366 168.246 82.7006C168.244 82.7647 168.23 82.8279 168.204 82.8866C168.178 82.9453 168.14 82.9982 168.094 83.0424C168.047 83.0866 167.992 83.1212 167.933 83.1443C167.873 83.1673 167.809 83.1783 167.745 83.1767Z" fill="#EBEBEB"/>
<path d="M172.431 89.2997V88.7946C172.433 88.7307 172.447 88.6676 172.473 88.6092C172.499 88.5508 172.536 88.4981 172.583 88.4542C172.63 88.4103 172.684 88.3761 172.744 88.3535C172.804 88.331 172.868 88.3205 172.932 88.3227C172.996 88.3243 173.059 88.3385 173.118 88.3646C173.177 88.3906 173.23 88.428 173.274 88.4745C173.318 88.521 173.353 88.5758 173.376 88.6357C173.399 88.6956 173.41 88.7595 173.408 88.8236V89.3328C173.406 89.3968 173.392 89.4598 173.366 89.5183C173.34 89.5767 173.302 89.6294 173.256 89.6733C173.209 89.7171 173.155 89.7514 173.095 89.7739C173.035 89.7965 172.971 89.807 172.907 89.8048C172.843 89.8032 172.779 89.7888 172.72 89.7625C172.661 89.7362 172.608 89.6985 172.564 89.6515C172.519 89.6046 172.485 89.5493 172.462 89.4889C172.439 89.4285 172.429 89.3642 172.431 89.2997Z" fill="#EBEBEB"/>
<path d="M161.638 89.4488L161.58 88.9479C161.566 88.8215 161.601 88.6945 161.678 88.5934C161.755 88.4924 161.868 88.425 161.994 88.4055C162.124 88.3916 162.253 88.4295 162.355 88.511C162.457 88.5924 162.522 88.7108 162.536 88.8402L162.59 89.3412C162.606 89.4673 162.571 89.5943 162.493 89.695C162.416 89.7956 162.302 89.8619 162.176 89.8794C162.113 89.8869 162.048 89.8816 161.986 89.864C161.925 89.8463 161.867 89.8166 161.817 89.7765C161.767 89.7365 161.725 89.6869 161.695 89.6306C161.664 89.5744 161.645 89.5126 161.638 89.4488Z" fill="#EBEBEB"/>
<path d="M169.856 93.862L169.384 94.0483C169.324 94.0718 169.261 94.0832 169.196 94.0819C169.132 94.0807 169.069 94.0668 169.01 94.041C168.951 94.0152 168.898 93.9781 168.853 93.9318C168.809 93.8855 168.774 93.8308 168.751 93.771C168.727 93.7112 168.716 93.6473 168.717 93.5831C168.718 93.5189 168.732 93.4556 168.758 93.3967C168.784 93.3379 168.821 93.2847 168.867 93.2403C168.914 93.1958 168.968 93.1609 169.028 93.1375L169.5 92.9554C169.62 92.9078 169.755 92.9099 169.873 92.9611C169.992 93.0123 170.086 93.1085 170.133 93.2286C170.157 93.2884 170.169 93.3523 170.168 93.4167C170.167 93.481 170.154 93.5446 170.128 93.6036C170.102 93.6625 170.065 93.7158 170.018 93.7602C169.971 93.8045 169.916 93.8392 169.856 93.862Z" fill="#EBEBEB"/>
<path d="M168.159 93.9086C171.252 93.5633 173.479 90.7764 173.134 87.6837C172.788 84.591 170.001 82.3638 166.909 82.7091C163.816 83.0543 161.589 85.8413 161.934 88.934C162.279 92.0266 165.066 94.2538 168.159 93.9086Z" fill="#EBEBEB"/>
<path d="M165.12 85.226C165.135 85.4971 165.238 85.756 165.414 85.9629C165.589 86.1778 165.819 86.3409 166.08 86.4348C166.349 86.5333 166.646 86.5244 166.908 86.41C167.158 86.2997 167.36 86.1046 167.48 85.8594C167.297 86.0294 167.08 86.1567 166.842 86.232C166.731 86.2645 166.614 86.2772 166.499 86.2692C166.383 86.2657 166.268 86.2433 166.159 86.203L165.993 86.1368C165.94 86.1078 165.886 86.0829 165.836 86.0498C165.734 85.9878 165.638 85.9157 165.55 85.8345C165.368 85.6626 165.221 85.4556 165.12 85.226Z" fill="#C7C7C7"/>
<path d="M167.169 85.3253C167.172 85.1348 167.109 84.9491 166.991 84.7995C166.872 84.6457 166.711 84.5294 166.527 84.4642C166.344 84.394 166.14 84.398 165.959 84.4753C165.778 84.5525 165.635 84.697 165.559 84.8782C165.691 84.7741 165.843 84.6981 166.006 84.6546C166.151 84.6191 166.304 84.6278 166.445 84.6795C166.759 84.7961 167.017 85.0267 167.169 85.3253Z" fill="#C7C7C7"/>
<path d="M169.5 88.9562C169.449 89.1351 169.465 89.3266 169.545 89.4944C169.623 89.6682 169.753 89.8131 169.918 89.9084C170.002 89.961 170.095 89.9958 170.193 90.0108C170.29 90.0257 170.39 90.0205 170.485 89.9953C170.666 89.9506 170.824 89.8399 170.928 89.6848C170.779 89.7535 170.62 89.7955 170.456 89.809C170.31 89.8131 170.166 89.7743 170.042 89.6972C169.911 89.6219 169.797 89.5205 169.707 89.3992C169.611 89.2655 169.541 89.1153 169.5 88.9562Z" fill="#C7C7C7"/>
<path d="M170.73 89.4612C170.755 89.4017 170.768 89.3376 170.768 89.2728C170.768 89.2081 170.755 89.144 170.73 89.0845C170.678 88.9578 170.587 88.8515 170.469 88.7823C170.407 88.7446 170.339 88.72 170.268 88.71C170.196 88.7 170.124 88.7049 170.055 88.7243C169.992 88.7429 169.933 88.7742 169.883 88.8162C169.832 88.8582 169.791 88.91 169.761 88.9686C169.866 88.9342 169.977 88.916 170.088 88.9147C170.177 88.9194 170.264 88.9464 170.34 88.9934C170.518 89.1028 170.654 89.2671 170.73 89.4612Z" fill="#C7C7C7"/>
<path d="M171.367 87.4865C171.323 87.5379 171.289 87.5978 171.269 87.6626C171.248 87.7273 171.241 87.7955 171.247 87.8632C171.254 87.9364 171.275 88.0075 171.31 88.0722C171.345 88.137 171.393 88.194 171.45 88.2399C171.507 88.2857 171.575 88.318 171.646 88.3345C171.718 88.3509 171.792 88.3512 171.864 88.3351C171.995 88.3065 172.112 88.2334 172.195 88.1281C172.079 88.1379 171.963 88.1379 171.847 88.1281C171.753 88.1264 171.663 88.0929 171.591 88.0329C171.517 87.9727 171.46 87.8942 171.425 87.8052C171.389 87.7028 171.369 87.5952 171.367 87.4865Z" fill="#C7C7C7"/>
<path d="M172.121 87.9501C172.159 87.9191 172.19 87.8792 172.209 87.8337C172.229 87.7882 172.237 87.7386 172.232 87.6893C172.23 87.6346 172.216 87.5811 172.191 87.5324C172.166 87.4838 172.131 87.4412 172.088 87.4078C172.044 87.3719 171.993 87.3472 171.938 87.3356C171.884 87.3241 171.827 87.3261 171.773 87.3416C171.726 87.3537 171.682 87.3754 171.643 87.4053C171.605 87.4352 171.573 87.4727 171.549 87.5154C171.63 87.517 171.71 87.5239 171.789 87.5361C171.842 87.5442 171.892 87.5656 171.934 87.5982C171.98 87.6348 172.018 87.6798 172.046 87.7307C172.08 87.8003 172.105 87.8741 172.121 87.9501Z" fill="#C7C7C7"/>
<path d="M163.505 86.6874C163.506 86.7559 163.521 86.8234 163.549 86.886C163.577 86.9486 163.617 87.005 163.667 87.0517C163.722 87.1032 163.787 87.1426 163.859 87.1676C163.93 87.1925 164.006 87.2024 164.081 87.1966C164.156 87.1933 164.23 87.1725 164.296 87.1359C164.362 87.0992 164.419 87.0478 164.462 86.9855C164.539 86.8756 164.577 86.7429 164.569 86.6088C164.494 86.6974 164.411 86.7792 164.321 86.853C164.248 86.9099 164.16 86.9445 164.068 86.9524C163.973 86.9572 163.877 86.9373 163.791 86.8944C163.685 86.8413 163.589 86.7714 163.505 86.6874Z" fill="#C7C7C7"/>
<path d="M164.379 86.5259C164.386 86.4771 164.381 86.4274 164.365 86.3807C164.349 86.334 164.323 86.2916 164.288 86.2569C164.25 86.2178 164.204 86.1873 164.153 86.1673C164.103 86.1474 164.048 86.1384 163.994 86.1409C163.942 86.1439 163.891 86.1581 163.844 86.1828C163.798 86.2074 163.758 86.2418 163.726 86.2836C163.695 86.3253 163.673 86.3735 163.662 86.4246C163.651 86.4758 163.651 86.5287 163.663 86.5798C163.737 86.5218 163.795 86.4721 163.853 86.4349C163.9 86.4077 163.952 86.3908 164.006 86.3852C164.064 86.3828 164.122 86.3927 164.176 86.4142C164.249 86.4417 164.317 86.4794 164.379 86.5259Z" fill="#C7C7C7"/>
<path d="M167.074 90.1402C166.862 90.2644 166.619 90.3232 166.374 90.3091C166.129 90.295 165.893 90.2087 165.698 90.061C165.502 89.9133 165.354 89.7109 165.273 89.4793C165.192 89.2477 165.181 88.9973 165.242 88.7597C165.303 88.5221 165.434 88.3079 165.616 88.1441C165.799 87.9804 166.026 87.8745 166.269 87.8397C166.512 87.8049 166.76 87.8428 166.981 87.9487C167.202 88.0546 167.387 88.2236 167.513 88.4345C167.596 88.5752 167.651 88.7311 167.675 88.8931C167.698 89.0551 167.689 89.2201 167.648 89.3786C167.607 89.5371 167.535 89.686 167.437 89.8167C167.338 89.9474 167.215 90.0574 167.074 90.1402Z" fill="#DBDBDB"/>
<path d="M165.795 88.5463C165.642 88.6365 165.512 88.7614 165.416 88.911C165.321 89.0606 165.262 89.2307 165.244 89.4074C165.188 89.2068 165.183 88.9952 165.23 88.7921C165.277 88.5891 165.374 88.4011 165.512 88.2455C165.651 88.0899 165.827 87.9717 166.023 87.9017C166.219 87.8318 166.43 87.8124 166.636 87.8453C166.842 87.8782 167.036 87.9623 167.201 88.09C167.365 88.2176 167.495 88.3847 167.578 88.5757C167.662 88.7668 167.695 88.9757 167.677 89.1833C167.658 89.3908 167.587 89.5904 167.471 89.7634C167.515 89.5515 167.497 89.3313 167.42 89.1292C167.342 88.9271 167.208 88.7515 167.034 88.6233C166.86 88.4951 166.652 88.4197 166.436 88.4061C166.22 88.3924 166.004 88.4411 165.815 88.5463H165.795Z" fill="#C7C7C7"/>
<path d="M164.772 89.4653C164.804 89.7948 164.935 90.1067 165.149 90.3596C165.369 90.6188 165.655 90.8146 165.977 90.9268C166.301 91.055 166.662 91.055 166.987 90.9268C167.283 90.7841 167.524 90.5466 167.67 90.2519C167.453 90.4727 167.186 90.6375 166.892 90.7322C166.821 90.7546 166.749 90.7712 166.676 90.7818C166.603 90.7901 166.53 90.7901 166.457 90.7818C166.315 90.7774 166.175 90.7494 166.043 90.6991L165.836 90.6163C165.77 90.579 165.703 90.55 165.641 90.5086C165.512 90.4307 165.391 90.3391 165.281 90.2354C165.062 90.0147 164.889 89.753 164.772 89.4653Z" fill="#C7C7C7"/>
<path d="M163.451 90.0863C163.394 90.1067 163.333 90.1155 163.272 90.1123C163.211 90.1091 163.151 90.0939 163.096 90.0676C163.04 90.0412 162.991 90.0043 162.95 89.9589C162.909 89.9134 162.878 89.8604 162.857 89.8027C162.837 89.7451 162.828 89.684 162.831 89.623C162.834 89.5619 162.85 89.5021 162.876 89.447C162.902 89.3918 162.939 89.3424 162.985 89.3015C163.03 89.2606 163.083 89.229 163.141 89.2086C163.257 89.17 163.384 89.1781 163.495 89.2315C163.605 89.2848 163.691 89.3791 163.733 89.4943C163.774 89.6101 163.767 89.7376 163.715 89.8486C163.662 89.9596 163.567 90.0451 163.451 90.0863Z" fill="#DBDBDB"/>
<path d="M163.116 89.424C163.054 89.4459 162.997 89.4826 162.952 89.5309C162.907 89.5792 162.873 89.6376 162.855 89.7013C162.845 89.5985 162.87 89.4952 162.925 89.408C162.981 89.3209 163.064 89.255 163.162 89.2211C163.278 89.1824 163.405 89.1906 163.516 89.2439C163.626 89.2972 163.712 89.3915 163.754 89.5068C163.783 89.5898 163.788 89.6794 163.768 89.7652C163.748 89.851 163.705 89.9293 163.642 89.9911C163.681 89.8928 163.681 89.7831 163.642 89.6848C163.625 89.6331 163.597 89.5852 163.562 89.5441C163.526 89.503 163.482 89.4693 163.433 89.4451C163.384 89.4209 163.331 89.4065 163.277 89.4029C163.222 89.3993 163.168 89.4064 163.116 89.424Z" fill="#C7C7C7"/>
<path d="M162.648 89.6765C162.63 89.8001 162.651 89.9265 162.71 90.0367C162.773 90.1496 162.864 90.2439 162.975 90.3099C163.089 90.3794 163.226 90.4017 163.356 90.372C163.479 90.3435 163.588 90.2714 163.663 90.1692C163.564 90.227 163.454 90.2637 163.34 90.2768C163.234 90.2838 163.128 90.2578 163.038 90.2023C162.94 90.1457 162.856 90.0699 162.789 89.9795C162.722 89.8891 162.674 89.786 162.648 89.6765Z" fill="#C7C7C7"/>
<path d="M166.962 92.736C166.833 92.7579 166.7 92.7411 166.58 92.6875C166.461 92.6339 166.36 92.546 166.29 92.4349C166.22 92.3239 166.185 92.1946 166.189 92.0636C166.193 91.9325 166.235 91.8056 166.312 91.6988C166.388 91.5919 166.494 91.5101 166.616 91.4636C166.739 91.4171 166.872 91.408 167 91.4375C167.128 91.467 167.244 91.5337 167.334 91.6293C167.424 91.7248 167.483 91.8449 167.505 91.9742C167.519 92.0599 167.517 92.1476 167.498 92.2324C167.478 92.3172 167.443 92.3973 167.392 92.4681C167.342 92.5389 167.278 92.5991 167.204 92.645C167.13 92.691 167.048 92.7219 166.962 92.736Z" fill="#DBDBDB"/>
<path d="M166.631 91.6968C166.538 91.7124 166.45 91.7499 166.375 91.806C166.299 91.8621 166.238 91.9354 166.196 92.0197C166.207 91.8573 166.277 91.7045 166.393 91.5907C166.509 91.477 166.664 91.4103 166.826 91.4036C166.989 91.3969 167.148 91.4507 167.273 91.5545C167.399 91.6583 167.481 91.8049 167.505 91.9659C167.525 92.0896 167.51 92.2165 167.462 92.3323C167.414 92.448 167.334 92.5477 167.231 92.62C167.31 92.4971 167.342 92.3504 167.322 92.206C167.311 92.1268 167.284 92.0505 167.244 91.9818C167.203 91.9131 167.148 91.8533 167.084 91.8058C167.019 91.7584 166.946 91.7243 166.868 91.7056C166.791 91.6868 166.71 91.6839 166.631 91.6968Z" fill="#C7C7C7"/>
<path d="M165.944 91.9535C165.899 92.1228 165.906 92.3017 165.964 92.4669C166.021 92.6358 166.123 92.786 166.258 92.9015C166.398 93.0209 166.576 93.0857 166.759 93.0837C166.936 93.0761 167.105 93.009 167.24 92.8933C167.091 92.9628 166.927 92.9954 166.763 92.9885C166.61 92.9741 166.465 92.9118 166.349 92.8105C166.227 92.707 166.128 92.5786 166.06 92.4337C165.988 92.2836 165.948 92.12 165.944 91.9535Z" fill="#C7C7C7"/>
<path d="M169.181 86.0539C169.304 86.2458 169.482 86.3958 169.692 86.4841C169.901 86.5724 170.133 86.5947 170.356 86.5482C170.579 86.5016 170.782 86.3883 170.939 86.2234C171.096 86.0584 171.199 85.8497 171.235 85.6248C171.27 85.3999 171.236 85.1695 171.138 84.9643C171.039 84.759 170.881 84.5886 170.683 84.4757C170.485 84.3628 170.258 84.3127 170.031 84.3321C169.804 84.3515 169.589 84.4394 169.413 84.5842C169.188 84.749 169.038 84.996 168.994 85.2713C168.951 85.5466 169.018 85.828 169.181 86.0539Z" fill="#DBDBDB"/>
<path d="M170.721 85.0852C170.813 85.1999 170.874 85.3361 170.899 85.481C170.924 85.6258 170.911 85.7746 170.862 85.9132C171.012 85.7363 171.097 85.5138 171.104 85.2822C171.111 85.0505 171.039 84.8234 170.899 84.6381C170.708 84.4364 170.444 84.3181 170.166 84.3088C169.888 84.2995 169.618 84.3999 169.413 84.5884C169.254 84.7141 169.131 84.8804 169.058 85.0698C168.986 85.2592 168.965 85.4647 168.999 85.6648C169.05 85.4207 169.183 85.2014 169.376 85.0438C169.56 84.872 169.805 84.7799 170.057 84.7877C170.309 84.7954 170.548 84.9024 170.721 85.0852Z" fill="#C7C7C7"/>
<path d="M168.734 85.3461C168.607 85.6041 168.588 85.9018 168.68 86.1741C168.728 86.3133 168.806 86.4404 168.908 86.5467C169.005 86.6581 169.126 86.7472 169.261 86.8079C169.396 86.8686 169.542 86.8995 169.69 86.8986C169.831 86.9016 169.97 86.8821 170.104 86.8406C170.368 86.7604 170.61 86.6185 170.808 86.4266C170.568 86.5262 170.318 86.5998 170.063 86.646C169.825 86.6884 169.58 86.6641 169.355 86.5756C169.249 86.5245 169.151 86.4575 169.065 86.3769C168.975 86.2984 168.902 86.2027 168.85 86.0954C168.744 85.8606 168.704 85.6017 168.734 85.3461Z" fill="#C7C7C7"/>
<path d="M27.3778 141.038L30.5656 137.85C30.7839 137.633 30.9571 137.375 31.0754 137.09C31.1936 136.806 31.2544 136.502 31.2544 136.194C31.2544 135.886 31.1936 135.581 31.0754 135.297C30.9571 135.013 30.7839 134.755 30.5656 134.538C30.3483 134.32 30.0902 134.147 29.806 134.029C29.5219 133.911 29.2172 133.851 28.9096 133.851C28.6019 133.851 28.2973 133.911 28.0131 134.029C27.729 134.147 27.4709 134.32 27.2536 134.538L24.0658 137.726C23.8475 137.943 23.6742 138.201 23.556 138.485C23.4378 138.769 23.377 139.074 23.377 139.382C23.377 139.689 23.4378 139.994 23.556 140.278C23.6742 140.562 23.8475 140.821 24.0658 141.038C24.2831 141.255 24.5412 141.428 24.8253 141.546C25.1095 141.664 25.4141 141.725 25.7218 141.725C26.0294 141.725 26.3341 141.664 26.6182 141.546C26.9024 141.428 27.1605 141.255 27.3778 141.038Z" fill="#EBEBEB"/>
<path d="M70.9223 172.638L72.9468 168.61C73.2247 168.056 73.2713 167.414 73.0765 166.826C72.8817 166.238 72.4613 165.751 71.9077 165.472C71.6334 165.334 71.3347 165.251 71.0284 165.228C70.7222 165.206 70.4145 165.244 70.123 165.341C69.8316 165.437 69.562 165.59 69.3297 165.791C69.0975 165.992 68.9071 166.237 68.7695 166.511L66.7451 170.539C66.6069 170.813 66.5242 171.112 66.5017 171.418C66.4791 171.725 66.5172 172.032 66.6137 172.324C66.7102 172.615 66.8633 172.885 67.0642 173.117C67.265 173.349 67.5097 173.54 67.7842 173.677C68.0584 173.816 68.3572 173.898 68.6634 173.921C68.9697 173.943 69.2773 173.905 69.5688 173.809C69.8603 173.712 70.1299 173.559 70.3621 173.358C70.5944 173.157 70.7848 172.913 70.9223 172.638Z" fill="#EBEBEB"/>
<path d="M43.0105 132.037L45.4075 131.693C46.0212 131.605 46.5747 131.277 46.9466 130.781C47.3184 130.285 47.4781 129.662 47.3906 129.048C47.3475 128.744 47.2448 128.451 47.0884 128.187C46.932 127.923 46.725 127.692 46.4793 127.508C46.2336 127.323 45.9539 127.19 45.6563 127.114C45.3587 127.038 45.0491 127.021 44.7451 127.065L42.3481 127.409C42.044 127.452 41.7514 127.554 41.4871 127.711C41.2228 127.867 40.9919 128.074 40.8077 128.32C40.6235 128.566 40.4896 128.845 40.4136 129.143C40.3377 129.44 40.3211 129.75 40.365 130.054C40.4532 130.668 40.7813 131.221 41.2774 131.593C41.7734 131.965 42.3968 132.125 43.0105 132.037Z" fill="#EBEBEB"/>
<path d="M23.983 163.671L23.6394 161.274C23.5962 160.97 23.4935 160.677 23.3371 160.413C23.1808 160.149 22.9738 159.918 22.728 159.733C22.4823 159.549 22.2026 159.415 21.9051 159.339C21.6075 159.263 21.2979 159.247 20.9939 159.291C20.6904 159.334 20.3983 159.437 20.1345 159.593C19.8707 159.749 19.6403 159.956 19.4564 160.201C19.2726 160.446 19.139 160.725 19.0632 161.023C18.9875 161.32 18.9711 161.629 19.015 161.932L19.3545 164.333C19.4436 164.946 19.772 165.499 20.2678 165.871C20.7636 166.243 21.3864 166.403 21.9999 166.316C22.6135 166.228 23.1671 165.9 23.5389 165.404C23.9108 164.908 24.0705 164.285 23.983 163.671Z" fill="#EBEBEB"/>
<path d="M75.3936 160.061V154.753C75.3936 154.259 74.9932 153.859 74.4993 153.859H71.6137C71.1199 153.859 70.7195 154.259 70.7195 154.753V160.061C70.7195 160.555 71.1199 160.955 71.6137 160.955H74.4993C74.9932 160.955 75.3936 160.555 75.3936 160.061Z" fill="#EBEBEB"/>
<path d="M38.6717 183.99L41.0108 184.615C41.3074 184.694 41.6167 184.715 41.9211 184.674C42.2255 184.634 42.5189 184.534 42.7846 184.38C43.0503 184.227 43.2831 184.022 43.4696 183.778C43.6561 183.534 43.7927 183.256 43.8715 182.959C43.951 182.662 43.9712 182.353 43.931 182.048C43.8908 181.743 43.7909 181.45 43.6371 181.183C43.4834 180.917 43.2787 180.684 43.0347 180.497C42.7908 180.31 42.5124 180.173 42.2155 180.094L39.8764 179.469C39.5796 179.39 39.27 179.369 38.9653 179.41C38.6607 179.45 38.3669 179.55 38.1009 179.703C37.8348 179.857 37.6017 180.062 37.4148 180.306C37.2279 180.55 37.0908 180.828 37.0116 181.125C36.8535 181.725 36.9394 182.363 37.2505 182.9C37.5615 183.437 38.0725 183.829 38.6717 183.99Z" fill="#EBEBEB"/>
<path d="M46.7695 183.361C61.6635 183.361 73.7374 171.287 73.7374 156.393C73.7374 141.499 61.6635 129.425 46.7695 129.425C31.8755 129.425 19.8015 141.499 19.8015 156.393C19.8015 171.287 31.8755 183.361 46.7695 183.361Z" fill="#EBEBEB"/>
<path d="M56.5813 140.396C56.6491 141.691 56.2994 142.974 55.5835 144.056C54.8606 145.17 53.8471 146.066 52.6524 146.647C51.4239 147.264 50.0051 147.384 48.6904 146.982C47.4447 146.588 46.3777 145.767 45.6765 144.664C46.6352 145.374 47.7396 145.862 48.9099 146.092C49.4576 146.19 50.0181 146.19 50.5659 146.092C51.1123 146.008 51.6419 145.838 52.1349 145.587C52.3875 145.463 52.6441 145.326 52.8925 145.173C53.1409 145.02 53.3728 144.863 53.5922 144.681C54.0479 144.335 54.4644 143.941 54.8342 143.505C55.6131 142.592 56.2065 141.536 56.5813 140.396Z" fill="#C7C7C7"/>
<path d="M46.8855 141.948C46.7658 141.049 46.965 140.137 47.4485 139.369C47.9332 138.572 48.6375 137.93 49.4771 137.523C49.9098 137.305 50.3813 137.175 50.8645 137.14C51.3476 137.106 51.8328 137.167 52.2923 137.32C53.16 137.615 53.8815 138.231 54.3085 139.042C53.6257 138.62 52.8657 138.339 52.0729 138.214C51.3616 138.13 50.6414 138.258 50.0029 138.583C48.5833 139.28 47.4727 140.48 46.8855 141.948Z" fill="#C7C7C7"/>
<path d="M37.7527 160.471C38.0851 161.291 38.1086 162.205 37.819 163.042C37.5351 163.911 36.9919 164.672 36.2623 165.223C35.8902 165.514 35.4637 165.727 35.0079 165.85C34.5521 165.973 34.0763 166.003 33.6086 165.94C32.7279 165.818 31.923 165.376 31.3481 164.698C32.0898 164.943 32.8695 165.052 33.65 165.021C34.3409 164.971 35.0012 164.715 35.5461 164.288C36.1249 163.85 36.6117 163.303 36.9785 162.677C37.364 161.993 37.626 161.246 37.7527 160.471Z" fill="#C7C7C7"/>
<path d="M32.1678 163.53C32.0189 163.257 31.9262 162.956 31.8949 162.646C31.8636 162.336 31.8945 162.023 31.9856 161.725C32.1653 161.095 32.5462 160.541 33.0703 160.148C33.3388 159.936 33.649 159.782 33.9807 159.698C34.3124 159.614 34.6582 159.601 34.9954 159.659C35.3047 159.713 35.5999 159.828 35.8632 159.999C36.1265 160.17 36.3524 160.392 36.5272 160.653C36.0092 160.552 35.479 160.528 34.954 160.583C34.5265 160.645 34.1227 160.817 33.7824 161.083C32.9906 161.7 32.4233 162.56 32.1678 163.53Z" fill="#C7C7C7"/>
<path d="M28.0816 154.468C28.3198 154.69 28.5107 154.959 28.643 155.257C28.7753 155.555 28.8462 155.876 28.8517 156.202C28.8578 156.555 28.7932 156.905 28.6616 157.232C28.5301 157.559 28.3342 157.856 28.0858 158.107C27.8306 158.363 27.5197 158.558 27.1772 158.675C26.8347 158.792 26.4699 158.828 26.111 158.781C25.4678 158.71 24.8694 158.417 24.4177 157.953C24.9743 157.975 25.5315 157.943 26.082 157.858C26.519 157.793 26.9238 157.59 27.2371 157.279C27.5595 156.952 27.7944 156.549 27.9202 156.107C28.0648 155.573 28.1194 155.019 28.0816 154.468Z" fill="#C7C7C7"/>
<path d="M24.7407 157.088C24.5446 156.955 24.382 156.777 24.2657 156.571C24.1493 156.364 24.0824 156.133 24.07 155.896C24.0531 155.635 24.0921 155.374 24.1842 155.13C24.2763 154.886 24.4194 154.664 24.604 154.48C24.7944 154.288 25.028 154.145 25.2853 154.063C25.5426 153.981 25.8159 153.962 26.082 154.008C26.3113 154.042 26.5314 154.122 26.7297 154.242C26.928 154.362 27.1004 154.52 27.2371 154.708C26.8545 154.759 26.4756 154.835 26.1027 154.935C25.8529 154.998 25.6251 155.129 25.4445 155.312C25.2509 155.508 25.0976 155.74 24.9932 155.995C24.8575 156.346 24.7725 156.714 24.7407 157.088Z" fill="#C7C7C7"/>
<path d="M65.0351 146.482C65.0663 146.806 65.031 147.134 64.9314 147.444C64.8317 147.754 64.6698 148.041 64.4555 148.287C64.2264 148.554 63.9462 148.773 63.6312 148.931C63.3163 149.089 62.973 149.182 62.6215 149.206C62.2602 149.228 61.8987 149.167 61.5648 149.027C61.231 148.887 60.9339 148.672 60.6964 148.399C60.2618 147.921 60.0045 147.309 59.9678 146.664C60.377 147.049 60.822 147.394 61.2967 147.695C61.6659 147.933 62.0999 148.05 62.5387 148.03C62.9956 148.001 63.4381 147.859 63.8263 147.616C64.2883 147.306 64.6966 146.923 65.0351 146.482Z" fill="#C7C7C7"/>
<path d="M60.796 146.221C60.7385 145.99 60.7352 145.75 60.7862 145.518C60.8371 145.286 60.9411 145.069 61.0899 144.883C61.2504 144.678 61.4525 144.509 61.683 144.388C61.9135 144.267 62.1671 144.196 62.4271 144.18C62.6962 144.161 62.9658 144.208 63.2126 144.317C63.4593 144.426 63.6758 144.593 63.843 144.805C63.9948 144.981 64.1097 145.187 64.1808 145.409C64.2519 145.631 64.2778 145.864 64.257 146.096C63.9372 145.877 63.6024 145.681 63.2551 145.509C63.0272 145.389 62.7705 145.336 62.5141 145.355C62.2395 145.372 61.9708 145.442 61.7233 145.562C61.3845 145.737 61.0723 145.958 60.796 146.221Z" fill="#C7C7C7"/>
<path d="M49.9159 164.805C50.994 165.293 52.1928 165.45 53.3601 165.256C54.5275 165.061 55.6108 164.525 56.4726 163.714C57.3345 162.903 57.9361 161.854 58.2012 160.701C58.4663 159.547 58.3828 158.341 57.9614 157.235C57.54 156.13 56.7997 155.174 55.8344 154.489C54.869 153.805 53.7221 153.423 52.5391 153.391C51.3561 153.359 50.1904 153.679 49.1897 154.311C48.1891 154.943 47.3986 155.858 46.9185 156.939C46.2743 158.38 46.2282 160.018 46.7901 161.492C47.3521 162.967 48.4763 164.159 49.9159 164.805Z" fill="#DBDBDB"/>
<path d="M55.1406 156.538C55.9167 156.884 56.5997 157.41 57.1336 158.071C57.6676 158.732 58.0373 159.511 58.2125 160.342C58.3745 159.356 58.2854 158.345 57.9535 157.402C57.6215 156.459 57.0574 155.616 56.3131 154.948C55.5689 154.281 54.6686 153.812 53.6954 153.585C52.7221 153.358 51.7072 153.379 50.7444 153.647C49.7817 153.916 48.902 154.422 48.1868 155.121C47.4715 155.819 46.9436 156.686 46.6519 157.642C46.3602 158.598 46.314 159.612 46.5176 160.59C46.7212 161.569 47.1681 162.48 47.817 163.24C47.4808 162.244 47.4417 161.172 47.7044 160.153C47.9672 159.135 48.5204 158.216 49.2967 157.507C50.073 156.797 51.0389 156.329 52.0765 156.16C53.1141 155.99 54.1788 156.125 55.1406 156.55V156.538Z" fill="#C7C7C7"/>
<path d="M60.5888 160.351C60.6195 161.936 60.1597 163.491 59.2722 164.805C58.374 166.15 57.1336 167.232 55.6787 167.939C54.1918 168.69 52.4748 168.847 50.8763 168.378C49.3502 167.91 48.028 166.938 47.1255 165.621C48.2853 166.543 49.645 167.181 51.0957 167.484C51.4424 167.541 51.7921 167.579 52.1432 167.596C52.49 167.599 52.8364 167.572 53.1782 167.513C53.8682 167.409 54.5375 167.196 55.1612 166.884C55.48 166.722 55.7988 166.552 56.1051 166.37C56.4115 166.188 56.7096 165.985 56.9828 165.753C57.5542 165.317 58.0737 164.817 58.5312 164.263C59.4778 163.114 60.1782 161.782 60.5888 160.351Z" fill="#C7C7C7"/>
<path d="M67.1175 162.619C67.5474 162.722 67.9981 162.694 68.4124 162.541C68.8267 162.387 69.1859 162.113 69.4446 161.755C69.7033 161.397 69.8498 160.969 69.8654 160.528C69.8811 160.086 69.7652 159.65 69.5326 159.274C69.2999 158.898 68.9609 158.6 68.5586 158.417C68.1562 158.234 67.7086 158.175 67.2726 158.247C66.8365 158.319 66.4316 158.519 66.1092 158.821C65.7867 159.123 65.5613 159.514 65.4615 159.945C65.3273 160.519 65.4263 161.123 65.7367 161.624C66.0471 162.126 66.5437 162.484 67.1175 162.619Z" fill="#DBDBDB"/>
<path d="M68.4424 159.216C68.751 159.289 69.0382 159.433 69.2806 159.637C69.523 159.842 69.7139 160.1 69.8376 160.392C69.8272 160.019 69.7231 159.655 69.5348 159.333C69.3466 159.012 69.0802 158.742 68.7605 158.551C68.4407 158.359 68.0778 158.251 67.7052 158.237C67.3327 158.222 66.9625 158.302 66.6289 158.468C66.2952 158.635 66.0089 158.882 65.7964 159.189C65.5838 159.495 65.4518 159.85 65.4127 160.221C65.3735 160.592 65.4284 160.966 65.5722 161.31C65.7161 161.654 65.9443 161.956 66.2358 162.189C65.9829 161.749 65.9074 161.229 66.0247 160.736C66.1441 160.214 66.4658 159.76 66.9191 159.476C67.3725 159.191 67.9204 159.097 68.4424 159.216Z" fill="#C7C7C7"/>
<path d="M70.7071 160.218C70.8624 160.798 70.8232 161.413 70.5953 161.969C70.3687 162.541 69.9874 163.039 69.4941 163.406C68.9894 163.794 68.3551 163.973 67.7221 163.907C67.1202 163.837 66.5633 163.554 66.1531 163.108C66.652 163.335 67.1945 163.451 67.7428 163.447C68.2513 163.429 68.7412 163.251 69.1422 162.938C69.571 162.612 69.9304 162.203 70.1991 161.736C70.4679 161.269 70.6406 160.753 70.7071 160.218Z" fill="#C7C7C7"/>
<path d="M51.8203 177.051C52.4463 177.088 53.0691 176.938 53.6098 176.621C54.1505 176.303 54.5848 175.833 54.8576 175.268C55.1305 174.703 55.2297 174.071 55.1425 173.45C55.0554 172.829 54.7859 172.248 54.3683 171.78C53.9506 171.312 53.4035 170.979 52.7963 170.823C52.1891 170.666 51.5491 170.694 50.9575 170.901C50.3658 171.109 49.8491 171.488 49.4728 171.989C49.0965 172.491 48.8776 173.093 48.8437 173.719C48.8202 174.133 48.8786 174.548 49.0155 174.94C49.1524 175.331 49.3651 175.692 49.6415 176.002C49.918 176.311 50.2527 176.563 50.6265 176.743C51.0004 176.923 51.406 177.028 51.8203 177.051Z" fill="#DBDBDB"/>
<path d="M52.8388 171.967C53.289 171.991 53.7271 172.121 54.1172 172.347C54.5073 172.573 54.8382 172.889 55.0826 173.267C54.9771 172.748 54.7421 172.263 54.3996 171.858C54.0571 171.453 53.618 171.141 53.123 170.951C52.628 170.76 52.093 170.698 51.5674 170.769C51.0419 170.841 50.5428 171.043 50.1162 171.358C49.6897 171.673 49.3495 172.091 49.1272 172.573C48.9048 173.054 48.8074 173.584 48.8439 174.113C48.8805 174.642 49.0499 175.153 49.3364 175.6C49.6229 176.046 50.0173 176.413 50.4831 176.666C50.02 176.113 49.786 175.404 49.829 174.683C49.8481 174.307 49.9411 173.939 50.1027 173.599C50.2643 173.259 50.4914 172.954 50.7709 172.701C51.0505 172.449 51.377 172.255 51.7318 172.129C52.0866 172.003 52.4628 171.948 52.8388 171.967Z" fill="#C7C7C7"/>
<path d="M56.2585 172.82C56.5645 173.6 56.6266 174.455 56.4365 175.271C56.2472 176.105 55.8401 176.874 55.2566 177.499C54.663 178.147 53.8473 178.549 52.9713 178.625C52.1299 178.681 51.2936 178.455 50.595 177.983C51.3421 178.228 52.1367 178.291 52.9134 178.169C53.6505 178.029 54.3219 177.653 54.826 177.097C55.3506 176.539 55.75 175.876 55.9977 175.151C56.2455 174.401 56.3343 173.607 56.2585 172.82Z" fill="#C7C7C7"/>
<path d="M37.7112 146.502C36.2829 148.684 33.1282 149.148 30.6732 147.537C28.2182 145.927 27.3612 142.851 28.7936 140.669C30.2261 138.487 33.3725 138.024 35.8316 139.634C38.2908 141.245 39.1354 144.321 37.7112 146.502Z" fill="#DBDBDB"/>
<path d="M29.8701 142.714C29.4998 143.304 29.2845 143.978 29.2439 144.674C29.2034 145.369 29.339 146.064 29.6382 146.693C27.9822 144.995 27.5682 142.516 28.7854 140.665C30.2096 138.487 33.3642 138.024 35.8234 139.634C36.6486 140.143 37.3216 140.865 37.7718 141.724C38.222 142.583 38.4327 143.547 38.3819 144.515C38.0132 143.382 37.2625 142.412 36.2581 141.77C34.0308 140.313 31.1659 140.731 29.8701 142.714Z" fill="#C7C7C7"/>
<path d="M39.45 142.9C39.8169 143.463 40.0684 144.092 40.1899 144.752C40.3115 145.413 40.3006 146.09 40.1579 146.746C40.0018 147.43 39.698 148.072 39.2678 148.626C38.8411 149.187 38.3183 149.668 37.7236 150.046C37.1071 150.392 36.432 150.621 35.7323 150.721C35.0557 150.806 34.3702 150.786 33.6995 150.663C32.403 150.436 31.1787 149.906 30.1267 149.115C31.3232 149.463 32.555 149.675 33.7989 149.748C34.9483 149.832 36.0977 149.585 37.1109 149.036C37.5939 148.742 38.0248 148.37 38.386 147.935C38.7642 147.508 39.0603 147.016 39.2596 146.481C39.6492 145.328 39.7151 144.089 39.45 142.9Z" fill="#C7C7C7"/>
<path d="M160.115 140.706L162.396 141.124L162.905 143.53L163.414 141.124L165.695 140.702L163.422 140.147L162.905 137.879L162.383 140.147L160.115 140.706Z" fill="#C7C7C7"/>
<path d="M66.0164 127.723L68.2975 128.145L68.8067 130.551L69.3159 128.145L71.5971 127.723L69.3284 127.168L68.8067 124.9L68.2892 127.168L66.0164 127.723Z" fill="#C7C7C7"/>
<path d="M136.819 102.026L139.1 102.448L139.609 104.85L140.118 102.448L142.399 102.026L140.131 101.467L139.609 99.1985L139.091 101.467L136.819 102.026Z" fill="#C7C7C7"/>
<path d="M181.792 126.551L183.067 126.787L183.352 128.133L183.638 126.787L184.909 126.551L183.642 126.241L183.352 124.974L183.062 126.241L181.792 126.551Z" fill="#C7C7C7"/>
<path d="M85.0645 177.681L86.3354 177.917L86.6211 179.262L86.9068 177.917L88.1819 177.681L86.9109 177.37L86.6211 176.103L86.3313 177.37L85.0645 177.681Z" fill="#C7C7C7"/>
<path d="M178.674 66.0702L179.949 66.3062L180.235 67.6476L180.516 66.3062L181.791 66.0661L180.525 65.7597L180.235 64.4888L179.941 65.7597L178.674 66.0702Z" fill="#C7C7C7"/>
<path d="M28.3135 94.9716L29.5886 95.2076L29.8743 96.549L30.1558 95.2076L31.4309 94.9716L30.1641 94.6611L29.8743 93.3901L29.5845 94.6611L28.3135 94.9716Z" fill="#C7C7C7"/>
<path d="M35.1528 163.36L36.4279 163.596L36.7136 164.938L36.9951 163.596L38.2703 163.36L37.0034 163.05L36.7136 161.779L36.4197 163.05L35.1528 163.36Z" fill="#C7C7C7"/>
<path d="M173.756 100.105L175.031 100.341L175.312 101.683L175.598 100.341L176.873 100.105L175.606 99.7947L175.312 98.5237L175.023 99.7947L173.756 100.105Z" fill="#C7C7C7"/>
<path d="M119.99 143.53L121.265 143.766L121.55 145.111L121.836 143.766L123.111 143.53L121.84 143.219L121.55 141.952L121.26 143.219L119.99 143.53Z" fill="#C7C7C7"/>
<path d="M73.605 35.633L74.8801 35.869L75.1658 37.2103L75.4514 35.869L76.7224 35.633L75.4556 35.3225L75.1658 34.0515L74.876 35.3225L73.605 35.633Z" fill="#C7C7C7"/>
<path d="M123.504 138.649L124.78 138.885L125.065 140.23L125.351 138.885L126.626 138.649L125.355 138.338L125.065 137.067L124.775 138.338L123.504 138.649Z" fill="#C7C7C7"/>
<path d="M82.0465 180.587C82.138 180.597 82.2227 180.64 82.2843 180.708C82.3458 180.777 82.3799 180.865 82.3799 180.957C82.3799 181.049 82.3458 181.138 82.2843 181.207C82.2227 181.275 82.138 181.318 82.0465 181.328C81.955 181.318 81.8703 181.275 81.8087 181.207C81.7472 181.138 81.7131 181.049 81.7131 180.957C81.7131 180.865 81.7472 180.777 81.8087 180.708C81.8703 180.64 81.955 180.597 82.0465 180.587Z" fill="#C7C7C7"/>
<path d="M147.959 111.287C148.051 111.297 148.136 111.34 148.197 111.409C148.259 111.477 148.293 111.566 148.293 111.658C148.293 111.75 148.259 111.839 148.197 111.907C148.136 111.976 148.051 112.019 147.959 112.028C147.868 112.019 147.783 111.976 147.722 111.907C147.66 111.839 147.626 111.75 147.626 111.658C147.626 111.566 147.66 111.477 147.722 111.409C147.783 111.34 147.868 111.297 147.959 111.287Z" fill="#C7C7C7"/>
<path d="M116.433 142.416C116.531 142.416 116.625 142.455 116.694 142.524C116.763 142.593 116.802 142.687 116.802 142.784C116.802 142.882 116.763 142.976 116.694 143.045C116.625 143.114 116.531 143.153 116.433 143.153C116.336 143.153 116.242 143.114 116.173 143.045C116.104 142.976 116.065 142.882 116.065 142.784C116.065 142.687 116.104 142.593 116.173 142.524C116.242 142.455 116.336 142.416 116.433 142.416Z" fill="#C7C7C7"/>
<path d="M61.6321 177.817C61.7299 177.817 61.8236 177.856 61.8927 177.925C61.9618 177.994 62.0006 178.088 62.0006 178.186C62.0006 178.283 61.9618 178.377 61.8927 178.446C61.8236 178.515 61.7299 178.554 61.6321 178.554C61.5344 178.554 61.4407 178.515 61.3716 178.446C61.3025 178.377 61.2637 178.283 61.2637 178.186C61.2637 178.088 61.3025 177.994 61.3716 177.925C61.4407 177.856 61.5344 177.817 61.6321 177.817Z" fill="#C7C7C7"/>
<path d="M184.979 182.711C185.071 182.72 185.156 182.764 185.217 182.832C185.279 182.9 185.313 182.989 185.313 183.081C185.313 183.173 185.279 183.262 185.217 183.33C185.156 183.399 185.071 183.442 184.979 183.452C184.888 183.442 184.803 183.399 184.742 183.33C184.68 183.262 184.646 183.173 184.646 183.081C184.646 182.989 184.68 182.9 184.742 182.832C184.803 182.764 184.888 182.72 184.979 182.711Z" fill="#C7C7C7"/>
<path d="M165.542 116.131C165.64 116.131 165.733 116.17 165.803 116.239C165.872 116.308 165.911 116.402 165.911 116.5C165.911 116.597 165.872 116.691 165.803 116.76C165.733 116.829 165.64 116.868 165.542 116.868C165.444 116.868 165.351 116.829 165.282 116.76C165.212 116.691 165.174 116.597 165.174 116.5C165.174 116.402 165.212 116.308 165.282 116.239C165.351 116.17 165.444 116.131 165.542 116.131Z" fill="#C7C7C7"/>
<path d="M91.3035 173.942C91.3727 173.942 91.4391 173.97 91.488 174.019C91.5369 174.067 91.5644 174.134 91.5644 174.203C91.5644 174.272 91.5369 174.338 91.488 174.387C91.4391 174.436 91.3727 174.464 91.3035 174.464C91.2344 174.464 91.168 174.436 91.1191 174.387C91.0702 174.338 91.0427 174.272 91.0427 174.203C91.0427 174.134 91.0702 174.067 91.1191 174.019C91.168 173.97 91.2344 173.942 91.3035 173.942Z" fill="#C7C7C7"/>
<path d="M39.1064 38.2205C39.1705 38.2285 39.2294 38.2597 39.2721 38.3081C39.3148 38.3565 39.3383 38.4188 39.3383 38.4833C39.3383 38.5479 39.3148 38.6102 39.2721 38.6586C39.2294 38.707 39.1705 38.7382 39.1064 38.7462C39.0424 38.7382 38.9835 38.707 38.9408 38.6586C38.8981 38.6102 38.8745 38.5479 38.8745 38.4833C38.8745 38.4188 38.8981 38.3565 38.9408 38.3081C38.9835 38.2597 39.0424 38.2285 39.1064 38.2205Z" fill="#C7C7C7"/>
<path d="M139.932 122.233C140.001 122.233 140.067 122.261 140.116 122.31C140.165 122.359 140.193 122.425 140.193 122.494C140.193 122.563 140.165 122.63 140.116 122.679C140.067 122.728 140.001 122.755 139.932 122.755C139.863 122.755 139.796 122.728 139.748 122.679C139.699 122.63 139.671 122.563 139.671 122.494C139.671 122.425 139.699 122.359 139.748 122.31C139.796 122.261 139.863 122.233 139.932 122.233Z" fill="#C7C7C7"/>
<path d="M127.288 144.85C127.358 144.85 127.424 144.878 127.473 144.927C127.522 144.976 127.549 145.042 127.549 145.111C127.549 145.18 127.522 145.247 127.473 145.296C127.424 145.344 127.358 145.372 127.288 145.372C127.219 145.372 127.153 145.344 127.104 145.296C127.055 145.247 127.028 145.18 127.028 145.111C127.028 145.042 127.055 144.976 127.104 144.927C127.153 144.878 127.219 144.85 127.288 144.85Z" fill="#C7C7C7"/>
<path d="M106.609 140.441C106.673 140.449 106.732 140.48 106.775 140.529C106.817 140.577 106.841 140.639 106.841 140.704C106.841 140.769 106.817 140.831 106.775 140.879C106.732 140.928 106.673 140.959 106.609 140.967C106.545 140.959 106.486 140.928 106.443 140.879C106.401 140.831 106.377 140.769 106.377 140.704C106.377 140.639 106.401 140.577 106.443 140.529C106.486 140.48 106.545 140.449 106.609 140.441Z" fill="#C7C7C7"/>
<path d="M131.056 117.485C131.244 117.485 131.424 117.559 131.556 117.692C131.689 117.825 131.764 118.005 131.764 118.193C131.764 118.381 131.689 118.561 131.556 118.693C131.424 118.826 131.244 118.901 131.056 118.901C130.868 118.901 130.688 118.826 130.555 118.693C130.422 118.561 130.348 118.381 130.348 118.193C130.348 118.005 130.422 117.825 130.555 117.692C130.688 117.559 130.868 117.485 131.056 117.485Z" fill="#C7C7C7"/>
<path d="M94.8018 45.9416L97.0829 46.3639L97.5921 48.7651L98.1013 46.3639L100.382 45.9416L98.1096 45.3869L97.5921 43.114L97.0705 45.3869L94.8018 45.9416Z" fill="#C7C7C7"/>
<path d="M103.492 25.1298L104.767 25.3658L105.052 26.7072L105.338 25.3658L106.609 25.1298L105.342 24.8193L105.052 23.5483L104.763 24.8193L103.492 25.1298Z" fill="#C7C7C7"/>
<path d="M26.2227 59.616C26.3204 59.616 26.4141 59.6548 26.4832 59.7239C26.5523 59.793 26.5912 59.8867 26.5912 59.9844C26.5912 60.0821 26.5523 60.1759 26.4832 60.245C26.4141 60.3141 26.3204 60.3529 26.2227 60.3529C26.125 60.3529 26.0313 60.3141 25.9622 60.245C25.8931 60.1759 25.8542 60.0821 25.8542 59.9844C25.8542 59.8867 25.8931 59.793 25.9622 59.7239C26.0313 59.6548 26.125 59.616 26.2227 59.616Z" fill="#C7C7C7"/>
<path d="M32.027 157.61C32.1185 157.62 32.2032 157.663 32.2648 157.731C32.3263 157.8 32.3604 157.888 32.3604 157.98C32.3604 158.072 32.3263 158.161 32.2648 158.23C32.2032 158.298 32.1185 158.341 32.027 158.351C31.9355 158.341 31.8508 158.298 31.7892 158.23C31.7277 158.161 31.6936 158.072 31.6936 157.98C31.6936 157.888 31.7277 157.8 31.7892 157.731C31.8508 157.663 31.9355 157.62 32.027 157.61Z" fill="#C7C7C7"/>
<path d="M22.0206 175.95C22.1122 175.96 22.1968 176.003 22.2584 176.071C22.32 176.14 22.354 176.228 22.354 176.32C22.354 176.413 22.32 176.501 22.2584 176.57C22.1968 176.638 22.1122 176.681 22.0206 176.691C21.9291 176.681 21.8444 176.638 21.7829 176.57C21.7213 176.501 21.6873 176.413 21.6873 176.32C21.6873 176.228 21.7213 176.14 21.7829 176.071C21.8444 176.003 21.9291 175.96 22.0206 175.95Z" fill="#C7C7C7"/>
<path d="M40.9445 90.5916C41.036 90.6012 41.1207 90.6444 41.1822 90.7129C41.2438 90.7813 41.2778 90.87 41.2778 90.9621C41.2778 91.0541 41.2438 91.1429 41.1822 91.2113C41.1207 91.2797 41.036 91.3229 40.9445 91.3326C40.8529 91.3229 40.7683 91.2797 40.7067 91.2113C40.6451 91.1429 40.6111 91.0541 40.6111 90.9621C40.6111 90.87 40.6451 90.7813 40.7067 90.7129C40.7683 90.6444 40.8529 90.6012 40.9445 90.5916Z" fill="#C7C7C7"/>
<path d="M22.0206 26.8148C22.1122 26.8245 22.1968 26.8677 22.2584 26.9361C22.32 27.0045 22.354 27.0933 22.354 27.1854C22.354 27.2774 22.32 27.3662 22.2584 27.4346C22.1968 27.503 22.1122 27.5462 22.0206 27.5559C21.9291 27.5462 21.8444 27.503 21.7829 27.4346C21.7213 27.3662 21.6873 27.2774 21.6873 27.1854C21.6873 27.0933 21.7213 27.0045 21.7829 26.9361C21.8444 26.8677 21.9291 26.8245 22.0206 26.8148Z" fill="#C7C7C7"/>
<path d="M55.563 139.994C55.627 140.002 55.6859 140.033 55.7286 140.082C55.7713 140.13 55.7949 140.192 55.7949 140.257C55.7949 140.322 55.7713 140.384 55.7286 140.432C55.6859 140.481 55.627 140.512 55.563 140.52C55.4989 140.512 55.44 140.481 55.3973 140.432C55.3546 140.384 55.3311 140.322 55.3311 140.257C55.3311 140.192 55.3546 140.13 55.3973 140.082C55.44 140.033 55.4989 140.002 55.563 139.994Z" fill="#C7C7C7"/>
<path d="M110.7 173.499C110.769 173.499 110.835 173.527 110.884 173.575C110.933 173.624 110.96 173.691 110.96 173.76C110.96 173.829 110.933 173.895 110.884 173.944C110.835 173.993 110.769 174.021 110.7 174.021C110.63 174.021 110.564 173.993 110.515 173.944C110.466 173.895 110.439 173.829 110.439 173.76C110.439 173.691 110.466 173.624 110.515 173.575C110.564 173.527 110.63 173.499 110.7 173.499Z" fill="#C7C7C7"/>
<path d="M149.516 53.9153C149.58 53.9233 149.639 53.9545 149.682 54.0029C149.724 54.0513 149.748 54.1136 149.748 54.1782C149.748 54.2427 149.724 54.305 149.682 54.3535C149.639 54.4019 149.58 54.433 149.516 54.4411C149.452 54.433 149.393 54.4019 149.35 54.3535C149.308 54.305 149.284 54.2427 149.284 54.1782C149.284 54.1136 149.308 54.0513 149.35 54.0029C149.393 53.9545 149.452 53.9233 149.516 53.9153Z" fill="#C7C7C7"/>
<path d="M102.299 37.91C102.369 37.91 102.435 37.9375 102.484 37.9864C102.533 38.0353 102.56 38.1017 102.56 38.1709C102.56 38.24 102.533 38.3064 102.484 38.3553C102.435 38.4042 102.369 38.4317 102.299 38.4317C102.23 38.4317 102.164 38.4042 102.115 38.3553C102.066 38.3064 102.039 38.24 102.039 38.1709C102.039 38.1017 102.066 38.0353 102.115 37.9864C102.164 37.9375 102.23 37.91 102.299 37.91Z" fill="#C7C7C7"/>
<path d="M86.6213 130.708C86.809 130.708 86.9891 130.783 87.1219 130.915C87.2546 131.048 87.3292 131.228 87.3292 131.416C87.3292 131.604 87.2546 131.784 87.1219 131.917C86.9891 132.049 86.809 132.124 86.6213 132.124C86.4335 132.124 86.2534 132.049 86.1207 131.917C85.9879 131.784 85.9133 131.604 85.9133 131.416C85.9133 131.228 85.9879 131.048 86.1207 130.915C86.2534 130.783 86.4335 130.708 86.6213 130.708Z" fill="#C7C7C7"/>
<path d="M179.92 77.1903C180.099 77.204 180.266 77.2847 180.388 77.4164C180.51 77.548 180.578 77.7209 180.578 77.9003C180.578 78.0798 180.51 78.2526 180.388 78.3843C180.266 78.5159 180.099 78.5967 179.92 78.6103C179.741 78.5967 179.574 78.5159 179.452 78.3843C179.33 78.2526 179.262 78.0798 179.262 77.9003C179.262 77.7209 179.33 77.548 179.452 77.4164C179.574 77.2847 179.741 77.204 179.92 77.1903Z" fill="#C7C7C7"/>
<path d="M34.9706 139.286C35.1584 139.286 35.3385 139.361 35.4712 139.493C35.604 139.626 35.6786 139.806 35.6786 139.994C35.6786 140.182 35.604 140.362 35.4712 140.495C35.3385 140.627 35.1584 140.702 34.9706 140.702C34.7829 140.702 34.6028 140.627 34.47 140.495C34.3373 140.362 34.2627 140.182 34.2627 139.994C34.2627 139.806 34.3373 139.626 34.47 139.493C34.6028 139.361 34.7829 139.286 34.9706 139.286Z" fill="#C7C7C7"/>
<path d="M94.4707 112.029L95.7458 112.264L96.0315 113.606L96.3171 112.264L97.5923 112.029L96.3213 111.718L96.0315 110.447L95.7417 111.718L94.4707 112.029Z" fill="#C7C7C7"/>
<path d="M121.55 176.31L122.825 176.546L123.111 177.888L123.393 176.546L124.668 176.306L123.401 176L123.111 174.729L122.817 176L121.55 176.31Z" fill="#C7C7C7"/>
<path d="M127.197 159.754C127.289 159.764 127.374 159.807 127.435 159.876C127.497 159.944 127.531 160.033 127.531 160.125C127.531 160.217 127.497 160.306 127.435 160.374C127.374 160.443 127.289 160.486 127.197 160.495C127.106 160.486 127.021 160.443 126.96 160.374C126.898 160.306 126.864 160.217 126.864 160.125C126.864 160.033 126.898 159.944 126.96 159.876C127.021 159.807 127.106 159.764 127.197 159.754Z" fill="#C7C7C7"/>
<path d="M141.588 149.926C141.68 149.936 141.764 149.979 141.826 150.047C141.887 150.116 141.921 150.205 141.921 150.297C141.921 150.389 141.887 150.477 141.826 150.546C141.764 150.614 141.68 150.657 141.588 150.667C141.497 150.657 141.412 150.614 141.35 150.546C141.289 150.477 141.255 150.389 141.255 150.297C141.255 150.205 141.289 150.116 141.35 150.047C141.412 149.979 141.497 149.936 141.588 149.926Z" fill="#C7C7C7"/>
<path d="M96.0315 166.896L97.3066 167.132L97.5923 168.477L97.8779 167.132L99.1531 166.896L97.8821 166.585L97.5923 165.314L97.3025 166.585L96.0315 166.896Z" fill="#C7C7C7"/>
<path d="M148.502 47.8915C148.593 47.9012 148.678 47.9444 148.74 48.0128C148.801 48.0812 148.835 48.17 148.835 48.262C148.835 48.354 148.801 48.4428 148.74 48.5112C148.678 48.5796 148.593 48.6229 148.502 48.6325C148.41 48.6229 148.326 48.5796 148.264 48.5112C148.203 48.4428 148.168 48.354 148.168 48.262C148.168 48.17 148.203 48.0812 148.264 48.0128C148.326 47.9444 148.41 47.9012 148.502 47.8915Z" fill="#C7C7C7"/>
<path d="M157.39 151.11C157.46 151.11 157.526 151.138 157.575 151.186C157.624 151.235 157.651 151.302 157.651 151.371C157.651 151.44 157.624 151.506 157.575 151.555C157.526 151.604 157.46 151.632 157.39 151.632C157.321 151.632 157.255 151.604 157.206 151.555C157.157 151.506 157.13 151.44 157.13 151.371C157.13 151.302 157.157 151.235 157.206 151.186C157.255 151.138 157.321 151.11 157.39 151.11Z" fill="#C7C7C7"/>
<path d="M46.1692 106.655L47.4443 106.891L47.7258 108.232L48.0115 106.891L49.2866 106.655L48.0198 106.344L47.7258 105.073L47.436 106.344L46.1692 106.655Z" fill="#C7C7C7"/>
<path d="M31.431 126.986C31.5287 126.986 31.6224 127.025 31.6915 127.094C31.7606 127.163 31.7994 127.257 31.7994 127.355C31.7994 127.453 31.7606 127.546 31.6915 127.615C31.6224 127.684 31.5287 127.723 31.431 127.723C31.3332 127.723 31.2395 127.684 31.1704 127.615C31.1013 127.546 31.0625 127.453 31.0625 127.355C31.0625 127.257 31.1013 127.163 31.1704 127.094C31.2395 127.025 31.3332 126.986 31.431 126.986Z" fill="#C7C7C7"/>
<path d="M82.386 99.7739C82.4838 99.7739 82.5775 99.8127 82.6466 99.8818C82.7157 99.9509 82.7545 100.045 82.7545 100.142C82.7545 100.24 82.7157 100.334 82.6466 100.403C82.5775 100.472 82.4838 100.511 82.386 100.511C82.2883 100.511 82.1946 100.472 82.1255 100.403C82.0564 100.334 82.0176 100.24 82.0176 100.142C82.0176 100.045 82.0564 99.9509 82.1255 99.8818C82.1946 99.8127 82.2883 99.7739 82.386 99.7739Z" fill="#C7C7C7"/>
<path d="M39.1064 62.4436C39.1705 62.4517 39.2294 62.4828 39.2721 62.5312C39.3148 62.5796 39.3383 62.6419 39.3383 62.7065C39.3383 62.771 39.3148 62.8334 39.2721 62.8818C39.2294 62.9302 39.1705 62.9613 39.1064 62.9694C39.0424 62.9613 38.9835 62.9302 38.9408 62.8818C38.8981 62.8334 38.8745 62.771 38.8745 62.7065C38.8745 62.6419 38.8981 62.5796 38.9408 62.5312C38.9835 62.4828 39.0424 62.4517 39.1064 62.4436Z" fill="#C7C7C7"/>
<path d="M35.7573 60.03C35.945 60.03 36.1251 60.1046 36.2578 60.2374C36.3906 60.3701 36.4652 60.5502 36.4652 60.738C36.4652 60.9257 36.3906 61.1058 36.2578 61.2386C36.1251 61.3713 35.945 61.4459 35.7573 61.4459C35.5695 61.4459 35.3894 61.3713 35.2567 61.2386C35.1239 61.1058 35.0493 60.9257 35.0493 60.738C35.0493 60.5502 35.1239 60.3701 35.2567 60.2374C35.3894 60.1046 35.5695 60.03 35.7573 60.03Z" fill="#C7C7C7"/>
<path d="M180.603 28.7689C180.791 28.7689 180.971 28.8435 181.104 28.9763C181.237 29.109 181.311 29.2891 181.311 29.4769C181.311 29.6646 181.237 29.8447 181.104 29.9774C180.971 30.1102 180.791 30.1848 180.603 30.1848C180.416 30.1848 180.236 30.1102 180.103 29.9774C179.97 29.8447 179.896 29.6646 179.896 29.4769C179.896 29.2891 179.97 29.109 180.103 28.9763C180.236 28.8435 180.416 28.7689 180.603 28.7689Z" fill="#C7C7C7"/>
<path d="M96.7269 50.8557C96.4329 50.5038 79.401 42.6047 63.9753 54.3747C49.7958 65.1967 44.8734 85.5365 46.7571 86.025C49.063 86.6212 55.3807 76.917 67.5067 71.5805C71.8082 69.6886 78.6516 71.5805 78.6516 71.5805L96.7269 50.8557Z" fill="#BA68C8"/>
<path opacity="0.1" d="M78.66 71.5764C76.6292 71.0599 74.5451 70.782 72.45 70.7484C75.1244 65.1512 80.1172 54.7101 83.3589 47.9453C90.9889 48.0157 96.5779 50.6612 96.7476 50.8433L78.66 71.5764Z" fill="#610C7D"/>
<path d="M124.784 83.9468C125.082 84.2945 130.091 102.39 115.953 115.68C102.958 127.901 82.0879 129.429 81.914 127.491C81.7029 125.119 92.3137 120.474 99.5587 109.383C102.125 105.45 101.384 98.3871 101.384 98.3871L124.784 83.9468Z" fill="#BA68C8"/>
<path opacity="0.1" d="M125.442 97.7247L101.157 104.792C101.481 102.673 101.552 100.523 101.368 98.3871L124.767 83.9468C124.953 84.1455 126.684 90.1444 125.442 97.7247Z" fill="#610C7D"/>
<path d="M85.1306 106.067L68.4961 86.4474C68.4961 86.4474 77.1901 63.1847 97.7907 47.5603C108.087 39.7647 120.147 33.9315 130.981 30.073C145.906 24.7241 158.392 23.184 160.325 25.4527C162.259 27.7215 158.669 39.802 150.977 53.6586C145.392 63.6815 137.659 74.6442 128.286 83.5287C109.499 101.314 85.1306 106.067 85.1306 106.067Z" fill="#C7C7C7"/>
<path d="M125.541 75.1285C123.304 77.0274 120.554 78.22 117.638 78.5555C114.723 78.8909 111.774 78.3541 109.164 77.013C106.553 75.6718 104.4 73.5866 102.975 71.0211C101.55 68.4556 100.918 65.5252 101.159 62.6006C101.4 59.6759 102.503 56.8885 104.329 54.5909C106.155 52.2934 108.621 50.5889 111.415 49.6933C114.21 48.7976 117.207 48.751 120.028 49.5592C122.849 50.3675 125.367 51.9943 127.264 54.2339C129.803 57.2345 131.047 61.12 130.725 65.0375C130.402 68.9549 128.538 72.5842 125.541 75.1285Z" fill="#A6A6A6"/>
<path d="M126.353 73.7499C124.115 75.6471 121.365 76.8382 118.45 77.1724C115.535 77.5066 112.587 76.969 109.978 75.6275C107.368 74.286 105.216 72.201 103.791 69.636C102.367 67.0711 101.736 64.1414 101.977 61.2175C102.217 58.2936 103.32 55.5068 105.145 53.2094C106.969 50.9121 109.434 49.2074 112.228 48.311C115.021 47.4146 118.018 47.3667 120.839 48.1734C123.659 48.9801 126.178 50.6051 128.075 52.8429C130.618 55.8442 131.865 59.7325 131.542 63.653C131.219 67.5735 129.352 71.2052 126.353 73.7499Z" fill="#BA68C8"/>
<path d="M123.417 70.2764C121.867 71.5949 119.96 72.4237 117.938 72.658C115.916 72.8924 113.87 72.5217 112.059 71.5929C110.248 70.6641 108.753 69.2189 107.763 67.4402C106.774 65.6616 106.334 63.6293 106.5 61.6007C106.666 59.572 107.429 57.6381 108.695 56.0437C109.96 54.4493 111.669 53.2659 113.607 52.6435C115.545 52.0211 117.624 51.9874 119.581 52.5469C121.538 53.1064 123.285 54.2338 124.601 55.7865C126.364 57.8658 127.229 60.5596 127.007 63.2764C126.785 65.9932 125.494 68.5108 123.417 70.2764Z" fill="white"/>
<path d="M123.422 70.2764C122.451 71.103 121.335 71.7418 120.13 72.1601L111.85 71.4853C110.73 70.878 109.733 70.0664 108.911 69.0924C108.307 68.3853 107.804 67.5982 107.416 66.7533L125.26 68.2064C124.744 68.9772 124.126 69.6737 123.422 70.2764Z" fill="#EBEBEB"/>
<path d="M125.492 56.9994L109.023 55.6581C109.354 55.2769 109.714 54.9212 110.099 54.5941C112.178 52.8306 114.872 51.9646 117.589 52.1867C120.306 52.4087 122.824 53.7005 124.589 55.7781C124.921 56.1617 125.222 56.57 125.492 56.9994Z" fill="#EBEBEB"/>
<path d="M126.386 66.0744L106.679 64.4639C106.614 64.1619 106.566 63.8564 106.534 63.549L126.671 65.205C126.593 65.4865 126.493 65.7804 126.386 66.0744Z" fill="#EBEBEB"/>
<path d="M150.977 53.6585L130.981 30.0605C145.906 24.7241 158.392 23.184 160.326 25.4527C162.259 27.7214 158.686 39.8019 150.977 53.6585Z" fill="#BA68C8"/>
<path d="M136.86 32.0642C136.73 32.1754 136.569 32.2453 136.399 32.2652C136.229 32.2851 136.057 32.254 135.904 32.176C135.752 32.0979 135.626 31.9764 135.543 31.8267C135.459 31.6771 135.422 31.5061 135.436 31.3354C135.45 31.1647 135.514 31.0019 135.621 30.8678C135.727 30.7336 135.871 30.6341 136.034 30.5818C136.198 30.5295 136.373 30.5268 136.537 30.5741C136.702 30.6213 136.849 30.7163 136.959 30.8471C137.107 31.0219 137.18 31.2481 137.161 31.4762C137.142 31.7043 137.034 31.9158 136.86 32.0642Z" fill="white"/>
<path d="M140.416 36.2622C140.33 36.3381 140.229 36.3961 140.12 36.4327C140.011 36.4693 139.896 36.4838 139.781 36.4754C139.667 36.4669 139.555 36.4357 139.452 36.3835C139.35 36.3313 139.259 36.2592 139.184 36.1715C139.11 36.0837 139.054 35.9819 139.019 35.8722C138.985 35.7625 138.973 35.6471 138.983 35.5325C138.994 35.418 139.027 35.3068 139.081 35.2053C139.135 35.1038 139.209 35.0141 139.298 34.9415C139.474 34.7984 139.699 34.73 139.925 34.7509C140.15 34.7718 140.359 34.8805 140.505 35.0535C140.652 35.2264 140.724 35.45 140.708 35.676C140.691 35.902 140.586 36.1125 140.416 36.2622Z" fill="white"/>
<path d="M143.973 40.456C143.841 40.5632 143.681 40.6294 143.512 40.6462C143.343 40.663 143.173 40.6298 143.023 40.5506C142.872 40.4714 142.749 40.3498 142.667 40.2009C142.586 40.0521 142.55 39.8825 142.564 39.7133C142.578 39.5442 142.641 39.3829 142.747 39.2496C142.852 39.1162 142.994 39.0168 143.155 38.9635C143.316 38.9103 143.489 38.9057 143.653 38.9502C143.817 38.9948 143.964 39.0865 144.076 39.214C144.153 39.3012 144.212 39.4031 144.249 39.5137C144.286 39.6242 144.3 39.7411 144.29 39.8572C144.28 39.9733 144.247 40.0862 144.193 40.1892C144.138 40.2921 144.063 40.3829 143.973 40.456Z" fill="white"/>
<path d="M147.533 44.654C147.402 44.7617 147.242 44.8284 147.073 44.8458C146.904 44.8632 146.734 44.8306 146.583 44.7519C146.433 44.6733 146.309 44.5521 146.227 44.4035C146.145 44.2548 146.108 44.0854 146.122 43.9161C146.135 43.7469 146.198 43.5854 146.303 43.4517C146.408 43.318 146.549 43.2181 146.71 43.1644C146.871 43.1106 147.045 43.1055 147.209 43.1495C147.373 43.1935 147.52 43.2848 147.632 43.412C147.709 43.4992 147.768 43.6009 147.805 43.7113C147.842 43.8216 147.856 43.9382 147.847 44.0541C147.837 44.1701 147.805 44.2829 147.751 44.386C147.697 44.4891 147.623 44.5802 147.533 44.654Z" fill="white"/>
<path d="M151.11 48.852C150.979 48.9625 150.819 49.0319 150.649 49.0514C150.479 49.0709 150.307 49.0396 150.155 48.9614C150.003 48.8833 149.877 48.7618 149.794 48.6123C149.711 48.4629 149.674 48.2921 149.688 48.1216C149.702 47.9512 149.766 47.7886 149.872 47.6546C149.978 47.5205 150.122 47.4209 150.285 47.3684C150.448 47.3158 150.622 47.3127 150.787 47.3594C150.951 47.4061 151.098 47.5005 151.209 47.6307C151.283 47.7173 151.339 47.8177 151.374 47.926C151.409 48.0344 151.422 48.1485 151.413 48.262C151.404 48.3754 151.372 48.4859 151.32 48.5872C151.268 48.6884 151.197 48.7784 151.11 48.852Z" fill="white"/>
<path d="M73.2778 85.9877C73.1021 86.1308 72.8772 86.1993 72.6516 86.1784C72.4259 86.1574 72.2174 86.0488 72.071 85.8758C71.9246 85.7028 71.8519 85.4793 71.8685 85.2533C71.8852 85.0272 71.9899 84.8168 72.16 84.6671C72.2464 84.5911 72.347 84.5331 72.4561 84.4965C72.5651 84.4599 72.6803 84.4454 72.795 84.4539C72.9097 84.4623 73.0216 84.4935 73.1241 84.5457C73.2266 84.5979 73.3176 84.67 73.3919 84.7578C73.4662 84.8456 73.5223 84.9473 73.5568 85.057C73.5913 85.1667 73.6037 85.2822 73.593 85.3967C73.5824 85.5112 73.5491 85.6225 73.4949 85.724C73.4408 85.8254 73.367 85.9151 73.2778 85.9877Z" fill="#A6A6A6"/>
<path d="M76.8548 90.1858C76.7236 90.2934 76.5635 90.3602 76.3947 90.3776C76.2258 90.395 76.0555 90.3623 75.905 90.2837C75.7546 90.205 75.6306 90.0838 75.5485 89.9352C75.4664 89.7866 75.4299 89.6171 75.4434 89.4479C75.457 89.2786 75.52 89.1171 75.6247 88.9834C75.7293 88.8498 75.871 88.7498 76.0321 88.6961C76.1931 88.6424 76.3664 88.6372 76.5304 88.6812C76.6943 88.7253 76.8417 88.8166 76.9542 88.9438C77.0312 89.0309 77.0899 89.1327 77.1267 89.243C77.1635 89.3533 77.1777 89.4699 77.1684 89.5859C77.1592 89.7018 77.1266 89.8147 77.0727 89.9178C77.0188 90.0208 76.9447 90.112 76.8548 90.1858Z" fill="#A6A6A6"/>
<path d="M80.4111 94.3919C80.2806 94.5025 80.1203 94.5719 79.9504 94.5913C79.7805 94.6108 79.6086 94.5795 79.4565 94.5014C79.3043 94.4232 79.1788 94.3017 79.0956 94.1522C79.0125 94.0028 78.9756 93.832 78.9894 93.6616C79.0033 93.4911 79.0674 93.3285 79.1736 93.1945C79.2798 93.0604 79.4233 92.9608 79.5861 92.9083C79.7488 92.8558 79.9235 92.8526 80.088 92.8993C80.2526 92.946 80.3996 93.0404 80.5105 93.1706C80.5843 93.2573 80.6403 93.3576 80.6753 93.4659C80.7102 93.5743 80.7235 93.6884 80.7142 93.8019C80.705 93.9153 80.6735 94.0258 80.6215 94.1271C80.5695 94.2283 80.498 94.3183 80.4111 94.3919Z" fill="#A6A6A6"/>
<path d="M83.9674 98.5775C83.8361 98.6852 83.6761 98.7519 83.5072 98.7693C83.3383 98.7867 83.1681 98.754 83.0176 98.6754C82.8671 98.5967 82.7432 98.4755 82.6611 98.3269C82.579 98.1783 82.5424 98.0088 82.556 97.8396C82.5695 97.6704 82.6325 97.5088 82.7372 97.3752C82.8419 97.2415 82.9836 97.1416 83.1446 97.0878C83.3057 97.0341 83.479 97.0289 83.6429 97.0729C83.8069 97.117 83.9543 97.2083 84.0667 97.3355C84.1438 97.4226 84.2024 97.5244 84.2393 97.6347C84.2761 97.745 84.2903 97.8617 84.281 97.9776C84.2717 98.0935 84.2392 98.2064 84.1853 98.3095C84.1314 98.4126 84.0573 98.5037 83.9674 98.5775Z" fill="#A6A6A6"/>
<path d="M87.5236 102.771C87.3919 102.878 87.2317 102.945 87.0628 102.961C86.8938 102.978 86.7237 102.945 86.5735 102.866C86.4234 102.787 86.2998 102.665 86.2183 102.516C86.1367 102.367 86.1007 102.198 86.1148 102.029C86.1289 101.859 86.1925 101.698 86.2975 101.565C86.4026 101.431 86.5446 101.332 86.7058 101.279C86.867 101.226 87.0403 101.221 87.2041 101.265C87.3679 101.31 87.515 101.402 87.6271 101.529C87.7044 101.616 87.7633 101.718 87.8001 101.829C87.8369 101.939 87.8509 102.056 87.8412 102.172C87.8315 102.288 87.7984 102.401 87.7438 102.504C87.6892 102.607 87.6143 102.698 87.5236 102.771Z" fill="#A6A6A6"/>
<path opacity="0.2" d="M159.39 24.8689C147.872 25.6969 127.926 32.6687 106.94 49.1293C91.4317 61.2885 80.1171 82.5681 74.8427 93.9324L68.4961 86.4473C68.4961 86.4473 77.1901 63.1846 97.7907 47.5603C108.087 39.7647 120.147 33.9314 130.981 30.0729C144.357 25.2747 155.771 23.5359 159.39 24.8689Z" fill="white"/>
<path d="M77.6995 109.263L64.1741 93.3073L69.436 87.5569L84.2324 105.011L77.6995 109.263Z" fill="#BA68C8"/>
<path opacity="0.1" d="M84.2322 105.011L81.0486 107.081L67.4238 89.7551L69.4359 87.5609L84.2322 105.011Z" fill="#610C7D"/>
<path d="M150.766 55.7906L144.585 55.3766L141.679 61.2637L141.944 54.7059L136.322 52.106L142.565 52.1681L145.405 46.6329L145.256 52.8512L150.766 55.7906Z" fill="#FCFCFC"/>
<path d="M149.247 32.9585L145.79 32.7308L144.167 36.0221L144.316 32.354L141.174 30.9009L144.664 30.934L146.249 27.8414L146.167 31.319L149.247 32.9585Z" fill="#FCFCFC"/>
<path d="M121.294 103.14L117.841 102.908L116.218 106.199L116.363 102.535L113.221 101.082L116.711 101.115L118.3 98.0227L118.214 101.5L121.294 103.14Z" fill="#FCFCFC"/>
<path d="M59.8064 72.6073L56.3495 72.3754L54.7266 75.6667L54.8757 72.0028L51.7334 70.5497L55.2234 70.5828L56.809 67.4902L56.7262 70.9637L59.8064 72.6073Z" fill="#FCFCFC"/>
<path opacity="0.6" d="M74.7269 105.702C68.4548 109.929 62.9196 115.324 58.879 121.77C54.7331 128.248 52.3907 135.716 52.0935 143.401C51.9941 147.297 52.4698 151.187 53.5052 154.944C54.5706 158.771 56.1825 162.424 58.2911 165.79C60.4502 169.217 63.0395 172.353 65.9956 175.122C69.0044 177.937 72.2951 180.434 75.8157 182.574C72.0184 180.839 68.4112 178.715 65.0517 176.236C61.6519 173.716 58.5908 170.769 55.9437 167.467C50.4566 160.635 47.1121 152.332 46.3306 143.604C45.5523 134.782 47.4153 125.728 51.2738 117.65C55.1323 109.573 60.8993 102.399 67.7137 96.5365L74.7269 105.702Z" fill="#BA68C8"/>
<path d="M64.0002 115.32L61.5328 115.775L60.9822 118.375L60.4316 115.775L57.9641 115.316L60.4233 114.715L60.9822 112.26L61.5452 114.715L64.0002 115.32Z" fill="white"/>
<path d="M54.9212 164.018L53.5426 164.275L53.2362 165.728L52.9257 164.275L51.5471 164.018L52.9216 163.683L53.2362 162.313L53.5509 163.683L54.9212 164.018Z" fill="white"/>
<path d="M54.18 151.404L52.8014 151.656L52.495 153.114L52.1887 151.656L50.8059 151.404L52.1804 151.069L52.495 149.694L52.8097 151.069L54.18 151.404Z" fill="white"/>
<path d="M62.1785 107.209L60.7999 107.466L60.4894 108.919L60.1831 107.466L58.8044 107.209L60.1789 106.874L60.4894 105.504L60.8041 106.874L62.1785 107.209Z" fill="white"/>
<path d="M58.1834 167.165C58.0957 167.189 58.0182 167.241 57.963 167.313C57.9078 167.385 57.8779 167.473 57.8779 167.564C57.8779 167.655 57.9078 167.744 57.963 167.816C58.0182 167.888 58.0957 167.94 58.1834 167.964C58.2711 167.94 58.3485 167.888 58.4037 167.816C58.4589 167.744 58.4888 167.655 58.4888 167.564C58.4888 167.473 58.4589 167.385 58.4037 167.313C58.3485 167.241 58.2711 167.189 58.1834 167.165Z" fill="white"/>
<path d="M69.5933 105.264C69.5056 105.288 69.4281 105.34 69.3729 105.412C69.3177 105.484 69.2878 105.572 69.2878 105.663C69.2878 105.754 69.3177 105.842 69.3729 105.915C69.4281 105.987 69.5056 106.039 69.5933 106.063C69.681 106.039 69.7584 105.987 69.8136 105.915C69.8688 105.842 69.8987 105.754 69.8987 105.663C69.8987 105.572 69.8688 105.484 69.8136 105.412C69.7584 105.34 69.681 105.288 69.5933 105.264Z" fill="white"/>
<path d="M48.0735 140.913C47.9858 140.937 47.9084 140.989 47.8532 141.061C47.798 141.133 47.7681 141.222 47.7681 141.313C47.7681 141.403 47.798 141.492 47.8532 141.564C47.9084 141.636 47.9858 141.688 48.0735 141.712C48.1612 141.688 48.2386 141.636 48.2938 141.564C48.349 141.492 48.3789 141.403 48.3789 141.313C48.3789 141.222 48.349 141.133 48.2938 141.061C48.2386 140.989 48.1612 140.937 48.0735 140.913Z" fill="white"/>
<path d="M57.4713 165.083C57.402 165.091 57.3382 165.124 57.2918 165.177C57.2455 165.229 57.22 165.296 57.22 165.366C57.22 165.436 57.2455 165.503 57.2918 165.556C57.3382 165.608 57.402 165.641 57.4713 165.65C57.5406 165.641 57.6045 165.608 57.6508 165.556C57.6971 165.503 57.7226 165.436 57.7226 165.366C57.7226 165.296 57.6971 165.229 57.6508 165.177C57.6045 165.124 57.5406 165.091 57.4713 165.083Z" fill="white"/>
<path d="M47.9287 126.945C47.8541 126.945 47.7825 126.974 47.7297 127.027C47.6769 127.08 47.6472 127.152 47.6472 127.226C47.6472 127.301 47.6769 127.373 47.7297 127.425C47.7825 127.478 47.8541 127.508 47.9287 127.508C48.0034 127.508 48.075 127.478 48.1278 127.425C48.1806 127.373 48.2103 127.301 48.2103 127.226C48.2103 127.152 48.1806 127.08 48.1278 127.027C48.075 126.974 48.0034 126.945 47.9287 126.945Z" fill="white"/>
<path d="M50.8059 155.867C50.612 155.881 50.4306 155.968 50.2982 156.111C50.1659 156.253 50.0923 156.44 50.0923 156.635C50.0923 156.829 50.1659 157.016 50.2982 157.159C50.4306 157.301 50.612 157.388 50.8059 157.403C50.9998 157.388 51.1812 157.301 51.3136 157.159C51.4459 157.016 51.5195 156.829 51.5195 156.635C51.5195 156.44 51.4459 156.253 51.3136 156.111C51.1812 155.968 50.9998 155.881 50.8059 155.867Z" fill="white"/>
<path d="M51.5469 124.345C51.3438 124.345 51.149 124.426 51.0053 124.569C50.8617 124.713 50.781 124.908 50.781 125.111C50.781 125.314 50.8617 125.509 51.0053 125.652C51.149 125.796 51.3438 125.877 51.5469 125.877C51.75 125.877 51.9448 125.796 52.0885 125.652C52.2321 125.509 52.3128 125.314 52.3128 125.111C52.3128 124.908 52.2321 124.713 52.0885 124.569C51.9448 124.426 51.75 124.345 51.5469 124.345Z" fill="white"/>
</svg>
