<svg width="1440" height="677" viewBox="0 0 1440 677" fill="none" xmlns="http://www.w3.org/2000/svg">
<path d="M-525.294 298.808C-587.98 291.338 -638.324 265.494 -702.069 281.292C-755.289 294.485 -799.777 326.015 -819.988 363.455C-850.88 420.689 -833.048 486.634 -792.887 540.842C-775.526 564.24 -745.55 588.973 -709.05 584.463C-685.832 581.597 -668.732 567.424 -656.862 552.887C-629.957 519.938 -607.053 491.937 -547.257 490.499C-511.253 489.64 -476.283 498.333 -442.45 507.165C-408.616 515.998 -374.064 525.222 -338.048 525.493C-193.956 526.539 -138.761 412.248 -82.6516 338.236C-30.5291 269.472 50.4588 187.29 164.077 182.174C263.681 177.683 371.94 238.1 435.998 287.165C508.253 342.643 583.11 402.66 665.523 451.771C865.358 570.804 967.511 400.82 1134.85 351.644C1233.04 322.803 1304.71 349.142 1362.76 410.344C1410.7 460.883 1443.46 521.282 1511.93 557.817C1558.99 582.932 1639.68 588.217 1665.82 550.637C1687.87 518.948 1654.93 482.619 1623.73 455.141C1565.24 403.668 1506.2 351.784 1434.17 309.974C1362.14 268.165 1275.23 236.616 1182.6 232.48C1001.67 224.385 820.739 319.563 649.403 277.296C566.023 256.755 504.527 207.271 439.423 164.779C374.319 122.288 292.39 83.1863 204.957 91.4773C119.001 99.6375 55.7273 150.298 -11.7561 189.195C-156.515 272.628 -341.839 320.711 -525.294 298.808Z" fill="#F6F6F6"/>
<ellipse cx="1177" cy="421" rx="285" ry="103" fill="#F6F6F6"/>
<ellipse cx="250" cy="291" rx="309" ry="125" fill="#F6F6F6"/>
</svg>
